%TF.GenerationSoftware,KiCad,Pcbnew,8.0.0*%
%TF.CreationDate,2024-04-15T10:16:16+02:00*%
%TF.ProjectId,Project 3,50726f6a-6563-4742-9033-2e6b69636164,rev?*%
%TF.SameCoordinates,Original*%
%TF.FileFunction,Soldermask,Bot*%
%TF.FilePolarity,Negative*%
%FSLAX46Y46*%
G04 Gerber Fmt 4.6, Leading zero omitted, Abs format (unit mm)*
G04 Created by KiCad (PCBNEW 8.0.0) date 2024-04-15 10:16:16*
%MOMM*%
%LPD*%
G01*
G04 APERTURE LIST*
%ADD10C,1.000000*%
%ADD11R,1.300000X1.300000*%
%ADD12C,1.300000*%
%ADD13C,1.524800*%
%ADD14R,1.800000X1.800000*%
%ADD15C,1.800000*%
%ADD16C,1.320800*%
%ADD17R,1.320800X1.320800*%
%ADD18R,1.700000X1.700000*%
%ADD19O,1.700000X1.700000*%
G04 APERTURE END LIST*
D10*
%TO.C,D4*%
X104451800Y-46500000D02*
G75*
G02*
X103451800Y-46500000I-500000J0D01*
G01*
X103451800Y-46500000D02*
G75*
G02*
X104451800Y-46500000I500000J0D01*
G01*
X106991800Y-46500000D02*
G75*
G02*
X105991800Y-46500000I-500000J0D01*
G01*
X105991800Y-46500000D02*
G75*
G02*
X106991800Y-46500000I500000J0D01*
G01*
%TO.C,D6*%
X72590900Y-56960000D02*
G75*
G02*
X71590900Y-56960000I-500000J0D01*
G01*
X71590900Y-56960000D02*
G75*
G02*
X72590900Y-56960000I500000J0D01*
G01*
X72590900Y-59500000D02*
G75*
G02*
X71590900Y-59500000I-500000J0D01*
G01*
X71590900Y-59500000D02*
G75*
G02*
X72590900Y-59500000I500000J0D01*
G01*
%TO.C,D2*%
X130500000Y-57460000D02*
G75*
G02*
X129500000Y-57460000I-500000J0D01*
G01*
X129500000Y-57460000D02*
G75*
G02*
X130500000Y-57460000I500000J0D01*
G01*
X130500000Y-60000000D02*
G75*
G02*
X129500000Y-60000000I-500000J0D01*
G01*
X129500000Y-60000000D02*
G75*
G02*
X130500000Y-60000000I500000J0D01*
G01*
%TD*%
D11*
%TO.C,Q5*%
X88960000Y-72000000D03*
D12*
X90240000Y-70730000D03*
X91500000Y-72000000D03*
%TD*%
D11*
%TO.C,Q1*%
X115960000Y-72000000D03*
D12*
X117240000Y-70730000D03*
X118500000Y-72000000D03*
%TD*%
D13*
%TO.C,Q7*%
X111200000Y-72000000D03*
X113000000Y-72000000D03*
X109400000Y-72000000D03*
%TD*%
%TO.C,Q2*%
X98000000Y-72000000D03*
X99800000Y-72000000D03*
X96200000Y-72000000D03*
%TD*%
D14*
%TO.C,D1*%
X126000000Y-52500000D03*
D15*
X126000000Y-49960000D03*
%TD*%
D14*
%TO.C,D5*%
X75825000Y-50250000D03*
D15*
X75825000Y-52790000D03*
%TD*%
D13*
%TO.C,Q4*%
X84200000Y-72000000D03*
X86000000Y-72000000D03*
X82400000Y-72000000D03*
%TD*%
D14*
%TO.C,D3*%
X99250000Y-50000000D03*
D15*
X96710000Y-50000000D03*
%TD*%
D16*
%TO.C,RV2*%
X103500000Y-60987300D03*
D17*
X100960000Y-58447300D03*
X98420000Y-60987300D03*
%TD*%
D16*
%TO.C,RV3*%
X90000000Y-61200000D03*
D17*
X87460000Y-58660000D03*
X84920000Y-61200000D03*
%TD*%
D11*
%TO.C,Q3*%
X102460000Y-72000000D03*
D12*
X103740000Y-70730000D03*
X105000000Y-72000000D03*
%TD*%
D16*
%TO.C,RV1*%
X116968500Y-61000000D03*
D17*
X114428500Y-58460000D03*
X111888500Y-61000000D03*
%TD*%
D18*
%TO.C,J1*%
X118000000Y-82500000D03*
D19*
X118000000Y-79960000D03*
X115460000Y-82500000D03*
X115460000Y-79960000D03*
X112920000Y-82500000D03*
X112920000Y-79960000D03*
X110380000Y-82500000D03*
X110380000Y-79960000D03*
X107840000Y-82500000D03*
X107840000Y-79960000D03*
X105300000Y-82500000D03*
X105300000Y-79960000D03*
X102760000Y-82500000D03*
X102760000Y-79960000D03*
X100220000Y-82500000D03*
X100220000Y-79960000D03*
X97680000Y-82500000D03*
X97680000Y-79960000D03*
X95140000Y-82500000D03*
X95140000Y-79960000D03*
X92600000Y-82500000D03*
X92600000Y-79960000D03*
X90060000Y-82500000D03*
X90060000Y-79960000D03*
X87520000Y-82500000D03*
X87520000Y-79960000D03*
X84980000Y-82500000D03*
X84980000Y-79960000D03*
%TD*%
M02*
