M48
; DRILL file {KiCad 8.0.0} date 2024-04-15T10:16:16+0200
; FORMAT={-:-/ absolute / inch / decimal}
; #@! TF.CreationDate,2024-04-15T10:16:16+02:00
; #@! TF.GenerationSoftware,Kicad,Pcbnew,8.0.0
; #@! TF.FileFunction,Plated,1,2,PTH
FMAT,2
INCH
; #@! TA.AperFunction,Plated,PTH,ViaDrill
T1C0.0118
; #@! TA.AperFunction,Plated,PTH,ComponentDrill
T2C0.0295
; #@! TA.AperFunction,Plated,PTH,ComponentDrill
T3C0.0320
; #@! TA.AperFunction,Plated,PTH,ComponentDrill
T4C0.0354
; #@! TA.AperFunction,Plated,PTH,ComponentDrill
T5C0.0394
%
G90
G05
T1
X2.9083Y-3.0116
X2.9873Y-3.1015
X3.0044Y-3.1393
X3.1106Y-2.9985
X3.1831Y-1.9883
X3.1918Y-2.9108
X3.2635Y-3.0379
X3.3847Y-2.6329
X3.5583Y-2.5577
X3.6587Y-2.8841
X3.8096Y-3.0939
X3.9862Y-2.9581
X4.078Y-2.9488
X4.1891Y-3.0939
X4.3685Y-2.3067
X4.4094Y-3.0582
X4.5995Y-2.668
X4.642Y-2.9839
X4.7199Y-3.0552
X4.7482Y-1.9626
X4.7523Y-2.7823
X4.8232Y-3.1235
X4.8447Y-3.1578
T2
X3.5024Y-2.8346
X3.5528Y-2.7846
X3.6024Y-2.8346
X4.0339Y-2.8346
X4.0843Y-2.7846
X4.1339Y-2.8346
X4.5654Y-2.8346
X4.6157Y-2.7846
X4.6654Y-2.8346
T3
X3.2441Y-2.8346
X3.315Y-2.8346
X3.3433Y-2.4094
X3.3858Y-2.8346
X3.4433Y-2.3094
X3.5433Y-2.4094
X3.7874Y-2.8346
X3.8583Y-2.8346
X3.8748Y-2.4011
X3.9291Y-2.8346
X3.9748Y-2.3011
X4.0748Y-2.4011
X4.3071Y-2.8346
X4.378Y-2.8346
X4.4051Y-2.4016
X4.4488Y-2.8346
X4.5051Y-2.3016
X4.6051Y-2.4016
T4
X2.9852Y-1.9783
X2.9852Y-2.0783
X3.8075Y-1.9685
X3.9075Y-1.9685
X4.9606Y-1.9669
X4.9606Y-2.0669
T5
X2.8382Y-2.2425
X2.8382Y-2.3425
X3.3457Y-3.148
X3.3457Y-3.248
X3.4457Y-3.148
X3.4457Y-3.248
X3.5457Y-3.148
X3.5457Y-3.248
X3.6457Y-3.148
X3.6457Y-3.248
X3.7457Y-3.148
X3.7457Y-3.248
X3.8457Y-3.148
X3.8457Y-3.248
X3.9457Y-3.148
X3.9457Y-3.248
X4.0457Y-3.148
X4.0457Y-3.248
X4.0926Y-1.8307
X4.1457Y-3.148
X4.1457Y-3.248
X4.1926Y-1.8307
X4.2457Y-3.148
X4.2457Y-3.248
X4.3457Y-3.148
X4.3457Y-3.248
X4.4457Y-3.148
X4.4457Y-3.248
X4.5457Y-3.148
X4.5457Y-3.248
X4.6457Y-3.148
X4.6457Y-3.248
X5.1181Y-2.2622
X5.1181Y-2.3622
M30
