%TF.GenerationSoftware,KiCad,Pcbnew,8.0.0*%
%TF.CreationDate,2024-04-15T10:16:16+02:00*%
%TF.ProjectId,Project 3,50726f6a-6563-4742-9033-2e6b69636164,rev?*%
%TF.SameCoordinates,Original*%
%TF.FileFunction,Paste,Top*%
%TF.FilePolarity,Positive*%
%FSLAX46Y46*%
G04 Gerber Fmt 4.6, Leading zero omitted, Abs format (unit mm)*
G04 Created by KiCad (PCBNEW 8.0.0) date 2024-04-15 10:16:16*
%MOMM*%
%LPD*%
G01*
G04 APERTURE LIST*
G04 Aperture macros list*
%AMRoundRect*
0 Rectangle with rounded corners*
0 $1 Rounding radius*
0 $2 $3 $4 $5 $6 $7 $8 $9 X,Y pos of 4 corners*
0 Add a 4 corners polygon primitive as box body*
4,1,4,$2,$3,$4,$5,$6,$7,$8,$9,$2,$3,0*
0 Add four circle primitives for the rounded corners*
1,1,$1+$1,$2,$3*
1,1,$1+$1,$4,$5*
1,1,$1+$1,$6,$7*
1,1,$1+$1,$8,$9*
0 Add four rect primitives between the rounded corners*
20,1,$1+$1,$2,$3,$4,$5,0*
20,1,$1+$1,$4,$5,$6,$7,0*
20,1,$1+$1,$6,$7,$8,$9,0*
20,1,$1+$1,$8,$9,$2,$3,0*%
G04 Aperture macros list end*
%ADD10RoundRect,0.200000X0.200000X0.275000X-0.200000X0.275000X-0.200000X-0.275000X0.200000X-0.275000X0*%
%ADD11RoundRect,0.200000X-0.275000X0.200000X-0.275000X-0.200000X0.275000X-0.200000X0.275000X0.200000X0*%
%ADD12RoundRect,0.200000X0.275000X-0.200000X0.275000X0.200000X-0.275000X0.200000X-0.275000X-0.200000X0*%
%ADD13RoundRect,0.150000X-0.512500X-0.150000X0.512500X-0.150000X0.512500X0.150000X-0.512500X0.150000X0*%
%ADD14RoundRect,0.150000X0.150000X-0.512500X0.150000X0.512500X-0.150000X0.512500X-0.150000X-0.512500X0*%
%ADD15RoundRect,0.200000X-0.200000X-0.275000X0.200000X-0.275000X0.200000X0.275000X-0.200000X0.275000X0*%
%ADD16RoundRect,0.150000X0.512500X0.150000X-0.512500X0.150000X-0.512500X-0.150000X0.512500X-0.150000X0*%
G04 APERTURE END LIST*
D10*
%TO.C,R3*%
X101500000Y-54500000D03*
X99850000Y-54500000D03*
%TD*%
D11*
%TO.C,R15*%
X92000000Y-75175000D03*
X92000000Y-76825000D03*
%TD*%
D12*
%TO.C,R7*%
X119000000Y-76825000D03*
X119000000Y-75175000D03*
%TD*%
D11*
%TO.C,R5*%
X79500000Y-53675000D03*
X79500000Y-55325000D03*
%TD*%
D12*
%TO.C,R14*%
X105500000Y-76825000D03*
X105500000Y-75175000D03*
%TD*%
%TO.C,R16*%
X87000000Y-77150000D03*
X87000000Y-75500000D03*
%TD*%
%TO.C,R9*%
X113000000Y-76825000D03*
X113000000Y-75175000D03*
%TD*%
D10*
%TO.C,R6*%
X90825000Y-68000000D03*
X89175000Y-68000000D03*
%TD*%
D13*
%TO.C,Q6*%
X127725000Y-63550000D03*
X127725000Y-65450000D03*
X130000000Y-64500000D03*
%TD*%
D12*
%TO.C,R13*%
X99500000Y-76825000D03*
X99500000Y-75175000D03*
%TD*%
%TO.C,R12*%
X102500000Y-76825000D03*
X102500000Y-75175000D03*
%TD*%
%TO.C,R18*%
X84000000Y-77000000D03*
X84000000Y-75350000D03*
%TD*%
%TO.C,R8*%
X116000000Y-76825000D03*
X116000000Y-75175000D03*
%TD*%
%TO.C,R1*%
X122000000Y-55325000D03*
X122000000Y-53675000D03*
%TD*%
%TO.C,R11*%
X96500000Y-76825000D03*
X96500000Y-75175000D03*
%TD*%
D14*
%TO.C,Q8*%
X110550000Y-49275000D03*
X112450000Y-49275000D03*
X111500000Y-47000000D03*
%TD*%
D15*
%TO.C,R4*%
X100175000Y-68000000D03*
X101825000Y-68000000D03*
%TD*%
D12*
%TO.C,R17*%
X90000000Y-77000000D03*
X90000000Y-75350000D03*
%TD*%
D16*
%TO.C,Q9*%
X74725000Y-66725000D03*
X74725000Y-64825000D03*
X72450000Y-65775000D03*
%TD*%
D15*
%TO.C,R2*%
X110143500Y-67500000D03*
X111793500Y-67500000D03*
%TD*%
D12*
%TO.C,R10*%
X110000000Y-76825000D03*
X110000000Y-75175000D03*
%TD*%
M02*
