%TF.GenerationSoftware,KiCad,Pcbnew,8.0.0*%
%TF.CreationDate,2024-04-15T10:16:16+02:00*%
%TF.ProjectId,Project 3,50726f6a-6563-4742-9033-2e6b69636164,rev?*%
%TF.SameCoordinates,Original*%
%TF.FileFunction,Legend,Top*%
%TF.FilePolarity,Positive*%
%FSLAX46Y46*%
G04 Gerber Fmt 4.6, Leading zero omitted, Abs format (unit mm)*
G04 Created by KiCad (PCBNEW 8.0.0) date 2024-04-15 10:16:16*
%MOMM*%
%LPD*%
G01*
G04 APERTURE LIST*
G04 Aperture macros list*
%AMRoundRect*
0 Rectangle with rounded corners*
0 $1 Rounding radius*
0 $2 $3 $4 $5 $6 $7 $8 $9 X,Y pos of 4 corners*
0 Add a 4 corners polygon primitive as box body*
4,1,4,$2,$3,$4,$5,$6,$7,$8,$9,$2,$3,0*
0 Add four circle primitives for the rounded corners*
1,1,$1+$1,$2,$3*
1,1,$1+$1,$4,$5*
1,1,$1+$1,$6,$7*
1,1,$1+$1,$8,$9*
0 Add four rect primitives between the rounded corners*
20,1,$1+$1,$2,$3,$4,$5,0*
20,1,$1+$1,$4,$5,$6,$7,0*
20,1,$1+$1,$6,$7,$8,$9,0*
20,1,$1+$1,$8,$9,$2,$3,0*%
G04 Aperture macros list end*
%ADD10C,0.150000*%
%ADD11C,0.120000*%
%ADD12C,0.127000*%
%ADD13C,0.200000*%
%ADD14C,0.152400*%
%ADD15C,1.000000*%
%ADD16C,1.000000*%
%ADD17R,1.500000X1.000000*%
%ADD18R,1.300000X1.300000*%
%ADD19C,1.300000*%
%ADD20R,1.000000X1.500000*%
%ADD21RoundRect,0.200000X0.200000X0.275000X-0.200000X0.275000X-0.200000X-0.275000X0.200000X-0.275000X0*%
%ADD22RoundRect,0.200000X-0.275000X0.200000X-0.275000X-0.200000X0.275000X-0.200000X0.275000X0.200000X0*%
%ADD23RoundRect,0.200000X0.275000X-0.200000X0.275000X0.200000X-0.275000X0.200000X-0.275000X-0.200000X0*%
%ADD24C,1.524800*%
%ADD25RoundRect,0.150000X-0.512500X-0.150000X0.512500X-0.150000X0.512500X0.150000X-0.512500X0.150000X0*%
%ADD26R,1.800000X1.800000*%
%ADD27C,1.800000*%
%ADD28C,1.320800*%
%ADD29R,1.320800X1.320800*%
%ADD30RoundRect,0.150000X0.150000X-0.512500X0.150000X0.512500X-0.150000X0.512500X-0.150000X-0.512500X0*%
%ADD31RoundRect,0.200000X-0.200000X-0.275000X0.200000X-0.275000X0.200000X0.275000X-0.200000X0.275000X0*%
%ADD32RoundRect,0.150000X0.512500X0.150000X-0.512500X0.150000X-0.512500X-0.150000X0.512500X-0.150000X0*%
%ADD33R,1.700000X1.700000*%
%ADD34O,1.700000X1.700000*%
G04 APERTURE END LIST*
D10*
X82238095Y-48006819D02*
X82809523Y-48006819D01*
X82523809Y-49006819D02*
X82523809Y-48006819D01*
X83142857Y-49006819D02*
X83142857Y-48006819D01*
X83142857Y-48006819D02*
X83523809Y-48006819D01*
X83523809Y-48006819D02*
X83619047Y-48054438D01*
X83619047Y-48054438D02*
X83666666Y-48102057D01*
X83666666Y-48102057D02*
X83714285Y-48197295D01*
X83714285Y-48197295D02*
X83714285Y-48340152D01*
X83714285Y-48340152D02*
X83666666Y-48435390D01*
X83666666Y-48435390D02*
X83619047Y-48483009D01*
X83619047Y-48483009D02*
X83523809Y-48530628D01*
X83523809Y-48530628D02*
X83142857Y-48530628D01*
X84619047Y-48006819D02*
X84142857Y-48006819D01*
X84142857Y-48006819D02*
X84095238Y-48483009D01*
X84095238Y-48483009D02*
X84142857Y-48435390D01*
X84142857Y-48435390D02*
X84238095Y-48387771D01*
X84238095Y-48387771D02*
X84476190Y-48387771D01*
X84476190Y-48387771D02*
X84571428Y-48435390D01*
X84571428Y-48435390D02*
X84619047Y-48483009D01*
X84619047Y-48483009D02*
X84666666Y-48578247D01*
X84666666Y-48578247D02*
X84666666Y-48816342D01*
X84666666Y-48816342D02*
X84619047Y-48911580D01*
X84619047Y-48911580D02*
X84571428Y-48959200D01*
X84571428Y-48959200D02*
X84476190Y-49006819D01*
X84476190Y-49006819D02*
X84238095Y-49006819D01*
X84238095Y-49006819D02*
X84142857Y-48959200D01*
X84142857Y-48959200D02*
X84095238Y-48911580D01*
X129104819Y-79309523D02*
X129819104Y-79309523D01*
X129819104Y-79309523D02*
X129961961Y-79357142D01*
X129961961Y-79357142D02*
X130057200Y-79452380D01*
X130057200Y-79452380D02*
X130104819Y-79595237D01*
X130104819Y-79595237D02*
X130104819Y-79690475D01*
X130104819Y-78833332D02*
X129104819Y-78833332D01*
X129104819Y-78833332D02*
X129104819Y-78452380D01*
X129104819Y-78452380D02*
X129152438Y-78357142D01*
X129152438Y-78357142D02*
X129200057Y-78309523D01*
X129200057Y-78309523D02*
X129295295Y-78261904D01*
X129295295Y-78261904D02*
X129438152Y-78261904D01*
X129438152Y-78261904D02*
X129533390Y-78309523D01*
X129533390Y-78309523D02*
X129581009Y-78357142D01*
X129581009Y-78357142D02*
X129628628Y-78452380D01*
X129628628Y-78452380D02*
X129628628Y-78833332D01*
X130104819Y-77309523D02*
X130104819Y-77880951D01*
X130104819Y-77595237D02*
X129104819Y-77595237D01*
X129104819Y-77595237D02*
X129247676Y-77690475D01*
X129247676Y-77690475D02*
X129342914Y-77785713D01*
X129342914Y-77785713D02*
X129390533Y-77880951D01*
X129104819Y-76452380D02*
X129104819Y-76642856D01*
X129104819Y-76642856D02*
X129152438Y-76738094D01*
X129152438Y-76738094D02*
X129200057Y-76785713D01*
X129200057Y-76785713D02*
X129342914Y-76880951D01*
X129342914Y-76880951D02*
X129533390Y-76928570D01*
X129533390Y-76928570D02*
X129914342Y-76928570D01*
X129914342Y-76928570D02*
X130009580Y-76880951D01*
X130009580Y-76880951D02*
X130057200Y-76833332D01*
X130057200Y-76833332D02*
X130104819Y-76738094D01*
X130104819Y-76738094D02*
X130104819Y-76547618D01*
X130104819Y-76547618D02*
X130057200Y-76452380D01*
X130057200Y-76452380D02*
X130009580Y-76404761D01*
X130009580Y-76404761D02*
X129914342Y-76357142D01*
X129914342Y-76357142D02*
X129676247Y-76357142D01*
X129676247Y-76357142D02*
X129581009Y-76404761D01*
X129581009Y-76404761D02*
X129533390Y-76452380D01*
X129533390Y-76452380D02*
X129485771Y-76547618D01*
X129485771Y-76547618D02*
X129485771Y-76738094D01*
X129485771Y-76738094D02*
X129533390Y-76833332D01*
X129533390Y-76833332D02*
X129581009Y-76880951D01*
X129581009Y-76880951D02*
X129676247Y-76928570D01*
X121166666Y-60454819D02*
X121166666Y-61169104D01*
X121166666Y-61169104D02*
X121119047Y-61311961D01*
X121119047Y-61311961D02*
X121023809Y-61407200D01*
X121023809Y-61407200D02*
X120880952Y-61454819D01*
X120880952Y-61454819D02*
X120785714Y-61454819D01*
X121642857Y-61454819D02*
X121642857Y-60454819D01*
X121642857Y-60454819D02*
X122023809Y-60454819D01*
X122023809Y-60454819D02*
X122119047Y-60502438D01*
X122119047Y-60502438D02*
X122166666Y-60550057D01*
X122166666Y-60550057D02*
X122214285Y-60645295D01*
X122214285Y-60645295D02*
X122214285Y-60788152D01*
X122214285Y-60788152D02*
X122166666Y-60883390D01*
X122166666Y-60883390D02*
X122119047Y-60931009D01*
X122119047Y-60931009D02*
X122023809Y-60978628D01*
X122023809Y-60978628D02*
X121642857Y-60978628D01*
X123166666Y-61454819D02*
X122595238Y-61454819D01*
X122880952Y-61454819D02*
X122880952Y-60454819D01*
X122880952Y-60454819D02*
X122785714Y-60597676D01*
X122785714Y-60597676D02*
X122690476Y-60692914D01*
X122690476Y-60692914D02*
X122595238Y-60740533D01*
X94550057Y-72595238D02*
X94502438Y-72690476D01*
X94502438Y-72690476D02*
X94407200Y-72785714D01*
X94407200Y-72785714D02*
X94264342Y-72928571D01*
X94264342Y-72928571D02*
X94216723Y-73023809D01*
X94216723Y-73023809D02*
X94216723Y-73119047D01*
X94454819Y-73071428D02*
X94407200Y-73166666D01*
X94407200Y-73166666D02*
X94311961Y-73261904D01*
X94311961Y-73261904D02*
X94121485Y-73309523D01*
X94121485Y-73309523D02*
X93788152Y-73309523D01*
X93788152Y-73309523D02*
X93597676Y-73261904D01*
X93597676Y-73261904D02*
X93502438Y-73166666D01*
X93502438Y-73166666D02*
X93454819Y-73071428D01*
X93454819Y-73071428D02*
X93454819Y-72880952D01*
X93454819Y-72880952D02*
X93502438Y-72785714D01*
X93502438Y-72785714D02*
X93597676Y-72690476D01*
X93597676Y-72690476D02*
X93788152Y-72642857D01*
X93788152Y-72642857D02*
X94121485Y-72642857D01*
X94121485Y-72642857D02*
X94311961Y-72690476D01*
X94311961Y-72690476D02*
X94407200Y-72785714D01*
X94407200Y-72785714D02*
X94454819Y-72880952D01*
X94454819Y-72880952D02*
X94454819Y-73071428D01*
X93454819Y-71738095D02*
X93454819Y-72214285D01*
X93454819Y-72214285D02*
X93931009Y-72261904D01*
X93931009Y-72261904D02*
X93883390Y-72214285D01*
X93883390Y-72214285D02*
X93835771Y-72119047D01*
X93835771Y-72119047D02*
X93835771Y-71880952D01*
X93835771Y-71880952D02*
X93883390Y-71785714D01*
X93883390Y-71785714D02*
X93931009Y-71738095D01*
X93931009Y-71738095D02*
X94026247Y-71690476D01*
X94026247Y-71690476D02*
X94264342Y-71690476D01*
X94264342Y-71690476D02*
X94359580Y-71738095D01*
X94359580Y-71738095D02*
X94407200Y-71785714D01*
X94407200Y-71785714D02*
X94454819Y-71880952D01*
X94454819Y-71880952D02*
X94454819Y-72119047D01*
X94454819Y-72119047D02*
X94407200Y-72214285D01*
X94407200Y-72214285D02*
X94359580Y-72261904D01*
X79016666Y-44154819D02*
X79016666Y-44869104D01*
X79016666Y-44869104D02*
X78969047Y-45011961D01*
X78969047Y-45011961D02*
X78873809Y-45107200D01*
X78873809Y-45107200D02*
X78730952Y-45154819D01*
X78730952Y-45154819D02*
X78635714Y-45154819D01*
X79492857Y-45154819D02*
X79492857Y-44154819D01*
X79492857Y-44154819D02*
X79873809Y-44154819D01*
X79873809Y-44154819D02*
X79969047Y-44202438D01*
X79969047Y-44202438D02*
X80016666Y-44250057D01*
X80016666Y-44250057D02*
X80064285Y-44345295D01*
X80064285Y-44345295D02*
X80064285Y-44488152D01*
X80064285Y-44488152D02*
X80016666Y-44583390D01*
X80016666Y-44583390D02*
X79969047Y-44631009D01*
X79969047Y-44631009D02*
X79873809Y-44678628D01*
X79873809Y-44678628D02*
X79492857Y-44678628D01*
X80540476Y-45154819D02*
X80730952Y-45154819D01*
X80730952Y-45154819D02*
X80826190Y-45107200D01*
X80826190Y-45107200D02*
X80873809Y-45059580D01*
X80873809Y-45059580D02*
X80969047Y-44916723D01*
X80969047Y-44916723D02*
X81016666Y-44726247D01*
X81016666Y-44726247D02*
X81016666Y-44345295D01*
X81016666Y-44345295D02*
X80969047Y-44250057D01*
X80969047Y-44250057D02*
X80921428Y-44202438D01*
X80921428Y-44202438D02*
X80826190Y-44154819D01*
X80826190Y-44154819D02*
X80635714Y-44154819D01*
X80635714Y-44154819D02*
X80540476Y-44202438D01*
X80540476Y-44202438D02*
X80492857Y-44250057D01*
X80492857Y-44250057D02*
X80445238Y-44345295D01*
X80445238Y-44345295D02*
X80445238Y-44583390D01*
X80445238Y-44583390D02*
X80492857Y-44678628D01*
X80492857Y-44678628D02*
X80540476Y-44726247D01*
X80540476Y-44726247D02*
X80635714Y-44773866D01*
X80635714Y-44773866D02*
X80826190Y-44773866D01*
X80826190Y-44773866D02*
X80921428Y-44726247D01*
X80921428Y-44726247D02*
X80969047Y-44678628D01*
X80969047Y-44678628D02*
X81016666Y-44583390D01*
X78666666Y-47954819D02*
X78666666Y-48669104D01*
X78666666Y-48669104D02*
X78619047Y-48811961D01*
X78619047Y-48811961D02*
X78523809Y-48907200D01*
X78523809Y-48907200D02*
X78380952Y-48954819D01*
X78380952Y-48954819D02*
X78285714Y-48954819D01*
X79142857Y-48954819D02*
X79142857Y-47954819D01*
X79142857Y-47954819D02*
X79523809Y-47954819D01*
X79523809Y-47954819D02*
X79619047Y-48002438D01*
X79619047Y-48002438D02*
X79666666Y-48050057D01*
X79666666Y-48050057D02*
X79714285Y-48145295D01*
X79714285Y-48145295D02*
X79714285Y-48288152D01*
X79714285Y-48288152D02*
X79666666Y-48383390D01*
X79666666Y-48383390D02*
X79619047Y-48431009D01*
X79619047Y-48431009D02*
X79523809Y-48478628D01*
X79523809Y-48478628D02*
X79142857Y-48478628D01*
X80619047Y-47954819D02*
X80142857Y-47954819D01*
X80142857Y-47954819D02*
X80095238Y-48431009D01*
X80095238Y-48431009D02*
X80142857Y-48383390D01*
X80142857Y-48383390D02*
X80238095Y-48335771D01*
X80238095Y-48335771D02*
X80476190Y-48335771D01*
X80476190Y-48335771D02*
X80571428Y-48383390D01*
X80571428Y-48383390D02*
X80619047Y-48431009D01*
X80619047Y-48431009D02*
X80666666Y-48526247D01*
X80666666Y-48526247D02*
X80666666Y-48764342D01*
X80666666Y-48764342D02*
X80619047Y-48859580D01*
X80619047Y-48859580D02*
X80571428Y-48907200D01*
X80571428Y-48907200D02*
X80476190Y-48954819D01*
X80476190Y-48954819D02*
X80238095Y-48954819D01*
X80238095Y-48954819D02*
X80142857Y-48907200D01*
X80142857Y-48907200D02*
X80095238Y-48859580D01*
X73254819Y-82809523D02*
X73969104Y-82809523D01*
X73969104Y-82809523D02*
X74111961Y-82857142D01*
X74111961Y-82857142D02*
X74207200Y-82952380D01*
X74207200Y-82952380D02*
X74254819Y-83095237D01*
X74254819Y-83095237D02*
X74254819Y-83190475D01*
X74254819Y-82333332D02*
X73254819Y-82333332D01*
X73254819Y-82333332D02*
X73254819Y-81952380D01*
X73254819Y-81952380D02*
X73302438Y-81857142D01*
X73302438Y-81857142D02*
X73350057Y-81809523D01*
X73350057Y-81809523D02*
X73445295Y-81761904D01*
X73445295Y-81761904D02*
X73588152Y-81761904D01*
X73588152Y-81761904D02*
X73683390Y-81809523D01*
X73683390Y-81809523D02*
X73731009Y-81857142D01*
X73731009Y-81857142D02*
X73778628Y-81952380D01*
X73778628Y-81952380D02*
X73778628Y-82333332D01*
X74254819Y-80809523D02*
X74254819Y-81380951D01*
X74254819Y-81095237D02*
X73254819Y-81095237D01*
X73254819Y-81095237D02*
X73397676Y-81190475D01*
X73397676Y-81190475D02*
X73492914Y-81285713D01*
X73492914Y-81285713D02*
X73540533Y-81380951D01*
X73254819Y-80476189D02*
X73254819Y-79809523D01*
X73254819Y-79809523D02*
X74254819Y-80238094D01*
X117738095Y-47006819D02*
X118309523Y-47006819D01*
X118023809Y-48006819D02*
X118023809Y-47006819D01*
X118642857Y-48006819D02*
X118642857Y-47006819D01*
X118642857Y-47006819D02*
X119023809Y-47006819D01*
X119023809Y-47006819D02*
X119119047Y-47054438D01*
X119119047Y-47054438D02*
X119166666Y-47102057D01*
X119166666Y-47102057D02*
X119214285Y-47197295D01*
X119214285Y-47197295D02*
X119214285Y-47340152D01*
X119214285Y-47340152D02*
X119166666Y-47435390D01*
X119166666Y-47435390D02*
X119119047Y-47483009D01*
X119119047Y-47483009D02*
X119023809Y-47530628D01*
X119023809Y-47530628D02*
X118642857Y-47530628D01*
X120166666Y-48006819D02*
X119595238Y-48006819D01*
X119880952Y-48006819D02*
X119880952Y-47006819D01*
X119880952Y-47006819D02*
X119785714Y-47149676D01*
X119785714Y-47149676D02*
X119690476Y-47244914D01*
X119690476Y-47244914D02*
X119595238Y-47292533D01*
X99333333Y-52954819D02*
X99000000Y-52478628D01*
X98761905Y-52954819D02*
X98761905Y-51954819D01*
X98761905Y-51954819D02*
X99142857Y-51954819D01*
X99142857Y-51954819D02*
X99238095Y-52002438D01*
X99238095Y-52002438D02*
X99285714Y-52050057D01*
X99285714Y-52050057D02*
X99333333Y-52145295D01*
X99333333Y-52145295D02*
X99333333Y-52288152D01*
X99333333Y-52288152D02*
X99285714Y-52383390D01*
X99285714Y-52383390D02*
X99238095Y-52431009D01*
X99238095Y-52431009D02*
X99142857Y-52478628D01*
X99142857Y-52478628D02*
X98761905Y-52478628D01*
X99666667Y-51954819D02*
X100285714Y-51954819D01*
X100285714Y-51954819D02*
X99952381Y-52335771D01*
X99952381Y-52335771D02*
X100095238Y-52335771D01*
X100095238Y-52335771D02*
X100190476Y-52383390D01*
X100190476Y-52383390D02*
X100238095Y-52431009D01*
X100238095Y-52431009D02*
X100285714Y-52526247D01*
X100285714Y-52526247D02*
X100285714Y-52764342D01*
X100285714Y-52764342D02*
X100238095Y-52859580D01*
X100238095Y-52859580D02*
X100190476Y-52907200D01*
X100190476Y-52907200D02*
X100095238Y-52954819D01*
X100095238Y-52954819D02*
X99809524Y-52954819D01*
X99809524Y-52954819D02*
X99714286Y-52907200D01*
X99714286Y-52907200D02*
X99666667Y-52859580D01*
X105261905Y-50954819D02*
X105261905Y-49954819D01*
X105261905Y-49954819D02*
X105500000Y-49954819D01*
X105500000Y-49954819D02*
X105642857Y-50002438D01*
X105642857Y-50002438D02*
X105738095Y-50097676D01*
X105738095Y-50097676D02*
X105785714Y-50192914D01*
X105785714Y-50192914D02*
X105833333Y-50383390D01*
X105833333Y-50383390D02*
X105833333Y-50526247D01*
X105833333Y-50526247D02*
X105785714Y-50716723D01*
X105785714Y-50716723D02*
X105738095Y-50811961D01*
X105738095Y-50811961D02*
X105642857Y-50907200D01*
X105642857Y-50907200D02*
X105500000Y-50954819D01*
X105500000Y-50954819D02*
X105261905Y-50954819D01*
X106690476Y-50288152D02*
X106690476Y-50954819D01*
X106452381Y-49907200D02*
X106214286Y-50621485D01*
X106214286Y-50621485D02*
X106833333Y-50621485D01*
X120904761Y-70550057D02*
X120809523Y-70502438D01*
X120809523Y-70502438D02*
X120714285Y-70407200D01*
X120714285Y-70407200D02*
X120571428Y-70264342D01*
X120571428Y-70264342D02*
X120476190Y-70216723D01*
X120476190Y-70216723D02*
X120380952Y-70216723D01*
X120428571Y-70454819D02*
X120333333Y-70407200D01*
X120333333Y-70407200D02*
X120238095Y-70311961D01*
X120238095Y-70311961D02*
X120190476Y-70121485D01*
X120190476Y-70121485D02*
X120190476Y-69788152D01*
X120190476Y-69788152D02*
X120238095Y-69597676D01*
X120238095Y-69597676D02*
X120333333Y-69502438D01*
X120333333Y-69502438D02*
X120428571Y-69454819D01*
X120428571Y-69454819D02*
X120619047Y-69454819D01*
X120619047Y-69454819D02*
X120714285Y-69502438D01*
X120714285Y-69502438D02*
X120809523Y-69597676D01*
X120809523Y-69597676D02*
X120857142Y-69788152D01*
X120857142Y-69788152D02*
X120857142Y-70121485D01*
X120857142Y-70121485D02*
X120809523Y-70311961D01*
X120809523Y-70311961D02*
X120714285Y-70407200D01*
X120714285Y-70407200D02*
X120619047Y-70454819D01*
X120619047Y-70454819D02*
X120428571Y-70454819D01*
X121809523Y-70454819D02*
X121238095Y-70454819D01*
X121523809Y-70454819D02*
X121523809Y-69454819D01*
X121523809Y-69454819D02*
X121428571Y-69597676D01*
X121428571Y-69597676D02*
X121333333Y-69692914D01*
X121333333Y-69692914D02*
X121238095Y-69740533D01*
X105166666Y-51954819D02*
X105166666Y-52669104D01*
X105166666Y-52669104D02*
X105119047Y-52811961D01*
X105119047Y-52811961D02*
X105023809Y-52907200D01*
X105023809Y-52907200D02*
X104880952Y-52954819D01*
X104880952Y-52954819D02*
X104785714Y-52954819D01*
X105642857Y-52954819D02*
X105642857Y-51954819D01*
X105642857Y-51954819D02*
X106023809Y-51954819D01*
X106023809Y-51954819D02*
X106119047Y-52002438D01*
X106119047Y-52002438D02*
X106166666Y-52050057D01*
X106166666Y-52050057D02*
X106214285Y-52145295D01*
X106214285Y-52145295D02*
X106214285Y-52288152D01*
X106214285Y-52288152D02*
X106166666Y-52383390D01*
X106166666Y-52383390D02*
X106119047Y-52431009D01*
X106119047Y-52431009D02*
X106023809Y-52478628D01*
X106023809Y-52478628D02*
X105642857Y-52478628D01*
X107071428Y-52288152D02*
X107071428Y-52954819D01*
X106833333Y-51907200D02*
X106595238Y-52621485D01*
X106595238Y-52621485D02*
X107214285Y-52621485D01*
X93884819Y-76642857D02*
X93408628Y-76976190D01*
X93884819Y-77214285D02*
X92884819Y-77214285D01*
X92884819Y-77214285D02*
X92884819Y-76833333D01*
X92884819Y-76833333D02*
X92932438Y-76738095D01*
X92932438Y-76738095D02*
X92980057Y-76690476D01*
X92980057Y-76690476D02*
X93075295Y-76642857D01*
X93075295Y-76642857D02*
X93218152Y-76642857D01*
X93218152Y-76642857D02*
X93313390Y-76690476D01*
X93313390Y-76690476D02*
X93361009Y-76738095D01*
X93361009Y-76738095D02*
X93408628Y-76833333D01*
X93408628Y-76833333D02*
X93408628Y-77214285D01*
X93884819Y-75690476D02*
X93884819Y-76261904D01*
X93884819Y-75976190D02*
X92884819Y-75976190D01*
X92884819Y-75976190D02*
X93027676Y-76071428D01*
X93027676Y-76071428D02*
X93122914Y-76166666D01*
X93122914Y-76166666D02*
X93170533Y-76261904D01*
X92884819Y-74785714D02*
X92884819Y-75261904D01*
X92884819Y-75261904D02*
X93361009Y-75309523D01*
X93361009Y-75309523D02*
X93313390Y-75261904D01*
X93313390Y-75261904D02*
X93265771Y-75166666D01*
X93265771Y-75166666D02*
X93265771Y-74928571D01*
X93265771Y-74928571D02*
X93313390Y-74833333D01*
X93313390Y-74833333D02*
X93361009Y-74785714D01*
X93361009Y-74785714D02*
X93456247Y-74738095D01*
X93456247Y-74738095D02*
X93694342Y-74738095D01*
X93694342Y-74738095D02*
X93789580Y-74785714D01*
X93789580Y-74785714D02*
X93837200Y-74833333D01*
X93837200Y-74833333D02*
X93884819Y-74928571D01*
X93884819Y-74928571D02*
X93884819Y-75166666D01*
X93884819Y-75166666D02*
X93837200Y-75261904D01*
X93837200Y-75261904D02*
X93789580Y-75309523D01*
X76580719Y-59243094D02*
X75580719Y-59243094D01*
X75580719Y-59243094D02*
X75580719Y-59004999D01*
X75580719Y-59004999D02*
X75628338Y-58862142D01*
X75628338Y-58862142D02*
X75723576Y-58766904D01*
X75723576Y-58766904D02*
X75818814Y-58719285D01*
X75818814Y-58719285D02*
X76009290Y-58671666D01*
X76009290Y-58671666D02*
X76152147Y-58671666D01*
X76152147Y-58671666D02*
X76342623Y-58719285D01*
X76342623Y-58719285D02*
X76437861Y-58766904D01*
X76437861Y-58766904D02*
X76533100Y-58862142D01*
X76533100Y-58862142D02*
X76580719Y-59004999D01*
X76580719Y-59004999D02*
X76580719Y-59243094D01*
X75580719Y-57814523D02*
X75580719Y-58004999D01*
X75580719Y-58004999D02*
X75628338Y-58100237D01*
X75628338Y-58100237D02*
X75675957Y-58147856D01*
X75675957Y-58147856D02*
X75818814Y-58243094D01*
X75818814Y-58243094D02*
X76009290Y-58290713D01*
X76009290Y-58290713D02*
X76390242Y-58290713D01*
X76390242Y-58290713D02*
X76485480Y-58243094D01*
X76485480Y-58243094D02*
X76533100Y-58195475D01*
X76533100Y-58195475D02*
X76580719Y-58100237D01*
X76580719Y-58100237D02*
X76580719Y-57909761D01*
X76580719Y-57909761D02*
X76533100Y-57814523D01*
X76533100Y-57814523D02*
X76485480Y-57766904D01*
X76485480Y-57766904D02*
X76390242Y-57719285D01*
X76390242Y-57719285D02*
X76152147Y-57719285D01*
X76152147Y-57719285D02*
X76056909Y-57766904D01*
X76056909Y-57766904D02*
X76009290Y-57814523D01*
X76009290Y-57814523D02*
X75961671Y-57909761D01*
X75961671Y-57909761D02*
X75961671Y-58100237D01*
X75961671Y-58100237D02*
X76009290Y-58195475D01*
X76009290Y-58195475D02*
X76056909Y-58243094D01*
X76056909Y-58243094D02*
X76152147Y-58290713D01*
X118024819Y-76166666D02*
X117548628Y-76499999D01*
X118024819Y-76738094D02*
X117024819Y-76738094D01*
X117024819Y-76738094D02*
X117024819Y-76357142D01*
X117024819Y-76357142D02*
X117072438Y-76261904D01*
X117072438Y-76261904D02*
X117120057Y-76214285D01*
X117120057Y-76214285D02*
X117215295Y-76166666D01*
X117215295Y-76166666D02*
X117358152Y-76166666D01*
X117358152Y-76166666D02*
X117453390Y-76214285D01*
X117453390Y-76214285D02*
X117501009Y-76261904D01*
X117501009Y-76261904D02*
X117548628Y-76357142D01*
X117548628Y-76357142D02*
X117548628Y-76738094D01*
X117024819Y-75833332D02*
X117024819Y-75166666D01*
X117024819Y-75166666D02*
X118024819Y-75595237D01*
X108404761Y-70050057D02*
X108309523Y-70002438D01*
X108309523Y-70002438D02*
X108214285Y-69907200D01*
X108214285Y-69907200D02*
X108071428Y-69764342D01*
X108071428Y-69764342D02*
X107976190Y-69716723D01*
X107976190Y-69716723D02*
X107880952Y-69716723D01*
X107928571Y-69954819D02*
X107833333Y-69907200D01*
X107833333Y-69907200D02*
X107738095Y-69811961D01*
X107738095Y-69811961D02*
X107690476Y-69621485D01*
X107690476Y-69621485D02*
X107690476Y-69288152D01*
X107690476Y-69288152D02*
X107738095Y-69097676D01*
X107738095Y-69097676D02*
X107833333Y-69002438D01*
X107833333Y-69002438D02*
X107928571Y-68954819D01*
X107928571Y-68954819D02*
X108119047Y-68954819D01*
X108119047Y-68954819D02*
X108214285Y-69002438D01*
X108214285Y-69002438D02*
X108309523Y-69097676D01*
X108309523Y-69097676D02*
X108357142Y-69288152D01*
X108357142Y-69288152D02*
X108357142Y-69621485D01*
X108357142Y-69621485D02*
X108309523Y-69811961D01*
X108309523Y-69811961D02*
X108214285Y-69907200D01*
X108214285Y-69907200D02*
X108119047Y-69954819D01*
X108119047Y-69954819D02*
X107928571Y-69954819D01*
X108690476Y-68954819D02*
X109357142Y-68954819D01*
X109357142Y-68954819D02*
X108928571Y-69954819D01*
X81384819Y-54666666D02*
X80908628Y-54999999D01*
X81384819Y-55238094D02*
X80384819Y-55238094D01*
X80384819Y-55238094D02*
X80384819Y-54857142D01*
X80384819Y-54857142D02*
X80432438Y-54761904D01*
X80432438Y-54761904D02*
X80480057Y-54714285D01*
X80480057Y-54714285D02*
X80575295Y-54666666D01*
X80575295Y-54666666D02*
X80718152Y-54666666D01*
X80718152Y-54666666D02*
X80813390Y-54714285D01*
X80813390Y-54714285D02*
X80861009Y-54761904D01*
X80861009Y-54761904D02*
X80908628Y-54857142D01*
X80908628Y-54857142D02*
X80908628Y-55238094D01*
X80384819Y-53761904D02*
X80384819Y-54238094D01*
X80384819Y-54238094D02*
X80861009Y-54285713D01*
X80861009Y-54285713D02*
X80813390Y-54238094D01*
X80813390Y-54238094D02*
X80765771Y-54142856D01*
X80765771Y-54142856D02*
X80765771Y-53904761D01*
X80765771Y-53904761D02*
X80813390Y-53809523D01*
X80813390Y-53809523D02*
X80861009Y-53761904D01*
X80861009Y-53761904D02*
X80956247Y-53714285D01*
X80956247Y-53714285D02*
X81194342Y-53714285D01*
X81194342Y-53714285D02*
X81289580Y-53761904D01*
X81289580Y-53761904D02*
X81337200Y-53809523D01*
X81337200Y-53809523D02*
X81384819Y-53904761D01*
X81384819Y-53904761D02*
X81384819Y-54142856D01*
X81384819Y-54142856D02*
X81337200Y-54238094D01*
X81337200Y-54238094D02*
X81289580Y-54285713D01*
X87761905Y-47006819D02*
X88333333Y-47006819D01*
X88047619Y-48006819D02*
X88047619Y-47006819D01*
X88666667Y-48006819D02*
X88666667Y-47006819D01*
X88666667Y-47006819D02*
X89047619Y-47006819D01*
X89047619Y-47006819D02*
X89142857Y-47054438D01*
X89142857Y-47054438D02*
X89190476Y-47102057D01*
X89190476Y-47102057D02*
X89238095Y-47197295D01*
X89238095Y-47197295D02*
X89238095Y-47340152D01*
X89238095Y-47340152D02*
X89190476Y-47435390D01*
X89190476Y-47435390D02*
X89142857Y-47483009D01*
X89142857Y-47483009D02*
X89047619Y-47530628D01*
X89047619Y-47530628D02*
X88666667Y-47530628D01*
X90190476Y-48006819D02*
X89619048Y-48006819D01*
X89904762Y-48006819D02*
X89904762Y-47006819D01*
X89904762Y-47006819D02*
X89809524Y-47149676D01*
X89809524Y-47149676D02*
X89714286Y-47244914D01*
X89714286Y-47244914D02*
X89619048Y-47292533D01*
X90809524Y-47006819D02*
X90904762Y-47006819D01*
X90904762Y-47006819D02*
X91000000Y-47054438D01*
X91000000Y-47054438D02*
X91047619Y-47102057D01*
X91047619Y-47102057D02*
X91095238Y-47197295D01*
X91095238Y-47197295D02*
X91142857Y-47387771D01*
X91142857Y-47387771D02*
X91142857Y-47625866D01*
X91142857Y-47625866D02*
X91095238Y-47816342D01*
X91095238Y-47816342D02*
X91047619Y-47911580D01*
X91047619Y-47911580D02*
X91000000Y-47959200D01*
X91000000Y-47959200D02*
X90904762Y-48006819D01*
X90904762Y-48006819D02*
X90809524Y-48006819D01*
X90809524Y-48006819D02*
X90714286Y-47959200D01*
X90714286Y-47959200D02*
X90666667Y-47911580D01*
X90666667Y-47911580D02*
X90619048Y-47816342D01*
X90619048Y-47816342D02*
X90571429Y-47625866D01*
X90571429Y-47625866D02*
X90571429Y-47387771D01*
X90571429Y-47387771D02*
X90619048Y-47197295D01*
X90619048Y-47197295D02*
X90666667Y-47102057D01*
X90666667Y-47102057D02*
X90714286Y-47054438D01*
X90714286Y-47054438D02*
X90809524Y-47006819D01*
X94904761Y-70050057D02*
X94809523Y-70002438D01*
X94809523Y-70002438D02*
X94714285Y-69907200D01*
X94714285Y-69907200D02*
X94571428Y-69764342D01*
X94571428Y-69764342D02*
X94476190Y-69716723D01*
X94476190Y-69716723D02*
X94380952Y-69716723D01*
X94428571Y-69954819D02*
X94333333Y-69907200D01*
X94333333Y-69907200D02*
X94238095Y-69811961D01*
X94238095Y-69811961D02*
X94190476Y-69621485D01*
X94190476Y-69621485D02*
X94190476Y-69288152D01*
X94190476Y-69288152D02*
X94238095Y-69097676D01*
X94238095Y-69097676D02*
X94333333Y-69002438D01*
X94333333Y-69002438D02*
X94428571Y-68954819D01*
X94428571Y-68954819D02*
X94619047Y-68954819D01*
X94619047Y-68954819D02*
X94714285Y-69002438D01*
X94714285Y-69002438D02*
X94809523Y-69097676D01*
X94809523Y-69097676D02*
X94857142Y-69288152D01*
X94857142Y-69288152D02*
X94857142Y-69621485D01*
X94857142Y-69621485D02*
X94809523Y-69811961D01*
X94809523Y-69811961D02*
X94714285Y-69907200D01*
X94714285Y-69907200D02*
X94619047Y-69954819D01*
X94619047Y-69954819D02*
X94428571Y-69954819D01*
X95238095Y-69050057D02*
X95285714Y-69002438D01*
X95285714Y-69002438D02*
X95380952Y-68954819D01*
X95380952Y-68954819D02*
X95619047Y-68954819D01*
X95619047Y-68954819D02*
X95714285Y-69002438D01*
X95714285Y-69002438D02*
X95761904Y-69050057D01*
X95761904Y-69050057D02*
X95809523Y-69145295D01*
X95809523Y-69145295D02*
X95809523Y-69240533D01*
X95809523Y-69240533D02*
X95761904Y-69383390D01*
X95761904Y-69383390D02*
X95190476Y-69954819D01*
X95190476Y-69954819D02*
X95809523Y-69954819D01*
X104524819Y-76642857D02*
X104048628Y-76976190D01*
X104524819Y-77214285D02*
X103524819Y-77214285D01*
X103524819Y-77214285D02*
X103524819Y-76833333D01*
X103524819Y-76833333D02*
X103572438Y-76738095D01*
X103572438Y-76738095D02*
X103620057Y-76690476D01*
X103620057Y-76690476D02*
X103715295Y-76642857D01*
X103715295Y-76642857D02*
X103858152Y-76642857D01*
X103858152Y-76642857D02*
X103953390Y-76690476D01*
X103953390Y-76690476D02*
X104001009Y-76738095D01*
X104001009Y-76738095D02*
X104048628Y-76833333D01*
X104048628Y-76833333D02*
X104048628Y-77214285D01*
X104524819Y-75690476D02*
X104524819Y-76261904D01*
X104524819Y-75976190D02*
X103524819Y-75976190D01*
X103524819Y-75976190D02*
X103667676Y-76071428D01*
X103667676Y-76071428D02*
X103762914Y-76166666D01*
X103762914Y-76166666D02*
X103810533Y-76261904D01*
X103858152Y-74833333D02*
X104524819Y-74833333D01*
X103477200Y-75071428D02*
X104191485Y-75309523D01*
X104191485Y-75309523D02*
X104191485Y-74690476D01*
X86024819Y-76967857D02*
X85548628Y-77301190D01*
X86024819Y-77539285D02*
X85024819Y-77539285D01*
X85024819Y-77539285D02*
X85024819Y-77158333D01*
X85024819Y-77158333D02*
X85072438Y-77063095D01*
X85072438Y-77063095D02*
X85120057Y-77015476D01*
X85120057Y-77015476D02*
X85215295Y-76967857D01*
X85215295Y-76967857D02*
X85358152Y-76967857D01*
X85358152Y-76967857D02*
X85453390Y-77015476D01*
X85453390Y-77015476D02*
X85501009Y-77063095D01*
X85501009Y-77063095D02*
X85548628Y-77158333D01*
X85548628Y-77158333D02*
X85548628Y-77539285D01*
X86024819Y-76015476D02*
X86024819Y-76586904D01*
X86024819Y-76301190D02*
X85024819Y-76301190D01*
X85024819Y-76301190D02*
X85167676Y-76396428D01*
X85167676Y-76396428D02*
X85262914Y-76491666D01*
X85262914Y-76491666D02*
X85310533Y-76586904D01*
X85024819Y-75158333D02*
X85024819Y-75348809D01*
X85024819Y-75348809D02*
X85072438Y-75444047D01*
X85072438Y-75444047D02*
X85120057Y-75491666D01*
X85120057Y-75491666D02*
X85262914Y-75586904D01*
X85262914Y-75586904D02*
X85453390Y-75634523D01*
X85453390Y-75634523D02*
X85834342Y-75634523D01*
X85834342Y-75634523D02*
X85929580Y-75586904D01*
X85929580Y-75586904D02*
X85977200Y-75539285D01*
X85977200Y-75539285D02*
X86024819Y-75444047D01*
X86024819Y-75444047D02*
X86024819Y-75253571D01*
X86024819Y-75253571D02*
X85977200Y-75158333D01*
X85977200Y-75158333D02*
X85929580Y-75110714D01*
X85929580Y-75110714D02*
X85834342Y-75063095D01*
X85834342Y-75063095D02*
X85596247Y-75063095D01*
X85596247Y-75063095D02*
X85501009Y-75110714D01*
X85501009Y-75110714D02*
X85453390Y-75158333D01*
X85453390Y-75158333D02*
X85405771Y-75253571D01*
X85405771Y-75253571D02*
X85405771Y-75444047D01*
X85405771Y-75444047D02*
X85453390Y-75539285D01*
X85453390Y-75539285D02*
X85501009Y-75586904D01*
X85501009Y-75586904D02*
X85596247Y-75634523D01*
X93738095Y-66454819D02*
X94309523Y-66454819D01*
X94023809Y-67454819D02*
X94023809Y-66454819D01*
X94642857Y-67454819D02*
X94642857Y-66454819D01*
X94642857Y-66454819D02*
X95023809Y-66454819D01*
X95023809Y-66454819D02*
X95119047Y-66502438D01*
X95119047Y-66502438D02*
X95166666Y-66550057D01*
X95166666Y-66550057D02*
X95214285Y-66645295D01*
X95214285Y-66645295D02*
X95214285Y-66788152D01*
X95214285Y-66788152D02*
X95166666Y-66883390D01*
X95166666Y-66883390D02*
X95119047Y-66931009D01*
X95119047Y-66931009D02*
X95023809Y-66978628D01*
X95023809Y-66978628D02*
X94642857Y-66978628D01*
X95785714Y-66883390D02*
X95690476Y-66835771D01*
X95690476Y-66835771D02*
X95642857Y-66788152D01*
X95642857Y-66788152D02*
X95595238Y-66692914D01*
X95595238Y-66692914D02*
X95595238Y-66645295D01*
X95595238Y-66645295D02*
X95642857Y-66550057D01*
X95642857Y-66550057D02*
X95690476Y-66502438D01*
X95690476Y-66502438D02*
X95785714Y-66454819D01*
X95785714Y-66454819D02*
X95976190Y-66454819D01*
X95976190Y-66454819D02*
X96071428Y-66502438D01*
X96071428Y-66502438D02*
X96119047Y-66550057D01*
X96119047Y-66550057D02*
X96166666Y-66645295D01*
X96166666Y-66645295D02*
X96166666Y-66692914D01*
X96166666Y-66692914D02*
X96119047Y-66788152D01*
X96119047Y-66788152D02*
X96071428Y-66835771D01*
X96071428Y-66835771D02*
X95976190Y-66883390D01*
X95976190Y-66883390D02*
X95785714Y-66883390D01*
X95785714Y-66883390D02*
X95690476Y-66931009D01*
X95690476Y-66931009D02*
X95642857Y-66978628D01*
X95642857Y-66978628D02*
X95595238Y-67073866D01*
X95595238Y-67073866D02*
X95595238Y-67264342D01*
X95595238Y-67264342D02*
X95642857Y-67359580D01*
X95642857Y-67359580D02*
X95690476Y-67407200D01*
X95690476Y-67407200D02*
X95785714Y-67454819D01*
X95785714Y-67454819D02*
X95976190Y-67454819D01*
X95976190Y-67454819D02*
X96071428Y-67407200D01*
X96071428Y-67407200D02*
X96119047Y-67359580D01*
X96119047Y-67359580D02*
X96166666Y-67264342D01*
X96166666Y-67264342D02*
X96166666Y-67073866D01*
X96166666Y-67073866D02*
X96119047Y-66978628D01*
X96119047Y-66978628D02*
X96071428Y-66931009D01*
X96071428Y-66931009D02*
X95976190Y-66883390D01*
X121198166Y-47653619D02*
X121198166Y-48367904D01*
X121198166Y-48367904D02*
X121150547Y-48510761D01*
X121150547Y-48510761D02*
X121055309Y-48606000D01*
X121055309Y-48606000D02*
X120912452Y-48653619D01*
X120912452Y-48653619D02*
X120817214Y-48653619D01*
X121674357Y-48653619D02*
X121674357Y-47653619D01*
X121674357Y-47653619D02*
X122055309Y-47653619D01*
X122055309Y-47653619D02*
X122150547Y-47701238D01*
X122150547Y-47701238D02*
X122198166Y-47748857D01*
X122198166Y-47748857D02*
X122245785Y-47844095D01*
X122245785Y-47844095D02*
X122245785Y-47986952D01*
X122245785Y-47986952D02*
X122198166Y-48082190D01*
X122198166Y-48082190D02*
X122150547Y-48129809D01*
X122150547Y-48129809D02*
X122055309Y-48177428D01*
X122055309Y-48177428D02*
X121674357Y-48177428D01*
X122626738Y-47748857D02*
X122674357Y-47701238D01*
X122674357Y-47701238D02*
X122769595Y-47653619D01*
X122769595Y-47653619D02*
X123007690Y-47653619D01*
X123007690Y-47653619D02*
X123102928Y-47701238D01*
X123102928Y-47701238D02*
X123150547Y-47748857D01*
X123150547Y-47748857D02*
X123198166Y-47844095D01*
X123198166Y-47844095D02*
X123198166Y-47939333D01*
X123198166Y-47939333D02*
X123150547Y-48082190D01*
X123150547Y-48082190D02*
X122579119Y-48653619D01*
X122579119Y-48653619D02*
X123198166Y-48653619D01*
X112024819Y-76166666D02*
X111548628Y-76499999D01*
X112024819Y-76738094D02*
X111024819Y-76738094D01*
X111024819Y-76738094D02*
X111024819Y-76357142D01*
X111024819Y-76357142D02*
X111072438Y-76261904D01*
X111072438Y-76261904D02*
X111120057Y-76214285D01*
X111120057Y-76214285D02*
X111215295Y-76166666D01*
X111215295Y-76166666D02*
X111358152Y-76166666D01*
X111358152Y-76166666D02*
X111453390Y-76214285D01*
X111453390Y-76214285D02*
X111501009Y-76261904D01*
X111501009Y-76261904D02*
X111548628Y-76357142D01*
X111548628Y-76357142D02*
X111548628Y-76738094D01*
X112024819Y-75690475D02*
X112024819Y-75499999D01*
X112024819Y-75499999D02*
X111977200Y-75404761D01*
X111977200Y-75404761D02*
X111929580Y-75357142D01*
X111929580Y-75357142D02*
X111786723Y-75261904D01*
X111786723Y-75261904D02*
X111596247Y-75214285D01*
X111596247Y-75214285D02*
X111215295Y-75214285D01*
X111215295Y-75214285D02*
X111120057Y-75261904D01*
X111120057Y-75261904D02*
X111072438Y-75309523D01*
X111072438Y-75309523D02*
X111024819Y-75404761D01*
X111024819Y-75404761D02*
X111024819Y-75595237D01*
X111024819Y-75595237D02*
X111072438Y-75690475D01*
X111072438Y-75690475D02*
X111120057Y-75738094D01*
X111120057Y-75738094D02*
X111215295Y-75785713D01*
X111215295Y-75785713D02*
X111453390Y-75785713D01*
X111453390Y-75785713D02*
X111548628Y-75738094D01*
X111548628Y-75738094D02*
X111596247Y-75690475D01*
X111596247Y-75690475D02*
X111643866Y-75595237D01*
X111643866Y-75595237D02*
X111643866Y-75404761D01*
X111643866Y-75404761D02*
X111596247Y-75309523D01*
X111596247Y-75309523D02*
X111548628Y-75261904D01*
X111548628Y-75261904D02*
X111453390Y-75214285D01*
X92333333Y-68454819D02*
X92000000Y-67978628D01*
X91761905Y-68454819D02*
X91761905Y-67454819D01*
X91761905Y-67454819D02*
X92142857Y-67454819D01*
X92142857Y-67454819D02*
X92238095Y-67502438D01*
X92238095Y-67502438D02*
X92285714Y-67550057D01*
X92285714Y-67550057D02*
X92333333Y-67645295D01*
X92333333Y-67645295D02*
X92333333Y-67788152D01*
X92333333Y-67788152D02*
X92285714Y-67883390D01*
X92285714Y-67883390D02*
X92238095Y-67931009D01*
X92238095Y-67931009D02*
X92142857Y-67978628D01*
X92142857Y-67978628D02*
X91761905Y-67978628D01*
X93190476Y-67454819D02*
X93000000Y-67454819D01*
X93000000Y-67454819D02*
X92904762Y-67502438D01*
X92904762Y-67502438D02*
X92857143Y-67550057D01*
X92857143Y-67550057D02*
X92761905Y-67692914D01*
X92761905Y-67692914D02*
X92714286Y-67883390D01*
X92714286Y-67883390D02*
X92714286Y-68264342D01*
X92714286Y-68264342D02*
X92761905Y-68359580D01*
X92761905Y-68359580D02*
X92809524Y-68407200D01*
X92809524Y-68407200D02*
X92904762Y-68454819D01*
X92904762Y-68454819D02*
X93095238Y-68454819D01*
X93095238Y-68454819D02*
X93190476Y-68407200D01*
X93190476Y-68407200D02*
X93238095Y-68359580D01*
X93238095Y-68359580D02*
X93285714Y-68264342D01*
X93285714Y-68264342D02*
X93285714Y-68026247D01*
X93285714Y-68026247D02*
X93238095Y-67931009D01*
X93238095Y-67931009D02*
X93190476Y-67883390D01*
X93190476Y-67883390D02*
X93095238Y-67835771D01*
X93095238Y-67835771D02*
X92904762Y-67835771D01*
X92904762Y-67835771D02*
X92809524Y-67883390D01*
X92809524Y-67883390D02*
X92761905Y-67931009D01*
X92761905Y-67931009D02*
X92714286Y-68026247D01*
X126419819Y-59193094D02*
X125419819Y-59193094D01*
X125419819Y-59193094D02*
X125419819Y-58954999D01*
X125419819Y-58954999D02*
X125467438Y-58812142D01*
X125467438Y-58812142D02*
X125562676Y-58716904D01*
X125562676Y-58716904D02*
X125657914Y-58669285D01*
X125657914Y-58669285D02*
X125848390Y-58621666D01*
X125848390Y-58621666D02*
X125991247Y-58621666D01*
X125991247Y-58621666D02*
X126181723Y-58669285D01*
X126181723Y-58669285D02*
X126276961Y-58716904D01*
X126276961Y-58716904D02*
X126372200Y-58812142D01*
X126372200Y-58812142D02*
X126419819Y-58954999D01*
X126419819Y-58954999D02*
X126419819Y-59193094D01*
X125515057Y-58240713D02*
X125467438Y-58193094D01*
X125467438Y-58193094D02*
X125419819Y-58097856D01*
X125419819Y-58097856D02*
X125419819Y-57859761D01*
X125419819Y-57859761D02*
X125467438Y-57764523D01*
X125467438Y-57764523D02*
X125515057Y-57716904D01*
X125515057Y-57716904D02*
X125610295Y-57669285D01*
X125610295Y-57669285D02*
X125705533Y-57669285D01*
X125705533Y-57669285D02*
X125848390Y-57716904D01*
X125848390Y-57716904D02*
X126419819Y-58288332D01*
X126419819Y-58288332D02*
X126419819Y-57669285D01*
X128129761Y-68100057D02*
X128034523Y-68052438D01*
X128034523Y-68052438D02*
X127939285Y-67957200D01*
X127939285Y-67957200D02*
X127796428Y-67814342D01*
X127796428Y-67814342D02*
X127701190Y-67766723D01*
X127701190Y-67766723D02*
X127605952Y-67766723D01*
X127653571Y-68004819D02*
X127558333Y-67957200D01*
X127558333Y-67957200D02*
X127463095Y-67861961D01*
X127463095Y-67861961D02*
X127415476Y-67671485D01*
X127415476Y-67671485D02*
X127415476Y-67338152D01*
X127415476Y-67338152D02*
X127463095Y-67147676D01*
X127463095Y-67147676D02*
X127558333Y-67052438D01*
X127558333Y-67052438D02*
X127653571Y-67004819D01*
X127653571Y-67004819D02*
X127844047Y-67004819D01*
X127844047Y-67004819D02*
X127939285Y-67052438D01*
X127939285Y-67052438D02*
X128034523Y-67147676D01*
X128034523Y-67147676D02*
X128082142Y-67338152D01*
X128082142Y-67338152D02*
X128082142Y-67671485D01*
X128082142Y-67671485D02*
X128034523Y-67861961D01*
X128034523Y-67861961D02*
X127939285Y-67957200D01*
X127939285Y-67957200D02*
X127844047Y-68004819D01*
X127844047Y-68004819D02*
X127653571Y-68004819D01*
X128939285Y-67004819D02*
X128748809Y-67004819D01*
X128748809Y-67004819D02*
X128653571Y-67052438D01*
X128653571Y-67052438D02*
X128605952Y-67100057D01*
X128605952Y-67100057D02*
X128510714Y-67242914D01*
X128510714Y-67242914D02*
X128463095Y-67433390D01*
X128463095Y-67433390D02*
X128463095Y-67814342D01*
X128463095Y-67814342D02*
X128510714Y-67909580D01*
X128510714Y-67909580D02*
X128558333Y-67957200D01*
X128558333Y-67957200D02*
X128653571Y-68004819D01*
X128653571Y-68004819D02*
X128844047Y-68004819D01*
X128844047Y-68004819D02*
X128939285Y-67957200D01*
X128939285Y-67957200D02*
X128986904Y-67909580D01*
X128986904Y-67909580D02*
X129034523Y-67814342D01*
X129034523Y-67814342D02*
X129034523Y-67576247D01*
X129034523Y-67576247D02*
X128986904Y-67481009D01*
X128986904Y-67481009D02*
X128939285Y-67433390D01*
X128939285Y-67433390D02*
X128844047Y-67385771D01*
X128844047Y-67385771D02*
X128653571Y-67385771D01*
X128653571Y-67385771D02*
X128558333Y-67433390D01*
X128558333Y-67433390D02*
X128510714Y-67481009D01*
X128510714Y-67481009D02*
X128463095Y-67576247D01*
X115238095Y-66954819D02*
X115809523Y-66954819D01*
X115523809Y-67954819D02*
X115523809Y-66954819D01*
X116142857Y-67954819D02*
X116142857Y-66954819D01*
X116142857Y-66954819D02*
X116523809Y-66954819D01*
X116523809Y-66954819D02*
X116619047Y-67002438D01*
X116619047Y-67002438D02*
X116666666Y-67050057D01*
X116666666Y-67050057D02*
X116714285Y-67145295D01*
X116714285Y-67145295D02*
X116714285Y-67288152D01*
X116714285Y-67288152D02*
X116666666Y-67383390D01*
X116666666Y-67383390D02*
X116619047Y-67431009D01*
X116619047Y-67431009D02*
X116523809Y-67478628D01*
X116523809Y-67478628D02*
X116142857Y-67478628D01*
X117047619Y-66954819D02*
X117714285Y-66954819D01*
X117714285Y-66954819D02*
X117285714Y-67954819D01*
X98524819Y-76642857D02*
X98048628Y-76976190D01*
X98524819Y-77214285D02*
X97524819Y-77214285D01*
X97524819Y-77214285D02*
X97524819Y-76833333D01*
X97524819Y-76833333D02*
X97572438Y-76738095D01*
X97572438Y-76738095D02*
X97620057Y-76690476D01*
X97620057Y-76690476D02*
X97715295Y-76642857D01*
X97715295Y-76642857D02*
X97858152Y-76642857D01*
X97858152Y-76642857D02*
X97953390Y-76690476D01*
X97953390Y-76690476D02*
X98001009Y-76738095D01*
X98001009Y-76738095D02*
X98048628Y-76833333D01*
X98048628Y-76833333D02*
X98048628Y-77214285D01*
X98524819Y-75690476D02*
X98524819Y-76261904D01*
X98524819Y-75976190D02*
X97524819Y-75976190D01*
X97524819Y-75976190D02*
X97667676Y-76071428D01*
X97667676Y-76071428D02*
X97762914Y-76166666D01*
X97762914Y-76166666D02*
X97810533Y-76261904D01*
X97524819Y-75357142D02*
X97524819Y-74738095D01*
X97524819Y-74738095D02*
X97905771Y-75071428D01*
X97905771Y-75071428D02*
X97905771Y-74928571D01*
X97905771Y-74928571D02*
X97953390Y-74833333D01*
X97953390Y-74833333D02*
X98001009Y-74785714D01*
X98001009Y-74785714D02*
X98096247Y-74738095D01*
X98096247Y-74738095D02*
X98334342Y-74738095D01*
X98334342Y-74738095D02*
X98429580Y-74785714D01*
X98429580Y-74785714D02*
X98477200Y-74833333D01*
X98477200Y-74833333D02*
X98524819Y-74928571D01*
X98524819Y-74928571D02*
X98524819Y-75214285D01*
X98524819Y-75214285D02*
X98477200Y-75309523D01*
X98477200Y-75309523D02*
X98429580Y-75357142D01*
X101524819Y-76642857D02*
X101048628Y-76976190D01*
X101524819Y-77214285D02*
X100524819Y-77214285D01*
X100524819Y-77214285D02*
X100524819Y-76833333D01*
X100524819Y-76833333D02*
X100572438Y-76738095D01*
X100572438Y-76738095D02*
X100620057Y-76690476D01*
X100620057Y-76690476D02*
X100715295Y-76642857D01*
X100715295Y-76642857D02*
X100858152Y-76642857D01*
X100858152Y-76642857D02*
X100953390Y-76690476D01*
X100953390Y-76690476D02*
X101001009Y-76738095D01*
X101001009Y-76738095D02*
X101048628Y-76833333D01*
X101048628Y-76833333D02*
X101048628Y-77214285D01*
X101524819Y-75690476D02*
X101524819Y-76261904D01*
X101524819Y-75976190D02*
X100524819Y-75976190D01*
X100524819Y-75976190D02*
X100667676Y-76071428D01*
X100667676Y-76071428D02*
X100762914Y-76166666D01*
X100762914Y-76166666D02*
X100810533Y-76261904D01*
X100620057Y-75309523D02*
X100572438Y-75261904D01*
X100572438Y-75261904D02*
X100524819Y-75166666D01*
X100524819Y-75166666D02*
X100524819Y-74928571D01*
X100524819Y-74928571D02*
X100572438Y-74833333D01*
X100572438Y-74833333D02*
X100620057Y-74785714D01*
X100620057Y-74785714D02*
X100715295Y-74738095D01*
X100715295Y-74738095D02*
X100810533Y-74738095D01*
X100810533Y-74738095D02*
X100953390Y-74785714D01*
X100953390Y-74785714D02*
X101524819Y-75357142D01*
X101524819Y-75357142D02*
X101524819Y-74738095D01*
X83024819Y-76817857D02*
X82548628Y-77151190D01*
X83024819Y-77389285D02*
X82024819Y-77389285D01*
X82024819Y-77389285D02*
X82024819Y-77008333D01*
X82024819Y-77008333D02*
X82072438Y-76913095D01*
X82072438Y-76913095D02*
X82120057Y-76865476D01*
X82120057Y-76865476D02*
X82215295Y-76817857D01*
X82215295Y-76817857D02*
X82358152Y-76817857D01*
X82358152Y-76817857D02*
X82453390Y-76865476D01*
X82453390Y-76865476D02*
X82501009Y-76913095D01*
X82501009Y-76913095D02*
X82548628Y-77008333D01*
X82548628Y-77008333D02*
X82548628Y-77389285D01*
X83024819Y-75865476D02*
X83024819Y-76436904D01*
X83024819Y-76151190D02*
X82024819Y-76151190D01*
X82024819Y-76151190D02*
X82167676Y-76246428D01*
X82167676Y-76246428D02*
X82262914Y-76341666D01*
X82262914Y-76341666D02*
X82310533Y-76436904D01*
X82453390Y-75294047D02*
X82405771Y-75389285D01*
X82405771Y-75389285D02*
X82358152Y-75436904D01*
X82358152Y-75436904D02*
X82262914Y-75484523D01*
X82262914Y-75484523D02*
X82215295Y-75484523D01*
X82215295Y-75484523D02*
X82120057Y-75436904D01*
X82120057Y-75436904D02*
X82072438Y-75389285D01*
X82072438Y-75389285D02*
X82024819Y-75294047D01*
X82024819Y-75294047D02*
X82024819Y-75103571D01*
X82024819Y-75103571D02*
X82072438Y-75008333D01*
X82072438Y-75008333D02*
X82120057Y-74960714D01*
X82120057Y-74960714D02*
X82215295Y-74913095D01*
X82215295Y-74913095D02*
X82262914Y-74913095D01*
X82262914Y-74913095D02*
X82358152Y-74960714D01*
X82358152Y-74960714D02*
X82405771Y-75008333D01*
X82405771Y-75008333D02*
X82453390Y-75103571D01*
X82453390Y-75103571D02*
X82453390Y-75294047D01*
X82453390Y-75294047D02*
X82501009Y-75389285D01*
X82501009Y-75389285D02*
X82548628Y-75436904D01*
X82548628Y-75436904D02*
X82643866Y-75484523D01*
X82643866Y-75484523D02*
X82834342Y-75484523D01*
X82834342Y-75484523D02*
X82929580Y-75436904D01*
X82929580Y-75436904D02*
X82977200Y-75389285D01*
X82977200Y-75389285D02*
X83024819Y-75294047D01*
X83024819Y-75294047D02*
X83024819Y-75103571D01*
X83024819Y-75103571D02*
X82977200Y-75008333D01*
X82977200Y-75008333D02*
X82929580Y-74960714D01*
X82929580Y-74960714D02*
X82834342Y-74913095D01*
X82834342Y-74913095D02*
X82643866Y-74913095D01*
X82643866Y-74913095D02*
X82548628Y-74960714D01*
X82548628Y-74960714D02*
X82501009Y-75008333D01*
X82501009Y-75008333D02*
X82453390Y-75103571D01*
X124494819Y-51968094D02*
X123494819Y-51968094D01*
X123494819Y-51968094D02*
X123494819Y-51729999D01*
X123494819Y-51729999D02*
X123542438Y-51587142D01*
X123542438Y-51587142D02*
X123637676Y-51491904D01*
X123637676Y-51491904D02*
X123732914Y-51444285D01*
X123732914Y-51444285D02*
X123923390Y-51396666D01*
X123923390Y-51396666D02*
X124066247Y-51396666D01*
X124066247Y-51396666D02*
X124256723Y-51444285D01*
X124256723Y-51444285D02*
X124351961Y-51491904D01*
X124351961Y-51491904D02*
X124447200Y-51587142D01*
X124447200Y-51587142D02*
X124494819Y-51729999D01*
X124494819Y-51729999D02*
X124494819Y-51968094D01*
X124494819Y-50444285D02*
X124494819Y-51015713D01*
X124494819Y-50729999D02*
X123494819Y-50729999D01*
X123494819Y-50729999D02*
X123637676Y-50825237D01*
X123637676Y-50825237D02*
X123732914Y-50920475D01*
X123732914Y-50920475D02*
X123780533Y-51015713D01*
X75261906Y-48454818D02*
X75261906Y-47454818D01*
X75261906Y-47454818D02*
X75500001Y-47454818D01*
X75500001Y-47454818D02*
X75642858Y-47502437D01*
X75642858Y-47502437D02*
X75738096Y-47597675D01*
X75738096Y-47597675D02*
X75785715Y-47692913D01*
X75785715Y-47692913D02*
X75833334Y-47883389D01*
X75833334Y-47883389D02*
X75833334Y-48026246D01*
X75833334Y-48026246D02*
X75785715Y-48216722D01*
X75785715Y-48216722D02*
X75738096Y-48311960D01*
X75738096Y-48311960D02*
X75642858Y-48407199D01*
X75642858Y-48407199D02*
X75500001Y-48454818D01*
X75500001Y-48454818D02*
X75261906Y-48454818D01*
X76738096Y-47454818D02*
X76261906Y-47454818D01*
X76261906Y-47454818D02*
X76214287Y-47931008D01*
X76214287Y-47931008D02*
X76261906Y-47883389D01*
X76261906Y-47883389D02*
X76357144Y-47835770D01*
X76357144Y-47835770D02*
X76595239Y-47835770D01*
X76595239Y-47835770D02*
X76690477Y-47883389D01*
X76690477Y-47883389D02*
X76738096Y-47931008D01*
X76738096Y-47931008D02*
X76785715Y-48026246D01*
X76785715Y-48026246D02*
X76785715Y-48264341D01*
X76785715Y-48264341D02*
X76738096Y-48359579D01*
X76738096Y-48359579D02*
X76690477Y-48407199D01*
X76690477Y-48407199D02*
X76595239Y-48454818D01*
X76595239Y-48454818D02*
X76357144Y-48454818D01*
X76357144Y-48454818D02*
X76261906Y-48407199D01*
X76261906Y-48407199D02*
X76214287Y-48359579D01*
X88540476Y-51654819D02*
X88540476Y-52369104D01*
X88540476Y-52369104D02*
X88492857Y-52511961D01*
X88492857Y-52511961D02*
X88397619Y-52607200D01*
X88397619Y-52607200D02*
X88254762Y-52654819D01*
X88254762Y-52654819D02*
X88159524Y-52654819D01*
X89016667Y-52654819D02*
X89016667Y-51654819D01*
X89016667Y-51654819D02*
X89397619Y-51654819D01*
X89397619Y-51654819D02*
X89492857Y-51702438D01*
X89492857Y-51702438D02*
X89540476Y-51750057D01*
X89540476Y-51750057D02*
X89588095Y-51845295D01*
X89588095Y-51845295D02*
X89588095Y-51988152D01*
X89588095Y-51988152D02*
X89540476Y-52083390D01*
X89540476Y-52083390D02*
X89492857Y-52131009D01*
X89492857Y-52131009D02*
X89397619Y-52178628D01*
X89397619Y-52178628D02*
X89016667Y-52178628D01*
X90540476Y-52654819D02*
X89969048Y-52654819D01*
X90254762Y-52654819D02*
X90254762Y-51654819D01*
X90254762Y-51654819D02*
X90159524Y-51797676D01*
X90159524Y-51797676D02*
X90064286Y-51892914D01*
X90064286Y-51892914D02*
X89969048Y-51940533D01*
X90921429Y-51750057D02*
X90969048Y-51702438D01*
X90969048Y-51702438D02*
X91064286Y-51654819D01*
X91064286Y-51654819D02*
X91302381Y-51654819D01*
X91302381Y-51654819D02*
X91397619Y-51702438D01*
X91397619Y-51702438D02*
X91445238Y-51750057D01*
X91445238Y-51750057D02*
X91492857Y-51845295D01*
X91492857Y-51845295D02*
X91492857Y-51940533D01*
X91492857Y-51940533D02*
X91445238Y-52083390D01*
X91445238Y-52083390D02*
X90873810Y-52654819D01*
X90873810Y-52654819D02*
X91492857Y-52654819D01*
X79190477Y-78954818D02*
X79190477Y-79669103D01*
X79190477Y-79669103D02*
X79142858Y-79811960D01*
X79142858Y-79811960D02*
X79047620Y-79907199D01*
X79047620Y-79907199D02*
X78904763Y-79954818D01*
X78904763Y-79954818D02*
X78809525Y-79954818D01*
X79666668Y-79954818D02*
X79666668Y-78954818D01*
X79666668Y-78954818D02*
X80047620Y-78954818D01*
X80047620Y-78954818D02*
X80142858Y-79002437D01*
X80142858Y-79002437D02*
X80190477Y-79050056D01*
X80190477Y-79050056D02*
X80238096Y-79145294D01*
X80238096Y-79145294D02*
X80238096Y-79288151D01*
X80238096Y-79288151D02*
X80190477Y-79383389D01*
X80190477Y-79383389D02*
X80142858Y-79431008D01*
X80142858Y-79431008D02*
X80047620Y-79478627D01*
X80047620Y-79478627D02*
X79666668Y-79478627D01*
X81190477Y-79954818D02*
X80619049Y-79954818D01*
X80904763Y-79954818D02*
X80904763Y-78954818D01*
X80904763Y-78954818D02*
X80809525Y-79097675D01*
X80809525Y-79097675D02*
X80714287Y-79192913D01*
X80714287Y-79192913D02*
X80619049Y-79240532D01*
X82142858Y-79954818D02*
X81571430Y-79954818D01*
X81857144Y-79954818D02*
X81857144Y-78954818D01*
X81857144Y-78954818D02*
X81761906Y-79097675D01*
X81761906Y-79097675D02*
X81666668Y-79192913D01*
X81666668Y-79192913D02*
X81571430Y-79240532D01*
X103454819Y-52333333D02*
X104169104Y-52333333D01*
X104169104Y-52333333D02*
X104311961Y-52380952D01*
X104311961Y-52380952D02*
X104407200Y-52476190D01*
X104407200Y-52476190D02*
X104454819Y-52619047D01*
X104454819Y-52619047D02*
X104454819Y-52714285D01*
X104454819Y-51857142D02*
X103454819Y-51857142D01*
X103454819Y-51857142D02*
X103454819Y-51476190D01*
X103454819Y-51476190D02*
X103502438Y-51380952D01*
X103502438Y-51380952D02*
X103550057Y-51333333D01*
X103550057Y-51333333D02*
X103645295Y-51285714D01*
X103645295Y-51285714D02*
X103788152Y-51285714D01*
X103788152Y-51285714D02*
X103883390Y-51333333D01*
X103883390Y-51333333D02*
X103931009Y-51380952D01*
X103931009Y-51380952D02*
X103978628Y-51476190D01*
X103978628Y-51476190D02*
X103978628Y-51857142D01*
X103883390Y-50714285D02*
X103835771Y-50809523D01*
X103835771Y-50809523D02*
X103788152Y-50857142D01*
X103788152Y-50857142D02*
X103692914Y-50904761D01*
X103692914Y-50904761D02*
X103645295Y-50904761D01*
X103645295Y-50904761D02*
X103550057Y-50857142D01*
X103550057Y-50857142D02*
X103502438Y-50809523D01*
X103502438Y-50809523D02*
X103454819Y-50714285D01*
X103454819Y-50714285D02*
X103454819Y-50523809D01*
X103454819Y-50523809D02*
X103502438Y-50428571D01*
X103502438Y-50428571D02*
X103550057Y-50380952D01*
X103550057Y-50380952D02*
X103645295Y-50333333D01*
X103645295Y-50333333D02*
X103692914Y-50333333D01*
X103692914Y-50333333D02*
X103788152Y-50380952D01*
X103788152Y-50380952D02*
X103835771Y-50428571D01*
X103835771Y-50428571D02*
X103883390Y-50523809D01*
X103883390Y-50523809D02*
X103883390Y-50714285D01*
X103883390Y-50714285D02*
X103931009Y-50809523D01*
X103931009Y-50809523D02*
X103978628Y-50857142D01*
X103978628Y-50857142D02*
X104073866Y-50904761D01*
X104073866Y-50904761D02*
X104264342Y-50904761D01*
X104264342Y-50904761D02*
X104359580Y-50857142D01*
X104359580Y-50857142D02*
X104407200Y-50809523D01*
X104407200Y-50809523D02*
X104454819Y-50714285D01*
X104454819Y-50714285D02*
X104454819Y-50523809D01*
X104454819Y-50523809D02*
X104407200Y-50428571D01*
X104407200Y-50428571D02*
X104359580Y-50380952D01*
X104359580Y-50380952D02*
X104264342Y-50333333D01*
X104264342Y-50333333D02*
X104073866Y-50333333D01*
X104073866Y-50333333D02*
X103978628Y-50380952D01*
X103978628Y-50380952D02*
X103931009Y-50428571D01*
X103931009Y-50428571D02*
X103883390Y-50523809D01*
X83238095Y-66956819D02*
X83809523Y-66956819D01*
X83523809Y-67956819D02*
X83523809Y-66956819D01*
X84142857Y-67956819D02*
X84142857Y-66956819D01*
X84142857Y-66956819D02*
X84523809Y-66956819D01*
X84523809Y-66956819D02*
X84619047Y-67004438D01*
X84619047Y-67004438D02*
X84666666Y-67052057D01*
X84666666Y-67052057D02*
X84714285Y-67147295D01*
X84714285Y-67147295D02*
X84714285Y-67290152D01*
X84714285Y-67290152D02*
X84666666Y-67385390D01*
X84666666Y-67385390D02*
X84619047Y-67433009D01*
X84619047Y-67433009D02*
X84523809Y-67480628D01*
X84523809Y-67480628D02*
X84142857Y-67480628D01*
X85190476Y-67956819D02*
X85380952Y-67956819D01*
X85380952Y-67956819D02*
X85476190Y-67909200D01*
X85476190Y-67909200D02*
X85523809Y-67861580D01*
X85523809Y-67861580D02*
X85619047Y-67718723D01*
X85619047Y-67718723D02*
X85666666Y-67528247D01*
X85666666Y-67528247D02*
X85666666Y-67147295D01*
X85666666Y-67147295D02*
X85619047Y-67052057D01*
X85619047Y-67052057D02*
X85571428Y-67004438D01*
X85571428Y-67004438D02*
X85476190Y-66956819D01*
X85476190Y-66956819D02*
X85285714Y-66956819D01*
X85285714Y-66956819D02*
X85190476Y-67004438D01*
X85190476Y-67004438D02*
X85142857Y-67052057D01*
X85142857Y-67052057D02*
X85095238Y-67147295D01*
X85095238Y-67147295D02*
X85095238Y-67385390D01*
X85095238Y-67385390D02*
X85142857Y-67480628D01*
X85142857Y-67480628D02*
X85190476Y-67528247D01*
X85190476Y-67528247D02*
X85285714Y-67575866D01*
X85285714Y-67575866D02*
X85476190Y-67575866D01*
X85476190Y-67575866D02*
X85571428Y-67528247D01*
X85571428Y-67528247D02*
X85619047Y-67480628D01*
X85619047Y-67480628D02*
X85666666Y-67385390D01*
X124254819Y-83309523D02*
X124969104Y-83309523D01*
X124969104Y-83309523D02*
X125111961Y-83357142D01*
X125111961Y-83357142D02*
X125207200Y-83452380D01*
X125207200Y-83452380D02*
X125254819Y-83595237D01*
X125254819Y-83595237D02*
X125254819Y-83690475D01*
X125254819Y-82833332D02*
X124254819Y-82833332D01*
X124254819Y-82833332D02*
X124254819Y-82452380D01*
X124254819Y-82452380D02*
X124302438Y-82357142D01*
X124302438Y-82357142D02*
X124350057Y-82309523D01*
X124350057Y-82309523D02*
X124445295Y-82261904D01*
X124445295Y-82261904D02*
X124588152Y-82261904D01*
X124588152Y-82261904D02*
X124683390Y-82309523D01*
X124683390Y-82309523D02*
X124731009Y-82357142D01*
X124731009Y-82357142D02*
X124778628Y-82452380D01*
X124778628Y-82452380D02*
X124778628Y-82833332D01*
X125254819Y-81309523D02*
X125254819Y-81880951D01*
X125254819Y-81595237D02*
X124254819Y-81595237D01*
X124254819Y-81595237D02*
X124397676Y-81690475D01*
X124397676Y-81690475D02*
X124492914Y-81785713D01*
X124492914Y-81785713D02*
X124540533Y-81880951D01*
X124254819Y-80976189D02*
X124254819Y-80357142D01*
X124254819Y-80357142D02*
X124635771Y-80690475D01*
X124635771Y-80690475D02*
X124635771Y-80547618D01*
X124635771Y-80547618D02*
X124683390Y-80452380D01*
X124683390Y-80452380D02*
X124731009Y-80404761D01*
X124731009Y-80404761D02*
X124826247Y-80357142D01*
X124826247Y-80357142D02*
X125064342Y-80357142D01*
X125064342Y-80357142D02*
X125159580Y-80404761D01*
X125159580Y-80404761D02*
X125207200Y-80452380D01*
X125207200Y-80452380D02*
X125254819Y-80547618D01*
X125254819Y-80547618D02*
X125254819Y-80833332D01*
X125254819Y-80833332D02*
X125207200Y-80928570D01*
X125207200Y-80928570D02*
X125159580Y-80976189D01*
X96166666Y-51954819D02*
X96166666Y-52669104D01*
X96166666Y-52669104D02*
X96119047Y-52811961D01*
X96119047Y-52811961D02*
X96023809Y-52907200D01*
X96023809Y-52907200D02*
X95880952Y-52954819D01*
X95880952Y-52954819D02*
X95785714Y-52954819D01*
X96642857Y-52954819D02*
X96642857Y-51954819D01*
X96642857Y-51954819D02*
X97023809Y-51954819D01*
X97023809Y-51954819D02*
X97119047Y-52002438D01*
X97119047Y-52002438D02*
X97166666Y-52050057D01*
X97166666Y-52050057D02*
X97214285Y-52145295D01*
X97214285Y-52145295D02*
X97214285Y-52288152D01*
X97214285Y-52288152D02*
X97166666Y-52383390D01*
X97166666Y-52383390D02*
X97119047Y-52431009D01*
X97119047Y-52431009D02*
X97023809Y-52478628D01*
X97023809Y-52478628D02*
X96642857Y-52478628D01*
X97547619Y-51954819D02*
X98166666Y-51954819D01*
X98166666Y-51954819D02*
X97833333Y-52335771D01*
X97833333Y-52335771D02*
X97976190Y-52335771D01*
X97976190Y-52335771D02*
X98071428Y-52383390D01*
X98071428Y-52383390D02*
X98119047Y-52431009D01*
X98119047Y-52431009D02*
X98166666Y-52526247D01*
X98166666Y-52526247D02*
X98166666Y-52764342D01*
X98166666Y-52764342D02*
X98119047Y-52859580D01*
X98119047Y-52859580D02*
X98071428Y-52907200D01*
X98071428Y-52907200D02*
X97976190Y-52954819D01*
X97976190Y-52954819D02*
X97690476Y-52954819D01*
X97690476Y-52954819D02*
X97595238Y-52907200D01*
X97595238Y-52907200D02*
X97547619Y-52859580D01*
X81904761Y-69550057D02*
X81809523Y-69502438D01*
X81809523Y-69502438D02*
X81714285Y-69407200D01*
X81714285Y-69407200D02*
X81571428Y-69264342D01*
X81571428Y-69264342D02*
X81476190Y-69216723D01*
X81476190Y-69216723D02*
X81380952Y-69216723D01*
X81428571Y-69454819D02*
X81333333Y-69407200D01*
X81333333Y-69407200D02*
X81238095Y-69311961D01*
X81238095Y-69311961D02*
X81190476Y-69121485D01*
X81190476Y-69121485D02*
X81190476Y-68788152D01*
X81190476Y-68788152D02*
X81238095Y-68597676D01*
X81238095Y-68597676D02*
X81333333Y-68502438D01*
X81333333Y-68502438D02*
X81428571Y-68454819D01*
X81428571Y-68454819D02*
X81619047Y-68454819D01*
X81619047Y-68454819D02*
X81714285Y-68502438D01*
X81714285Y-68502438D02*
X81809523Y-68597676D01*
X81809523Y-68597676D02*
X81857142Y-68788152D01*
X81857142Y-68788152D02*
X81857142Y-69121485D01*
X81857142Y-69121485D02*
X81809523Y-69311961D01*
X81809523Y-69311961D02*
X81714285Y-69407200D01*
X81714285Y-69407200D02*
X81619047Y-69454819D01*
X81619047Y-69454819D02*
X81428571Y-69454819D01*
X82714285Y-68788152D02*
X82714285Y-69454819D01*
X82476190Y-68407200D02*
X82238095Y-69121485D01*
X82238095Y-69121485D02*
X82857142Y-69121485D01*
X93761905Y-50129819D02*
X93761905Y-49129819D01*
X93761905Y-49129819D02*
X94000000Y-49129819D01*
X94000000Y-49129819D02*
X94142857Y-49177438D01*
X94142857Y-49177438D02*
X94238095Y-49272676D01*
X94238095Y-49272676D02*
X94285714Y-49367914D01*
X94285714Y-49367914D02*
X94333333Y-49558390D01*
X94333333Y-49558390D02*
X94333333Y-49701247D01*
X94333333Y-49701247D02*
X94285714Y-49891723D01*
X94285714Y-49891723D02*
X94238095Y-49986961D01*
X94238095Y-49986961D02*
X94142857Y-50082200D01*
X94142857Y-50082200D02*
X94000000Y-50129819D01*
X94000000Y-50129819D02*
X93761905Y-50129819D01*
X94666667Y-49129819D02*
X95285714Y-49129819D01*
X95285714Y-49129819D02*
X94952381Y-49510771D01*
X94952381Y-49510771D02*
X95095238Y-49510771D01*
X95095238Y-49510771D02*
X95190476Y-49558390D01*
X95190476Y-49558390D02*
X95238095Y-49606009D01*
X95238095Y-49606009D02*
X95285714Y-49701247D01*
X95285714Y-49701247D02*
X95285714Y-49939342D01*
X95285714Y-49939342D02*
X95238095Y-50034580D01*
X95238095Y-50034580D02*
X95190476Y-50082200D01*
X95190476Y-50082200D02*
X95095238Y-50129819D01*
X95095238Y-50129819D02*
X94809524Y-50129819D01*
X94809524Y-50129819D02*
X94714286Y-50082200D01*
X94714286Y-50082200D02*
X94666667Y-50034580D01*
X115024819Y-76166666D02*
X114548628Y-76499999D01*
X115024819Y-76738094D02*
X114024819Y-76738094D01*
X114024819Y-76738094D02*
X114024819Y-76357142D01*
X114024819Y-76357142D02*
X114072438Y-76261904D01*
X114072438Y-76261904D02*
X114120057Y-76214285D01*
X114120057Y-76214285D02*
X114215295Y-76166666D01*
X114215295Y-76166666D02*
X114358152Y-76166666D01*
X114358152Y-76166666D02*
X114453390Y-76214285D01*
X114453390Y-76214285D02*
X114501009Y-76261904D01*
X114501009Y-76261904D02*
X114548628Y-76357142D01*
X114548628Y-76357142D02*
X114548628Y-76738094D01*
X114453390Y-75595237D02*
X114405771Y-75690475D01*
X114405771Y-75690475D02*
X114358152Y-75738094D01*
X114358152Y-75738094D02*
X114262914Y-75785713D01*
X114262914Y-75785713D02*
X114215295Y-75785713D01*
X114215295Y-75785713D02*
X114120057Y-75738094D01*
X114120057Y-75738094D02*
X114072438Y-75690475D01*
X114072438Y-75690475D02*
X114024819Y-75595237D01*
X114024819Y-75595237D02*
X114024819Y-75404761D01*
X114024819Y-75404761D02*
X114072438Y-75309523D01*
X114072438Y-75309523D02*
X114120057Y-75261904D01*
X114120057Y-75261904D02*
X114215295Y-75214285D01*
X114215295Y-75214285D02*
X114262914Y-75214285D01*
X114262914Y-75214285D02*
X114358152Y-75261904D01*
X114358152Y-75261904D02*
X114405771Y-75309523D01*
X114405771Y-75309523D02*
X114453390Y-75404761D01*
X114453390Y-75404761D02*
X114453390Y-75595237D01*
X114453390Y-75595237D02*
X114501009Y-75690475D01*
X114501009Y-75690475D02*
X114548628Y-75738094D01*
X114548628Y-75738094D02*
X114643866Y-75785713D01*
X114643866Y-75785713D02*
X114834342Y-75785713D01*
X114834342Y-75785713D02*
X114929580Y-75738094D01*
X114929580Y-75738094D02*
X114977200Y-75690475D01*
X114977200Y-75690475D02*
X115024819Y-75595237D01*
X115024819Y-75595237D02*
X115024819Y-75404761D01*
X115024819Y-75404761D02*
X114977200Y-75309523D01*
X114977200Y-75309523D02*
X114929580Y-75261904D01*
X114929580Y-75261904D02*
X114834342Y-75214285D01*
X114834342Y-75214285D02*
X114643866Y-75214285D01*
X114643866Y-75214285D02*
X114548628Y-75261904D01*
X114548628Y-75261904D02*
X114501009Y-75309523D01*
X114501009Y-75309523D02*
X114453390Y-75404761D01*
X121024819Y-54666666D02*
X120548628Y-54999999D01*
X121024819Y-55238094D02*
X120024819Y-55238094D01*
X120024819Y-55238094D02*
X120024819Y-54857142D01*
X120024819Y-54857142D02*
X120072438Y-54761904D01*
X120072438Y-54761904D02*
X120120057Y-54714285D01*
X120120057Y-54714285D02*
X120215295Y-54666666D01*
X120215295Y-54666666D02*
X120358152Y-54666666D01*
X120358152Y-54666666D02*
X120453390Y-54714285D01*
X120453390Y-54714285D02*
X120501009Y-54761904D01*
X120501009Y-54761904D02*
X120548628Y-54857142D01*
X120548628Y-54857142D02*
X120548628Y-55238094D01*
X121024819Y-53714285D02*
X121024819Y-54285713D01*
X121024819Y-53999999D02*
X120024819Y-53999999D01*
X120024819Y-53999999D02*
X120167676Y-54095237D01*
X120167676Y-54095237D02*
X120262914Y-54190475D01*
X120262914Y-54190475D02*
X120310533Y-54285713D01*
X95524819Y-76642857D02*
X95048628Y-76976190D01*
X95524819Y-77214285D02*
X94524819Y-77214285D01*
X94524819Y-77214285D02*
X94524819Y-76833333D01*
X94524819Y-76833333D02*
X94572438Y-76738095D01*
X94572438Y-76738095D02*
X94620057Y-76690476D01*
X94620057Y-76690476D02*
X94715295Y-76642857D01*
X94715295Y-76642857D02*
X94858152Y-76642857D01*
X94858152Y-76642857D02*
X94953390Y-76690476D01*
X94953390Y-76690476D02*
X95001009Y-76738095D01*
X95001009Y-76738095D02*
X95048628Y-76833333D01*
X95048628Y-76833333D02*
X95048628Y-77214285D01*
X95524819Y-75690476D02*
X95524819Y-76261904D01*
X95524819Y-75976190D02*
X94524819Y-75976190D01*
X94524819Y-75976190D02*
X94667676Y-76071428D01*
X94667676Y-76071428D02*
X94762914Y-76166666D01*
X94762914Y-76166666D02*
X94810533Y-76261904D01*
X95524819Y-74738095D02*
X95524819Y-75309523D01*
X95524819Y-75023809D02*
X94524819Y-75023809D01*
X94524819Y-75023809D02*
X94667676Y-75119047D01*
X94667676Y-75119047D02*
X94762914Y-75214285D01*
X94762914Y-75214285D02*
X94810533Y-75309523D01*
X101555238Y-60545180D02*
X101888571Y-61021371D01*
X102126666Y-60545180D02*
X102126666Y-61545180D01*
X102126666Y-61545180D02*
X101745714Y-61545180D01*
X101745714Y-61545180D02*
X101650476Y-61497561D01*
X101650476Y-61497561D02*
X101602857Y-61449942D01*
X101602857Y-61449942D02*
X101555238Y-61354704D01*
X101555238Y-61354704D02*
X101555238Y-61211847D01*
X101555238Y-61211847D02*
X101602857Y-61116609D01*
X101602857Y-61116609D02*
X101650476Y-61068990D01*
X101650476Y-61068990D02*
X101745714Y-61021371D01*
X101745714Y-61021371D02*
X102126666Y-61021371D01*
X101269523Y-61545180D02*
X100936190Y-60545180D01*
X100936190Y-60545180D02*
X100602857Y-61545180D01*
X100317142Y-61449942D02*
X100269523Y-61497561D01*
X100269523Y-61497561D02*
X100174285Y-61545180D01*
X100174285Y-61545180D02*
X99936190Y-61545180D01*
X99936190Y-61545180D02*
X99840952Y-61497561D01*
X99840952Y-61497561D02*
X99793333Y-61449942D01*
X99793333Y-61449942D02*
X99745714Y-61354704D01*
X99745714Y-61354704D02*
X99745714Y-61259466D01*
X99745714Y-61259466D02*
X99793333Y-61116609D01*
X99793333Y-61116609D02*
X100364761Y-60545180D01*
X100364761Y-60545180D02*
X99745714Y-60545180D01*
X115454819Y-55133333D02*
X116169104Y-55133333D01*
X116169104Y-55133333D02*
X116311961Y-55180952D01*
X116311961Y-55180952D02*
X116407200Y-55276190D01*
X116407200Y-55276190D02*
X116454819Y-55419047D01*
X116454819Y-55419047D02*
X116454819Y-55514285D01*
X116454819Y-54657142D02*
X115454819Y-54657142D01*
X115454819Y-54657142D02*
X115454819Y-54276190D01*
X115454819Y-54276190D02*
X115502438Y-54180952D01*
X115502438Y-54180952D02*
X115550057Y-54133333D01*
X115550057Y-54133333D02*
X115645295Y-54085714D01*
X115645295Y-54085714D02*
X115788152Y-54085714D01*
X115788152Y-54085714D02*
X115883390Y-54133333D01*
X115883390Y-54133333D02*
X115931009Y-54180952D01*
X115931009Y-54180952D02*
X115978628Y-54276190D01*
X115978628Y-54276190D02*
X115978628Y-54657142D01*
X115454819Y-53752380D02*
X115454819Y-53085714D01*
X115454819Y-53085714D02*
X116454819Y-53514285D01*
X109650057Y-48232738D02*
X109602438Y-48327976D01*
X109602438Y-48327976D02*
X109507200Y-48423214D01*
X109507200Y-48423214D02*
X109364342Y-48566071D01*
X109364342Y-48566071D02*
X109316723Y-48661309D01*
X109316723Y-48661309D02*
X109316723Y-48756547D01*
X109554819Y-48708928D02*
X109507200Y-48804166D01*
X109507200Y-48804166D02*
X109411961Y-48899404D01*
X109411961Y-48899404D02*
X109221485Y-48947023D01*
X109221485Y-48947023D02*
X108888152Y-48947023D01*
X108888152Y-48947023D02*
X108697676Y-48899404D01*
X108697676Y-48899404D02*
X108602438Y-48804166D01*
X108602438Y-48804166D02*
X108554819Y-48708928D01*
X108554819Y-48708928D02*
X108554819Y-48518452D01*
X108554819Y-48518452D02*
X108602438Y-48423214D01*
X108602438Y-48423214D02*
X108697676Y-48327976D01*
X108697676Y-48327976D02*
X108888152Y-48280357D01*
X108888152Y-48280357D02*
X109221485Y-48280357D01*
X109221485Y-48280357D02*
X109411961Y-48327976D01*
X109411961Y-48327976D02*
X109507200Y-48423214D01*
X109507200Y-48423214D02*
X109554819Y-48518452D01*
X109554819Y-48518452D02*
X109554819Y-48708928D01*
X108983390Y-47708928D02*
X108935771Y-47804166D01*
X108935771Y-47804166D02*
X108888152Y-47851785D01*
X108888152Y-47851785D02*
X108792914Y-47899404D01*
X108792914Y-47899404D02*
X108745295Y-47899404D01*
X108745295Y-47899404D02*
X108650057Y-47851785D01*
X108650057Y-47851785D02*
X108602438Y-47804166D01*
X108602438Y-47804166D02*
X108554819Y-47708928D01*
X108554819Y-47708928D02*
X108554819Y-47518452D01*
X108554819Y-47518452D02*
X108602438Y-47423214D01*
X108602438Y-47423214D02*
X108650057Y-47375595D01*
X108650057Y-47375595D02*
X108745295Y-47327976D01*
X108745295Y-47327976D02*
X108792914Y-47327976D01*
X108792914Y-47327976D02*
X108888152Y-47375595D01*
X108888152Y-47375595D02*
X108935771Y-47423214D01*
X108935771Y-47423214D02*
X108983390Y-47518452D01*
X108983390Y-47518452D02*
X108983390Y-47708928D01*
X108983390Y-47708928D02*
X109031009Y-47804166D01*
X109031009Y-47804166D02*
X109078628Y-47851785D01*
X109078628Y-47851785D02*
X109173866Y-47899404D01*
X109173866Y-47899404D02*
X109364342Y-47899404D01*
X109364342Y-47899404D02*
X109459580Y-47851785D01*
X109459580Y-47851785D02*
X109507200Y-47804166D01*
X109507200Y-47804166D02*
X109554819Y-47708928D01*
X109554819Y-47708928D02*
X109554819Y-47518452D01*
X109554819Y-47518452D02*
X109507200Y-47423214D01*
X109507200Y-47423214D02*
X109459580Y-47375595D01*
X109459580Y-47375595D02*
X109364342Y-47327976D01*
X109364342Y-47327976D02*
X109173866Y-47327976D01*
X109173866Y-47327976D02*
X109078628Y-47375595D01*
X109078628Y-47375595D02*
X109031009Y-47423214D01*
X109031009Y-47423214D02*
X108983390Y-47518452D01*
X81254819Y-58983333D02*
X81969104Y-58983333D01*
X81969104Y-58983333D02*
X82111961Y-59030952D01*
X82111961Y-59030952D02*
X82207200Y-59126190D01*
X82207200Y-59126190D02*
X82254819Y-59269047D01*
X82254819Y-59269047D02*
X82254819Y-59364285D01*
X82254819Y-58507142D02*
X81254819Y-58507142D01*
X81254819Y-58507142D02*
X81254819Y-58126190D01*
X81254819Y-58126190D02*
X81302438Y-58030952D01*
X81302438Y-58030952D02*
X81350057Y-57983333D01*
X81350057Y-57983333D02*
X81445295Y-57935714D01*
X81445295Y-57935714D02*
X81588152Y-57935714D01*
X81588152Y-57935714D02*
X81683390Y-57983333D01*
X81683390Y-57983333D02*
X81731009Y-58030952D01*
X81731009Y-58030952D02*
X81778628Y-58126190D01*
X81778628Y-58126190D02*
X81778628Y-58507142D01*
X81254819Y-57078571D02*
X81254819Y-57269047D01*
X81254819Y-57269047D02*
X81302438Y-57364285D01*
X81302438Y-57364285D02*
X81350057Y-57411904D01*
X81350057Y-57411904D02*
X81492914Y-57507142D01*
X81492914Y-57507142D02*
X81683390Y-57554761D01*
X81683390Y-57554761D02*
X82064342Y-57554761D01*
X82064342Y-57554761D02*
X82159580Y-57507142D01*
X82159580Y-57507142D02*
X82207200Y-57459523D01*
X82207200Y-57459523D02*
X82254819Y-57364285D01*
X82254819Y-57364285D02*
X82254819Y-57173809D01*
X82254819Y-57173809D02*
X82207200Y-57078571D01*
X82207200Y-57078571D02*
X82159580Y-57030952D01*
X82159580Y-57030952D02*
X82064342Y-56983333D01*
X82064342Y-56983333D02*
X81826247Y-56983333D01*
X81826247Y-56983333D02*
X81731009Y-57030952D01*
X81731009Y-57030952D02*
X81683390Y-57078571D01*
X81683390Y-57078571D02*
X81635771Y-57173809D01*
X81635771Y-57173809D02*
X81635771Y-57364285D01*
X81635771Y-57364285D02*
X81683390Y-57459523D01*
X81683390Y-57459523D02*
X81731009Y-57507142D01*
X81731009Y-57507142D02*
X81826247Y-57554761D01*
X92238095Y-52006819D02*
X92809523Y-52006819D01*
X92523809Y-53006819D02*
X92523809Y-52006819D01*
X93142857Y-53006819D02*
X93142857Y-52006819D01*
X93142857Y-52006819D02*
X93523809Y-52006819D01*
X93523809Y-52006819D02*
X93619047Y-52054438D01*
X93619047Y-52054438D02*
X93666666Y-52102057D01*
X93666666Y-52102057D02*
X93714285Y-52197295D01*
X93714285Y-52197295D02*
X93714285Y-52340152D01*
X93714285Y-52340152D02*
X93666666Y-52435390D01*
X93666666Y-52435390D02*
X93619047Y-52483009D01*
X93619047Y-52483009D02*
X93523809Y-52530628D01*
X93523809Y-52530628D02*
X93142857Y-52530628D01*
X94047619Y-52006819D02*
X94666666Y-52006819D01*
X94666666Y-52006819D02*
X94333333Y-52387771D01*
X94333333Y-52387771D02*
X94476190Y-52387771D01*
X94476190Y-52387771D02*
X94571428Y-52435390D01*
X94571428Y-52435390D02*
X94619047Y-52483009D01*
X94619047Y-52483009D02*
X94666666Y-52578247D01*
X94666666Y-52578247D02*
X94666666Y-52816342D01*
X94666666Y-52816342D02*
X94619047Y-52911580D01*
X94619047Y-52911580D02*
X94571428Y-52959200D01*
X94571428Y-52959200D02*
X94476190Y-53006819D01*
X94476190Y-53006819D02*
X94190476Y-53006819D01*
X94190476Y-53006819D02*
X94095238Y-52959200D01*
X94095238Y-52959200D02*
X94047619Y-52911580D01*
X121690477Y-77954818D02*
X121690477Y-78669103D01*
X121690477Y-78669103D02*
X121642858Y-78811960D01*
X121642858Y-78811960D02*
X121547620Y-78907199D01*
X121547620Y-78907199D02*
X121404763Y-78954818D01*
X121404763Y-78954818D02*
X121309525Y-78954818D01*
X122166668Y-78954818D02*
X122166668Y-77954818D01*
X122166668Y-77954818D02*
X122547620Y-77954818D01*
X122547620Y-77954818D02*
X122642858Y-78002437D01*
X122642858Y-78002437D02*
X122690477Y-78050056D01*
X122690477Y-78050056D02*
X122738096Y-78145294D01*
X122738096Y-78145294D02*
X122738096Y-78288151D01*
X122738096Y-78288151D02*
X122690477Y-78383389D01*
X122690477Y-78383389D02*
X122642858Y-78431008D01*
X122642858Y-78431008D02*
X122547620Y-78478627D01*
X122547620Y-78478627D02*
X122166668Y-78478627D01*
X123690477Y-78954818D02*
X123119049Y-78954818D01*
X123404763Y-78954818D02*
X123404763Y-77954818D01*
X123404763Y-77954818D02*
X123309525Y-78097675D01*
X123309525Y-78097675D02*
X123214287Y-78192913D01*
X123214287Y-78192913D02*
X123119049Y-78240532D01*
X124309525Y-77954818D02*
X124404763Y-77954818D01*
X124404763Y-77954818D02*
X124500001Y-78002437D01*
X124500001Y-78002437D02*
X124547620Y-78050056D01*
X124547620Y-78050056D02*
X124595239Y-78145294D01*
X124595239Y-78145294D02*
X124642858Y-78335770D01*
X124642858Y-78335770D02*
X124642858Y-78573865D01*
X124642858Y-78573865D02*
X124595239Y-78764341D01*
X124595239Y-78764341D02*
X124547620Y-78859579D01*
X124547620Y-78859579D02*
X124500001Y-78907199D01*
X124500001Y-78907199D02*
X124404763Y-78954818D01*
X124404763Y-78954818D02*
X124309525Y-78954818D01*
X124309525Y-78954818D02*
X124214287Y-78907199D01*
X124214287Y-78907199D02*
X124166668Y-78859579D01*
X124166668Y-78859579D02*
X124119049Y-78764341D01*
X124119049Y-78764341D02*
X124071430Y-78573865D01*
X124071430Y-78573865D02*
X124071430Y-78335770D01*
X124071430Y-78335770D02*
X124119049Y-78145294D01*
X124119049Y-78145294D02*
X124166668Y-78050056D01*
X124166668Y-78050056D02*
X124214287Y-78002437D01*
X124214287Y-78002437D02*
X124309525Y-77954818D01*
X117738095Y-50506819D02*
X118309523Y-50506819D01*
X118023809Y-51506819D02*
X118023809Y-50506819D01*
X118642857Y-51506819D02*
X118642857Y-50506819D01*
X118642857Y-50506819D02*
X119023809Y-50506819D01*
X119023809Y-50506819D02*
X119119047Y-50554438D01*
X119119047Y-50554438D02*
X119166666Y-50602057D01*
X119166666Y-50602057D02*
X119214285Y-50697295D01*
X119214285Y-50697295D02*
X119214285Y-50840152D01*
X119214285Y-50840152D02*
X119166666Y-50935390D01*
X119166666Y-50935390D02*
X119119047Y-50983009D01*
X119119047Y-50983009D02*
X119023809Y-51030628D01*
X119023809Y-51030628D02*
X118642857Y-51030628D01*
X119595238Y-50602057D02*
X119642857Y-50554438D01*
X119642857Y-50554438D02*
X119738095Y-50506819D01*
X119738095Y-50506819D02*
X119976190Y-50506819D01*
X119976190Y-50506819D02*
X120071428Y-50554438D01*
X120071428Y-50554438D02*
X120119047Y-50602057D01*
X120119047Y-50602057D02*
X120166666Y-50697295D01*
X120166666Y-50697295D02*
X120166666Y-50792533D01*
X120166666Y-50792533D02*
X120119047Y-50935390D01*
X120119047Y-50935390D02*
X119547619Y-51506819D01*
X119547619Y-51506819D02*
X120166666Y-51506819D01*
X108238095Y-53954819D02*
X108809523Y-53954819D01*
X108523809Y-54954819D02*
X108523809Y-53954819D01*
X109142857Y-54954819D02*
X109142857Y-53954819D01*
X109142857Y-53954819D02*
X109523809Y-53954819D01*
X109523809Y-53954819D02*
X109619047Y-54002438D01*
X109619047Y-54002438D02*
X109666666Y-54050057D01*
X109666666Y-54050057D02*
X109714285Y-54145295D01*
X109714285Y-54145295D02*
X109714285Y-54288152D01*
X109714285Y-54288152D02*
X109666666Y-54383390D01*
X109666666Y-54383390D02*
X109619047Y-54431009D01*
X109619047Y-54431009D02*
X109523809Y-54478628D01*
X109523809Y-54478628D02*
X109142857Y-54478628D01*
X110571428Y-54288152D02*
X110571428Y-54954819D01*
X110333333Y-53907200D02*
X110095238Y-54621485D01*
X110095238Y-54621485D02*
X110714285Y-54621485D01*
X103333333Y-68454819D02*
X103000000Y-67978628D01*
X102761905Y-68454819D02*
X102761905Y-67454819D01*
X102761905Y-67454819D02*
X103142857Y-67454819D01*
X103142857Y-67454819D02*
X103238095Y-67502438D01*
X103238095Y-67502438D02*
X103285714Y-67550057D01*
X103285714Y-67550057D02*
X103333333Y-67645295D01*
X103333333Y-67645295D02*
X103333333Y-67788152D01*
X103333333Y-67788152D02*
X103285714Y-67883390D01*
X103285714Y-67883390D02*
X103238095Y-67931009D01*
X103238095Y-67931009D02*
X103142857Y-67978628D01*
X103142857Y-67978628D02*
X102761905Y-67978628D01*
X104190476Y-67788152D02*
X104190476Y-68454819D01*
X103952381Y-67407200D02*
X103714286Y-68121485D01*
X103714286Y-68121485D02*
X104333333Y-68121485D01*
X77404819Y-82809523D02*
X78119104Y-82809523D01*
X78119104Y-82809523D02*
X78261961Y-82857142D01*
X78261961Y-82857142D02*
X78357200Y-82952380D01*
X78357200Y-82952380D02*
X78404819Y-83095237D01*
X78404819Y-83095237D02*
X78404819Y-83190475D01*
X78404819Y-82333332D02*
X77404819Y-82333332D01*
X77404819Y-82333332D02*
X77404819Y-81952380D01*
X77404819Y-81952380D02*
X77452438Y-81857142D01*
X77452438Y-81857142D02*
X77500057Y-81809523D01*
X77500057Y-81809523D02*
X77595295Y-81761904D01*
X77595295Y-81761904D02*
X77738152Y-81761904D01*
X77738152Y-81761904D02*
X77833390Y-81809523D01*
X77833390Y-81809523D02*
X77881009Y-81857142D01*
X77881009Y-81857142D02*
X77928628Y-81952380D01*
X77928628Y-81952380D02*
X77928628Y-82333332D01*
X78404819Y-80809523D02*
X78404819Y-81380951D01*
X78404819Y-81095237D02*
X77404819Y-81095237D01*
X77404819Y-81095237D02*
X77547676Y-81190475D01*
X77547676Y-81190475D02*
X77642914Y-81285713D01*
X77642914Y-81285713D02*
X77690533Y-81380951D01*
X77404819Y-79904761D02*
X77404819Y-80380951D01*
X77404819Y-80380951D02*
X77881009Y-80428570D01*
X77881009Y-80428570D02*
X77833390Y-80380951D01*
X77833390Y-80380951D02*
X77785771Y-80285713D01*
X77785771Y-80285713D02*
X77785771Y-80047618D01*
X77785771Y-80047618D02*
X77833390Y-79952380D01*
X77833390Y-79952380D02*
X77881009Y-79904761D01*
X77881009Y-79904761D02*
X77976247Y-79857142D01*
X77976247Y-79857142D02*
X78214342Y-79857142D01*
X78214342Y-79857142D02*
X78309580Y-79904761D01*
X78309580Y-79904761D02*
X78357200Y-79952380D01*
X78357200Y-79952380D02*
X78404819Y-80047618D01*
X78404819Y-80047618D02*
X78404819Y-80285713D01*
X78404819Y-80285713D02*
X78357200Y-80380951D01*
X78357200Y-80380951D02*
X78309580Y-80428570D01*
X89024819Y-76817857D02*
X88548628Y-77151190D01*
X89024819Y-77389285D02*
X88024819Y-77389285D01*
X88024819Y-77389285D02*
X88024819Y-77008333D01*
X88024819Y-77008333D02*
X88072438Y-76913095D01*
X88072438Y-76913095D02*
X88120057Y-76865476D01*
X88120057Y-76865476D02*
X88215295Y-76817857D01*
X88215295Y-76817857D02*
X88358152Y-76817857D01*
X88358152Y-76817857D02*
X88453390Y-76865476D01*
X88453390Y-76865476D02*
X88501009Y-76913095D01*
X88501009Y-76913095D02*
X88548628Y-77008333D01*
X88548628Y-77008333D02*
X88548628Y-77389285D01*
X89024819Y-75865476D02*
X89024819Y-76436904D01*
X89024819Y-76151190D02*
X88024819Y-76151190D01*
X88024819Y-76151190D02*
X88167676Y-76246428D01*
X88167676Y-76246428D02*
X88262914Y-76341666D01*
X88262914Y-76341666D02*
X88310533Y-76436904D01*
X88024819Y-75532142D02*
X88024819Y-74865476D01*
X88024819Y-74865476D02*
X89024819Y-75294047D01*
X82238095Y-51506819D02*
X82809523Y-51506819D01*
X82523809Y-52506819D02*
X82523809Y-51506819D01*
X83142857Y-52506819D02*
X83142857Y-51506819D01*
X83142857Y-51506819D02*
X83523809Y-51506819D01*
X83523809Y-51506819D02*
X83619047Y-51554438D01*
X83619047Y-51554438D02*
X83666666Y-51602057D01*
X83666666Y-51602057D02*
X83714285Y-51697295D01*
X83714285Y-51697295D02*
X83714285Y-51840152D01*
X83714285Y-51840152D02*
X83666666Y-51935390D01*
X83666666Y-51935390D02*
X83619047Y-51983009D01*
X83619047Y-51983009D02*
X83523809Y-52030628D01*
X83523809Y-52030628D02*
X83142857Y-52030628D01*
X84571428Y-51506819D02*
X84380952Y-51506819D01*
X84380952Y-51506819D02*
X84285714Y-51554438D01*
X84285714Y-51554438D02*
X84238095Y-51602057D01*
X84238095Y-51602057D02*
X84142857Y-51744914D01*
X84142857Y-51744914D02*
X84095238Y-51935390D01*
X84095238Y-51935390D02*
X84095238Y-52316342D01*
X84095238Y-52316342D02*
X84142857Y-52411580D01*
X84142857Y-52411580D02*
X84190476Y-52459200D01*
X84190476Y-52459200D02*
X84285714Y-52506819D01*
X84285714Y-52506819D02*
X84476190Y-52506819D01*
X84476190Y-52506819D02*
X84571428Y-52459200D01*
X84571428Y-52459200D02*
X84619047Y-52411580D01*
X84619047Y-52411580D02*
X84666666Y-52316342D01*
X84666666Y-52316342D02*
X84666666Y-52078247D01*
X84666666Y-52078247D02*
X84619047Y-51983009D01*
X84619047Y-51983009D02*
X84571428Y-51935390D01*
X84571428Y-51935390D02*
X84476190Y-51887771D01*
X84476190Y-51887771D02*
X84285714Y-51887771D01*
X84285714Y-51887771D02*
X84190476Y-51935390D01*
X84190476Y-51935390D02*
X84142857Y-51983009D01*
X84142857Y-51983009D02*
X84095238Y-52078247D01*
X129104819Y-83309523D02*
X129819104Y-83309523D01*
X129819104Y-83309523D02*
X129961961Y-83357142D01*
X129961961Y-83357142D02*
X130057200Y-83452380D01*
X130057200Y-83452380D02*
X130104819Y-83595237D01*
X130104819Y-83595237D02*
X130104819Y-83690475D01*
X130104819Y-82833332D02*
X129104819Y-82833332D01*
X129104819Y-82833332D02*
X129104819Y-82452380D01*
X129104819Y-82452380D02*
X129152438Y-82357142D01*
X129152438Y-82357142D02*
X129200057Y-82309523D01*
X129200057Y-82309523D02*
X129295295Y-82261904D01*
X129295295Y-82261904D02*
X129438152Y-82261904D01*
X129438152Y-82261904D02*
X129533390Y-82309523D01*
X129533390Y-82309523D02*
X129581009Y-82357142D01*
X129581009Y-82357142D02*
X129628628Y-82452380D01*
X129628628Y-82452380D02*
X129628628Y-82833332D01*
X130104819Y-81309523D02*
X130104819Y-81880951D01*
X130104819Y-81595237D02*
X129104819Y-81595237D01*
X129104819Y-81595237D02*
X129247676Y-81690475D01*
X129247676Y-81690475D02*
X129342914Y-81785713D01*
X129342914Y-81785713D02*
X129390533Y-81880951D01*
X129438152Y-80452380D02*
X130104819Y-80452380D01*
X129057200Y-80690475D02*
X129771485Y-80928570D01*
X129771485Y-80928570D02*
X129771485Y-80309523D01*
X88055238Y-60757880D02*
X88388571Y-61234071D01*
X88626666Y-60757880D02*
X88626666Y-61757880D01*
X88626666Y-61757880D02*
X88245714Y-61757880D01*
X88245714Y-61757880D02*
X88150476Y-61710261D01*
X88150476Y-61710261D02*
X88102857Y-61662642D01*
X88102857Y-61662642D02*
X88055238Y-61567404D01*
X88055238Y-61567404D02*
X88055238Y-61424547D01*
X88055238Y-61424547D02*
X88102857Y-61329309D01*
X88102857Y-61329309D02*
X88150476Y-61281690D01*
X88150476Y-61281690D02*
X88245714Y-61234071D01*
X88245714Y-61234071D02*
X88626666Y-61234071D01*
X87769523Y-61757880D02*
X87436190Y-60757880D01*
X87436190Y-60757880D02*
X87102857Y-61757880D01*
X86864761Y-61757880D02*
X86245714Y-61757880D01*
X86245714Y-61757880D02*
X86579047Y-61376928D01*
X86579047Y-61376928D02*
X86436190Y-61376928D01*
X86436190Y-61376928D02*
X86340952Y-61329309D01*
X86340952Y-61329309D02*
X86293333Y-61281690D01*
X86293333Y-61281690D02*
X86245714Y-61186452D01*
X86245714Y-61186452D02*
X86245714Y-60948357D01*
X86245714Y-60948357D02*
X86293333Y-60853119D01*
X86293333Y-60853119D02*
X86340952Y-60805500D01*
X86340952Y-60805500D02*
X86436190Y-60757880D01*
X86436190Y-60757880D02*
X86721904Y-60757880D01*
X86721904Y-60757880D02*
X86817142Y-60805500D01*
X86817142Y-60805500D02*
X86864761Y-60853119D01*
X73492261Y-68725057D02*
X73397023Y-68677438D01*
X73397023Y-68677438D02*
X73301785Y-68582200D01*
X73301785Y-68582200D02*
X73158928Y-68439342D01*
X73158928Y-68439342D02*
X73063690Y-68391723D01*
X73063690Y-68391723D02*
X72968452Y-68391723D01*
X73016071Y-68629819D02*
X72920833Y-68582200D01*
X72920833Y-68582200D02*
X72825595Y-68486961D01*
X72825595Y-68486961D02*
X72777976Y-68296485D01*
X72777976Y-68296485D02*
X72777976Y-67963152D01*
X72777976Y-67963152D02*
X72825595Y-67772676D01*
X72825595Y-67772676D02*
X72920833Y-67677438D01*
X72920833Y-67677438D02*
X73016071Y-67629819D01*
X73016071Y-67629819D02*
X73206547Y-67629819D01*
X73206547Y-67629819D02*
X73301785Y-67677438D01*
X73301785Y-67677438D02*
X73397023Y-67772676D01*
X73397023Y-67772676D02*
X73444642Y-67963152D01*
X73444642Y-67963152D02*
X73444642Y-68296485D01*
X73444642Y-68296485D02*
X73397023Y-68486961D01*
X73397023Y-68486961D02*
X73301785Y-68582200D01*
X73301785Y-68582200D02*
X73206547Y-68629819D01*
X73206547Y-68629819D02*
X73016071Y-68629819D01*
X73920833Y-68629819D02*
X74111309Y-68629819D01*
X74111309Y-68629819D02*
X74206547Y-68582200D01*
X74206547Y-68582200D02*
X74254166Y-68534580D01*
X74254166Y-68534580D02*
X74349404Y-68391723D01*
X74349404Y-68391723D02*
X74397023Y-68201247D01*
X74397023Y-68201247D02*
X74397023Y-67820295D01*
X74397023Y-67820295D02*
X74349404Y-67725057D01*
X74349404Y-67725057D02*
X74301785Y-67677438D01*
X74301785Y-67677438D02*
X74206547Y-67629819D01*
X74206547Y-67629819D02*
X74016071Y-67629819D01*
X74016071Y-67629819D02*
X73920833Y-67677438D01*
X73920833Y-67677438D02*
X73873214Y-67725057D01*
X73873214Y-67725057D02*
X73825595Y-67820295D01*
X73825595Y-67820295D02*
X73825595Y-68058390D01*
X73825595Y-68058390D02*
X73873214Y-68153628D01*
X73873214Y-68153628D02*
X73920833Y-68201247D01*
X73920833Y-68201247D02*
X74016071Y-68248866D01*
X74016071Y-68248866D02*
X74206547Y-68248866D01*
X74206547Y-68248866D02*
X74301785Y-68201247D01*
X74301785Y-68201247D02*
X74349404Y-68153628D01*
X74349404Y-68153628D02*
X74397023Y-68058390D01*
X105904761Y-69050057D02*
X105809523Y-69002438D01*
X105809523Y-69002438D02*
X105714285Y-68907200D01*
X105714285Y-68907200D02*
X105571428Y-68764342D01*
X105571428Y-68764342D02*
X105476190Y-68716723D01*
X105476190Y-68716723D02*
X105380952Y-68716723D01*
X105428571Y-68954819D02*
X105333333Y-68907200D01*
X105333333Y-68907200D02*
X105238095Y-68811961D01*
X105238095Y-68811961D02*
X105190476Y-68621485D01*
X105190476Y-68621485D02*
X105190476Y-68288152D01*
X105190476Y-68288152D02*
X105238095Y-68097676D01*
X105238095Y-68097676D02*
X105333333Y-68002438D01*
X105333333Y-68002438D02*
X105428571Y-67954819D01*
X105428571Y-67954819D02*
X105619047Y-67954819D01*
X105619047Y-67954819D02*
X105714285Y-68002438D01*
X105714285Y-68002438D02*
X105809523Y-68097676D01*
X105809523Y-68097676D02*
X105857142Y-68288152D01*
X105857142Y-68288152D02*
X105857142Y-68621485D01*
X105857142Y-68621485D02*
X105809523Y-68811961D01*
X105809523Y-68811961D02*
X105714285Y-68907200D01*
X105714285Y-68907200D02*
X105619047Y-68954819D01*
X105619047Y-68954819D02*
X105428571Y-68954819D01*
X106190476Y-67954819D02*
X106809523Y-67954819D01*
X106809523Y-67954819D02*
X106476190Y-68335771D01*
X106476190Y-68335771D02*
X106619047Y-68335771D01*
X106619047Y-68335771D02*
X106714285Y-68383390D01*
X106714285Y-68383390D02*
X106761904Y-68431009D01*
X106761904Y-68431009D02*
X106809523Y-68526247D01*
X106809523Y-68526247D02*
X106809523Y-68764342D01*
X106809523Y-68764342D02*
X106761904Y-68859580D01*
X106761904Y-68859580D02*
X106714285Y-68907200D01*
X106714285Y-68907200D02*
X106619047Y-68954819D01*
X106619047Y-68954819D02*
X106333333Y-68954819D01*
X106333333Y-68954819D02*
X106238095Y-68907200D01*
X106238095Y-68907200D02*
X106190476Y-68859580D01*
X115023738Y-60557880D02*
X115357071Y-61034071D01*
X115595166Y-60557880D02*
X115595166Y-61557880D01*
X115595166Y-61557880D02*
X115214214Y-61557880D01*
X115214214Y-61557880D02*
X115118976Y-61510261D01*
X115118976Y-61510261D02*
X115071357Y-61462642D01*
X115071357Y-61462642D02*
X115023738Y-61367404D01*
X115023738Y-61367404D02*
X115023738Y-61224547D01*
X115023738Y-61224547D02*
X115071357Y-61129309D01*
X115071357Y-61129309D02*
X115118976Y-61081690D01*
X115118976Y-61081690D02*
X115214214Y-61034071D01*
X115214214Y-61034071D02*
X115595166Y-61034071D01*
X114738023Y-61557880D02*
X114404690Y-60557880D01*
X114404690Y-60557880D02*
X114071357Y-61557880D01*
X113214214Y-60557880D02*
X113785642Y-60557880D01*
X113499928Y-60557880D02*
X113499928Y-61557880D01*
X113499928Y-61557880D02*
X113595166Y-61415023D01*
X113595166Y-61415023D02*
X113690404Y-61319785D01*
X113690404Y-61319785D02*
X113785642Y-61272166D01*
X108333333Y-67954819D02*
X108000000Y-67478628D01*
X107761905Y-67954819D02*
X107761905Y-66954819D01*
X107761905Y-66954819D02*
X108142857Y-66954819D01*
X108142857Y-66954819D02*
X108238095Y-67002438D01*
X108238095Y-67002438D02*
X108285714Y-67050057D01*
X108285714Y-67050057D02*
X108333333Y-67145295D01*
X108333333Y-67145295D02*
X108333333Y-67288152D01*
X108333333Y-67288152D02*
X108285714Y-67383390D01*
X108285714Y-67383390D02*
X108238095Y-67431009D01*
X108238095Y-67431009D02*
X108142857Y-67478628D01*
X108142857Y-67478628D02*
X107761905Y-67478628D01*
X108714286Y-67050057D02*
X108761905Y-67002438D01*
X108761905Y-67002438D02*
X108857143Y-66954819D01*
X108857143Y-66954819D02*
X109095238Y-66954819D01*
X109095238Y-66954819D02*
X109190476Y-67002438D01*
X109190476Y-67002438D02*
X109238095Y-67050057D01*
X109238095Y-67050057D02*
X109285714Y-67145295D01*
X109285714Y-67145295D02*
X109285714Y-67240533D01*
X109285714Y-67240533D02*
X109238095Y-67383390D01*
X109238095Y-67383390D02*
X108666667Y-67954819D01*
X108666667Y-67954819D02*
X109285714Y-67954819D01*
X69654819Y-78959523D02*
X70369104Y-78959523D01*
X70369104Y-78959523D02*
X70511961Y-79007142D01*
X70511961Y-79007142D02*
X70607200Y-79102380D01*
X70607200Y-79102380D02*
X70654819Y-79245237D01*
X70654819Y-79245237D02*
X70654819Y-79340475D01*
X70654819Y-78483332D02*
X69654819Y-78483332D01*
X69654819Y-78483332D02*
X69654819Y-78102380D01*
X69654819Y-78102380D02*
X69702438Y-78007142D01*
X69702438Y-78007142D02*
X69750057Y-77959523D01*
X69750057Y-77959523D02*
X69845295Y-77911904D01*
X69845295Y-77911904D02*
X69988152Y-77911904D01*
X69988152Y-77911904D02*
X70083390Y-77959523D01*
X70083390Y-77959523D02*
X70131009Y-78007142D01*
X70131009Y-78007142D02*
X70178628Y-78102380D01*
X70178628Y-78102380D02*
X70178628Y-78483332D01*
X70654819Y-76959523D02*
X70654819Y-77530951D01*
X70654819Y-77245237D02*
X69654819Y-77245237D01*
X69654819Y-77245237D02*
X69797676Y-77340475D01*
X69797676Y-77340475D02*
X69892914Y-77435713D01*
X69892914Y-77435713D02*
X69940533Y-77530951D01*
X70083390Y-76388094D02*
X70035771Y-76483332D01*
X70035771Y-76483332D02*
X69988152Y-76530951D01*
X69988152Y-76530951D02*
X69892914Y-76578570D01*
X69892914Y-76578570D02*
X69845295Y-76578570D01*
X69845295Y-76578570D02*
X69750057Y-76530951D01*
X69750057Y-76530951D02*
X69702438Y-76483332D01*
X69702438Y-76483332D02*
X69654819Y-76388094D01*
X69654819Y-76388094D02*
X69654819Y-76197618D01*
X69654819Y-76197618D02*
X69702438Y-76102380D01*
X69702438Y-76102380D02*
X69750057Y-76054761D01*
X69750057Y-76054761D02*
X69845295Y-76007142D01*
X69845295Y-76007142D02*
X69892914Y-76007142D01*
X69892914Y-76007142D02*
X69988152Y-76054761D01*
X69988152Y-76054761D02*
X70035771Y-76102380D01*
X70035771Y-76102380D02*
X70083390Y-76197618D01*
X70083390Y-76197618D02*
X70083390Y-76388094D01*
X70083390Y-76388094D02*
X70131009Y-76483332D01*
X70131009Y-76483332D02*
X70178628Y-76530951D01*
X70178628Y-76530951D02*
X70273866Y-76578570D01*
X70273866Y-76578570D02*
X70464342Y-76578570D01*
X70464342Y-76578570D02*
X70559580Y-76530951D01*
X70559580Y-76530951D02*
X70607200Y-76483332D01*
X70607200Y-76483332D02*
X70654819Y-76388094D01*
X70654819Y-76388094D02*
X70654819Y-76197618D01*
X70654819Y-76197618D02*
X70607200Y-76102380D01*
X70607200Y-76102380D02*
X70559580Y-76054761D01*
X70559580Y-76054761D02*
X70464342Y-76007142D01*
X70464342Y-76007142D02*
X70273866Y-76007142D01*
X70273866Y-76007142D02*
X70178628Y-76054761D01*
X70178628Y-76054761D02*
X70131009Y-76102380D01*
X70131009Y-76102380D02*
X70083390Y-76197618D01*
X109024819Y-76642857D02*
X108548628Y-76976190D01*
X109024819Y-77214285D02*
X108024819Y-77214285D01*
X108024819Y-77214285D02*
X108024819Y-76833333D01*
X108024819Y-76833333D02*
X108072438Y-76738095D01*
X108072438Y-76738095D02*
X108120057Y-76690476D01*
X108120057Y-76690476D02*
X108215295Y-76642857D01*
X108215295Y-76642857D02*
X108358152Y-76642857D01*
X108358152Y-76642857D02*
X108453390Y-76690476D01*
X108453390Y-76690476D02*
X108501009Y-76738095D01*
X108501009Y-76738095D02*
X108548628Y-76833333D01*
X108548628Y-76833333D02*
X108548628Y-77214285D01*
X109024819Y-75690476D02*
X109024819Y-76261904D01*
X109024819Y-75976190D02*
X108024819Y-75976190D01*
X108024819Y-75976190D02*
X108167676Y-76071428D01*
X108167676Y-76071428D02*
X108262914Y-76166666D01*
X108262914Y-76166666D02*
X108310533Y-76261904D01*
X108024819Y-75071428D02*
X108024819Y-74976190D01*
X108024819Y-74976190D02*
X108072438Y-74880952D01*
X108072438Y-74880952D02*
X108120057Y-74833333D01*
X108120057Y-74833333D02*
X108215295Y-74785714D01*
X108215295Y-74785714D02*
X108405771Y-74738095D01*
X108405771Y-74738095D02*
X108643866Y-74738095D01*
X108643866Y-74738095D02*
X108834342Y-74785714D01*
X108834342Y-74785714D02*
X108929580Y-74833333D01*
X108929580Y-74833333D02*
X108977200Y-74880952D01*
X108977200Y-74880952D02*
X109024819Y-74976190D01*
X109024819Y-74976190D02*
X109024819Y-75071428D01*
X109024819Y-75071428D02*
X108977200Y-75166666D01*
X108977200Y-75166666D02*
X108929580Y-75214285D01*
X108929580Y-75214285D02*
X108834342Y-75261904D01*
X108834342Y-75261904D02*
X108643866Y-75309523D01*
X108643866Y-75309523D02*
X108405771Y-75309523D01*
X108405771Y-75309523D02*
X108215295Y-75261904D01*
X108215295Y-75261904D02*
X108120057Y-75214285D01*
X108120057Y-75214285D02*
X108072438Y-75166666D01*
X108072438Y-75166666D02*
X108024819Y-75071428D01*
D11*
%TO.C,TP5*%
X84200000Y-50000000D02*
G75*
G02*
X82800000Y-50000000I-700000J0D01*
G01*
X82800000Y-50000000D02*
G75*
G02*
X84200000Y-50000000I700000J0D01*
G01*
%TO.C,JP16*%
X126850000Y-76600000D02*
X128850000Y-76600000D01*
X126850000Y-79400000D02*
X126850000Y-76600000D01*
X128850000Y-76600000D02*
X128850000Y-79400000D01*
X128850000Y-79400000D02*
X126850000Y-79400000D01*
%TO.C,JP1*%
X121500000Y-56950000D02*
X123500000Y-56950000D01*
X121500000Y-59750000D02*
X121500000Y-56950000D01*
X123500000Y-56950000D02*
X123500000Y-59750000D01*
X123500000Y-59750000D02*
X121500000Y-59750000D01*
%TO.C,Q5*%
X88310000Y-73700000D02*
X92160000Y-73700000D01*
X88310000Y-73700000D02*
G75*
G02*
X92198611Y-73690122I1940000J1700000D01*
G01*
%TO.C,JP9*%
X78450000Y-45500000D02*
X81250000Y-45500000D01*
X78450000Y-47500000D02*
X78450000Y-45500000D01*
X81250000Y-45500000D02*
X81250000Y-47500000D01*
X81250000Y-47500000D02*
X78450000Y-47500000D01*
%TO.C,JP5*%
X78500000Y-49600000D02*
X80500000Y-49600000D01*
X78500000Y-52400000D02*
X78500000Y-49600000D01*
X80500000Y-49600000D02*
X80500000Y-52400000D01*
X80500000Y-52400000D02*
X78500000Y-52400000D01*
%TO.C,JP17*%
X71000000Y-80100000D02*
X73000000Y-80100000D01*
X71000000Y-82900000D02*
X71000000Y-80100000D01*
X73000000Y-80100000D02*
X73000000Y-82900000D01*
X73000000Y-82900000D02*
X71000000Y-82900000D01*
%TO.C,TP1*%
X119700000Y-49000000D02*
G75*
G02*
X118300000Y-49000000I-700000J0D01*
G01*
X118300000Y-49000000D02*
G75*
G02*
X119700000Y-49000000I700000J0D01*
G01*
%TO.C,R3*%
X100912258Y-53977500D02*
X100437742Y-53977500D01*
X100912258Y-55022500D02*
X100437742Y-55022500D01*
D12*
%TO.C,D4*%
X102871800Y-45500000D02*
X102871800Y-44730000D01*
X102871800Y-48270000D02*
X102871800Y-47500000D01*
X102871801Y-44730000D02*
G75*
G02*
X102871801Y-48270000I2359990J-1770000D01*
G01*
D13*
X108924978Y-46480000D02*
G75*
G02*
X108638622Y-46480000I-143178J0D01*
G01*
X108638622Y-46480000D02*
G75*
G02*
X108924978Y-46480000I143178J0D01*
G01*
D11*
%TO.C,Q1*%
X115310000Y-73700000D02*
X119160000Y-73700000D01*
X115310000Y-73700000D02*
G75*
G02*
X119198611Y-73690122I1940000J1700000D01*
G01*
%TO.C,JP4*%
X102750000Y-53500000D02*
X105550000Y-53500000D01*
X102750000Y-55500000D02*
X102750000Y-53500000D01*
X105550000Y-53500000D02*
X105550000Y-55500000D01*
X105550000Y-55500000D02*
X102750000Y-55500000D01*
%TO.C,R15*%
X91477500Y-75762742D02*
X91477500Y-76237258D01*
X92522500Y-75762742D02*
X92522500Y-76237258D01*
D12*
%TO.C,D6*%
X71090900Y-60580000D02*
X70320900Y-60580000D01*
X73860900Y-60580000D02*
X73090900Y-60580000D01*
X70320900Y-60579999D02*
G75*
G02*
X73860900Y-60579999I1770000J2359990D01*
G01*
D13*
X72214078Y-54670000D02*
G75*
G02*
X71927722Y-54670000I-143178J0D01*
G01*
X71927722Y-54670000D02*
G75*
G02*
X72214078Y-54670000I143178J0D01*
G01*
D11*
%TO.C,R7*%
X118477500Y-76237258D02*
X118477500Y-75762742D01*
X119522500Y-76237258D02*
X119522500Y-75762742D01*
D12*
%TO.C,Q7*%
X109105000Y-73630000D02*
X113295000Y-73630000D01*
X108787000Y-70864100D02*
G75*
G02*
X113613000Y-70864100I2413000J-1135909D01*
G01*
X109105001Y-73630000D02*
G75*
G02*
X108786501Y-73135900I2002617J1640604D01*
G01*
X113624699Y-73111800D02*
G75*
G02*
X113295000Y-73630000I-2336199J1122400D01*
G01*
D11*
%TO.C,R5*%
X78977500Y-54262742D02*
X78977500Y-54737258D01*
X80022500Y-54262742D02*
X80022500Y-54737258D01*
%TO.C,TP10*%
X90200000Y-49000000D02*
G75*
G02*
X88800000Y-49000000I-700000J0D01*
G01*
X88800000Y-49000000D02*
G75*
G02*
X90200000Y-49000000I700000J0D01*
G01*
D12*
%TO.C,Q2*%
X95905000Y-73630000D02*
X100095000Y-73630000D01*
X95587000Y-70864100D02*
G75*
G02*
X100413000Y-70864100I2413000J-1135909D01*
G01*
X95905001Y-73630000D02*
G75*
G02*
X95586501Y-73135900I2002617J1640604D01*
G01*
X100424699Y-73111800D02*
G75*
G02*
X100095000Y-73630000I-2336199J1122400D01*
G01*
D11*
%TO.C,R14*%
X104977500Y-76237258D02*
X104977500Y-75762742D01*
X106022500Y-76237258D02*
X106022500Y-75762742D01*
%TO.C,R16*%
X86477500Y-76562258D02*
X86477500Y-76087742D01*
X87522500Y-76562258D02*
X87522500Y-76087742D01*
%TO.C,TP8*%
X98200000Y-68000000D02*
G75*
G02*
X96800000Y-68000000I-700000J0D01*
G01*
X96800000Y-68000000D02*
G75*
G02*
X98200000Y-68000000I700000J0D01*
G01*
%TO.C,JP2*%
X121000000Y-49100000D02*
X123000000Y-49100000D01*
X121000000Y-51900000D02*
X121000000Y-49100000D01*
X123000000Y-49100000D02*
X123000000Y-51900000D01*
X123000000Y-51900000D02*
X121000000Y-51900000D01*
%TO.C,R9*%
X112477500Y-76237258D02*
X112477500Y-75762742D01*
X113522500Y-76237258D02*
X113522500Y-75762742D01*
%TO.C,R6*%
X90237258Y-67477500D02*
X89762742Y-67477500D01*
X90237258Y-68522500D02*
X89762742Y-68522500D01*
D12*
%TO.C,D2*%
X128230000Y-56380000D02*
X129000000Y-56380000D01*
X131000000Y-56380000D02*
X131770000Y-56380000D01*
X131770000Y-56380001D02*
G75*
G02*
X128230000Y-56380001I-1770000J-2359990D01*
G01*
D13*
X130163178Y-62290000D02*
G75*
G02*
X129876822Y-62290000I-143178J0D01*
G01*
X129876822Y-62290000D02*
G75*
G02*
X130163178Y-62290000I143178J0D01*
G01*
D11*
%TO.C,Q6*%
X128862500Y-62940000D02*
X128062500Y-62940000D01*
X128862500Y-62940000D02*
X129662500Y-62940000D01*
X128862500Y-66060000D02*
X128062500Y-66060000D01*
X128862500Y-66060000D02*
X129662500Y-66060000D01*
X127562500Y-62990000D02*
X127322500Y-62660000D01*
X127802500Y-62660000D01*
X127562500Y-62990000D01*
G36*
X127562500Y-62990000D02*
G01*
X127322500Y-62660000D01*
X127802500Y-62660000D01*
X127562500Y-62990000D01*
G37*
%TO.C,TP7*%
X114700000Y-67500000D02*
G75*
G02*
X113300000Y-67500000I-700000J0D01*
G01*
X113300000Y-67500000D02*
G75*
G02*
X114700000Y-67500000I700000J0D01*
G01*
%TO.C,R13*%
X98977500Y-76237258D02*
X98977500Y-75762742D01*
X100022500Y-76237258D02*
X100022500Y-75762742D01*
%TO.C,R12*%
X101977500Y-76237258D02*
X101977500Y-75762742D01*
X103022500Y-76237258D02*
X103022500Y-75762742D01*
%TO.C,R18*%
X83477500Y-76412258D02*
X83477500Y-75937742D01*
X84522500Y-76412258D02*
X84522500Y-75937742D01*
%TO.C,D1*%
X127080000Y-49960000D02*
X127080000Y-49960000D01*
X127080000Y-49960000D02*
X127210000Y-49960000D01*
X127080000Y-52500000D02*
X127080000Y-52500000D01*
X127080000Y-52500000D02*
X127210000Y-52500000D01*
X127210000Y-49270000D02*
X128330000Y-49270000D01*
X127210000Y-49670000D02*
X127210000Y-49270000D01*
X127210000Y-49670000D02*
X131070000Y-49670000D01*
X127210000Y-49960000D02*
X127080000Y-49960000D01*
X127210000Y-49960000D02*
X127210000Y-49960000D01*
X127210000Y-52500000D02*
X127080000Y-52500000D01*
X127210000Y-52500000D02*
X127210000Y-52500000D01*
X127210000Y-52790000D02*
X127210000Y-49670000D01*
X127210000Y-52790000D02*
X131070000Y-52790000D01*
X128330000Y-49270000D02*
X128330000Y-49670000D01*
X128330000Y-49670000D02*
X127210000Y-49670000D01*
X131070000Y-49670000D02*
G75*
G02*
X131070000Y-52790000I0J-1560000D01*
G01*
%TO.C,D5*%
X73495000Y-53080000D02*
X74615000Y-53080000D01*
X73495000Y-53480000D02*
X73495000Y-53080000D01*
X74615000Y-49960000D02*
X70755000Y-49960000D01*
X74615000Y-49960000D02*
X74615000Y-53080000D01*
X74615000Y-50250000D02*
X74615000Y-50250000D01*
X74615000Y-50250000D02*
X74745000Y-50250000D01*
X74615000Y-52790000D02*
X74615000Y-52790000D01*
X74615000Y-52790000D02*
X74745000Y-52790000D01*
X74615000Y-53080000D02*
X70755000Y-53080000D01*
X74615000Y-53080000D02*
X74615000Y-53480000D01*
X74615000Y-53480000D02*
X73495000Y-53480000D01*
X74745000Y-50250000D02*
X74615000Y-50250000D01*
X74745000Y-50250000D02*
X74745000Y-50250000D01*
X74745000Y-52790000D02*
X74615000Y-52790000D01*
X74745000Y-52790000D02*
X74745000Y-52790000D01*
X70755000Y-53080000D02*
G75*
G02*
X70755000Y-49960000I0J1560000D01*
G01*
%TO.C,JP12*%
X88450000Y-53000000D02*
X91250000Y-53000000D01*
X88450000Y-55000000D02*
X88450000Y-53000000D01*
X91250000Y-53000000D02*
X91250000Y-55000000D01*
X91250000Y-55000000D02*
X88450000Y-55000000D01*
%TO.C,JP11*%
X79500000Y-75450000D02*
X81500000Y-75450000D01*
X79500000Y-78250000D02*
X79500000Y-75450000D01*
X81500000Y-75450000D02*
X81500000Y-78250000D01*
X81500000Y-78250000D02*
X79500000Y-78250000D01*
%TO.C,JP8*%
X101000000Y-50100000D02*
X103000000Y-50100000D01*
X101000000Y-52900000D02*
X101000000Y-50100000D01*
X103000000Y-50100000D02*
X103000000Y-52900000D01*
X103000000Y-52900000D02*
X101000000Y-52900000D01*
%TO.C,TP9*%
X87200000Y-68500000D02*
G75*
G02*
X85800000Y-68500000I-700000J0D01*
G01*
X85800000Y-68500000D02*
G75*
G02*
X87200000Y-68500000I700000J0D01*
G01*
%TO.C,JP13*%
X122000000Y-80600000D02*
X124000000Y-80600000D01*
X122000000Y-83400000D02*
X122000000Y-80600000D01*
X124000000Y-80600000D02*
X124000000Y-83400000D01*
X124000000Y-83400000D02*
X122000000Y-83400000D01*
%TO.C,JP3*%
X95950000Y-53500000D02*
X98750000Y-53500000D01*
X95950000Y-55500000D02*
X95950000Y-53500000D01*
X98750000Y-53500000D02*
X98750000Y-55500000D01*
X98750000Y-55500000D02*
X95950000Y-55500000D01*
D12*
%TO.C,Q4*%
X82105000Y-73630000D02*
X86295000Y-73630000D01*
X81787000Y-70864100D02*
G75*
G02*
X86613000Y-70864100I2413000J-1135909D01*
G01*
X82105001Y-73630000D02*
G75*
G02*
X81786501Y-73135900I2002617J1640604D01*
G01*
X86624699Y-73111800D02*
G75*
G02*
X86295000Y-73630000I-2336199J1122400D01*
G01*
D11*
%TO.C,D3*%
X96020000Y-47670000D02*
X96420000Y-47670000D01*
X96020000Y-48790000D02*
X96020000Y-47670000D01*
X96420000Y-47670000D02*
X96420000Y-48790000D01*
X96420000Y-48790000D02*
X96020000Y-48790000D01*
X96420000Y-48790000D02*
X96420000Y-44930000D01*
X96710000Y-48790000D02*
X96710000Y-48790000D01*
X96710000Y-48790000D02*
X96710000Y-48920000D01*
X96710000Y-48920000D02*
X96710000Y-48790000D01*
X96710000Y-48920000D02*
X96710000Y-48920000D01*
X99250000Y-48790000D02*
X99250000Y-48790000D01*
X99250000Y-48790000D02*
X99250000Y-48920000D01*
X99250000Y-48920000D02*
X99250000Y-48790000D01*
X99250000Y-48920000D02*
X99250000Y-48920000D01*
X99540000Y-48790000D02*
X96420000Y-48790000D01*
X99540000Y-48790000D02*
X99540000Y-44930000D01*
X96420000Y-44930000D02*
G75*
G02*
X99540000Y-44930000I1560000J0D01*
G01*
%TO.C,R8*%
X115477500Y-76237258D02*
X115477500Y-75762742D01*
X116522500Y-76237258D02*
X116522500Y-75762742D01*
%TO.C,R1*%
X121477500Y-54737258D02*
X121477500Y-54262742D01*
X122522500Y-54737258D02*
X122522500Y-54262742D01*
%TO.C,R11*%
X95977500Y-76237258D02*
X95977500Y-75762742D01*
X97022500Y-76237258D02*
X97022500Y-75762742D01*
D14*
%TO.C,RV2*%
X96070500Y-56110500D02*
X105849500Y-56110500D01*
X96070500Y-65889500D02*
X96070500Y-56110500D01*
X105849500Y-56110500D02*
X105849500Y-65889500D01*
X105849500Y-65889500D02*
X96070500Y-65889500D01*
X107119500Y-58447300D02*
G75*
G02*
X106865500Y-58447300I-127000J0D01*
G01*
X106865500Y-58447300D02*
G75*
G02*
X107119500Y-58447300I127000J0D01*
G01*
D11*
%TO.C,JP7*%
X115500000Y-49750000D02*
X117500000Y-49750000D01*
X115500000Y-52550000D02*
X115500000Y-49750000D01*
X117500000Y-49750000D02*
X117500000Y-52550000D01*
X117500000Y-52550000D02*
X115500000Y-52550000D01*
%TO.C,Q8*%
X109940000Y-48137500D02*
X109940000Y-47337500D01*
X109940000Y-48137500D02*
X109940000Y-48937500D01*
X113060000Y-48137500D02*
X113060000Y-47337500D01*
X113060000Y-48137500D02*
X113060000Y-48937500D01*
X109990000Y-49437500D02*
X109660000Y-49677500D01*
X109660000Y-49197500D01*
X109990000Y-49437500D01*
G36*
X109990000Y-49437500D02*
G01*
X109660000Y-49677500D01*
X109660000Y-49197500D01*
X109990000Y-49437500D01*
G37*
%TO.C,JP6*%
X79000000Y-56750000D02*
X81000000Y-56750000D01*
X79000000Y-59550000D02*
X79000000Y-56750000D01*
X81000000Y-56750000D02*
X81000000Y-59550000D01*
X81000000Y-59550000D02*
X79000000Y-59550000D01*
%TO.C,TP3*%
X94200000Y-54000000D02*
G75*
G02*
X92800000Y-54000000I-700000J0D01*
G01*
X92800000Y-54000000D02*
G75*
G02*
X94200000Y-54000000I700000J0D01*
G01*
%TO.C,JP10*%
X122000000Y-74600000D02*
X124000000Y-74600000D01*
X122000000Y-77400000D02*
X122000000Y-74600000D01*
X124000000Y-74600000D02*
X124000000Y-77400000D01*
X124000000Y-77400000D02*
X122000000Y-77400000D01*
%TO.C,TP2*%
X119700000Y-52500000D02*
G75*
G02*
X118300000Y-52500000I-700000J0D01*
G01*
X118300000Y-52500000D02*
G75*
G02*
X119700000Y-52500000I700000J0D01*
G01*
%TO.C,TP4*%
X107700000Y-54500000D02*
G75*
G02*
X106300000Y-54500000I-700000J0D01*
G01*
X106300000Y-54500000D02*
G75*
G02*
X107700000Y-54500000I700000J0D01*
G01*
%TO.C,R4*%
X100762742Y-67477500D02*
X101237258Y-67477500D01*
X100762742Y-68522500D02*
X101237258Y-68522500D01*
%TO.C,JP15*%
X75150000Y-80100000D02*
X77150000Y-80100000D01*
X75150000Y-82900000D02*
X75150000Y-80100000D01*
X77150000Y-80100000D02*
X77150000Y-82900000D01*
X77150000Y-82900000D02*
X75150000Y-82900000D01*
%TO.C,R17*%
X89477500Y-76412258D02*
X89477500Y-75937742D01*
X90522500Y-76412258D02*
X90522500Y-75937742D01*
%TO.C,TP6*%
X84200000Y-53500000D02*
G75*
G02*
X82800000Y-53500000I-700000J0D01*
G01*
X82800000Y-53500000D02*
G75*
G02*
X84200000Y-53500000I700000J0D01*
G01*
%TO.C,JP14*%
X126850000Y-80600000D02*
X128850000Y-80600000D01*
X126850000Y-83400000D02*
X126850000Y-80600000D01*
X128850000Y-80600000D02*
X128850000Y-83400000D01*
X128850000Y-83400000D02*
X126850000Y-83400000D01*
D14*
%TO.C,RV3*%
X82570500Y-56323200D02*
X92349500Y-56323200D01*
X82570500Y-66102200D02*
X82570500Y-56323200D01*
X92349500Y-56323200D02*
X92349500Y-66102200D01*
X92349500Y-66102200D02*
X82570500Y-66102200D01*
X93619500Y-58660000D02*
G75*
G02*
X93365500Y-58660000I-127000J0D01*
G01*
X93365500Y-58660000D02*
G75*
G02*
X93619500Y-58660000I127000J0D01*
G01*
D11*
%TO.C,Q9*%
X73587500Y-64215000D02*
X72787500Y-64215000D01*
X73587500Y-64215000D02*
X74387500Y-64215000D01*
X73587500Y-67335000D02*
X72787500Y-67335000D01*
X73587500Y-67335000D02*
X74387500Y-67335000D01*
X75127500Y-67615000D02*
X74647500Y-67615000D01*
X74887500Y-67285000D01*
X75127500Y-67615000D01*
G36*
X75127500Y-67615000D02*
G01*
X74647500Y-67615000D01*
X74887500Y-67285000D01*
X75127500Y-67615000D01*
G37*
%TO.C,Q3*%
X101810000Y-73700000D02*
X105660000Y-73700000D01*
X101810000Y-73700000D02*
G75*
G02*
X105698611Y-73690122I1940000J1700000D01*
G01*
D14*
%TO.C,RV1*%
X109539000Y-56123200D02*
X119318000Y-56123200D01*
X109539000Y-65902200D02*
X109539000Y-56123200D01*
X119318000Y-56123200D02*
X119318000Y-65902200D01*
X119318000Y-65902200D02*
X109539000Y-65902200D01*
X120588000Y-58460000D02*
G75*
G02*
X120334000Y-58460000I-127000J0D01*
G01*
X120334000Y-58460000D02*
G75*
G02*
X120588000Y-58460000I127000J0D01*
G01*
D11*
%TO.C,R2*%
X110731242Y-66977500D02*
X111205758Y-66977500D01*
X110731242Y-68022500D02*
X111205758Y-68022500D01*
%TO.C,JP18*%
X71000000Y-76250000D02*
X73000000Y-76250000D01*
X71000000Y-79050000D02*
X71000000Y-76250000D01*
X73000000Y-76250000D02*
X73000000Y-79050000D01*
X73000000Y-79050000D02*
X71000000Y-79050000D01*
%TO.C,R10*%
X109477500Y-76237258D02*
X109477500Y-75762742D01*
X110522500Y-76237258D02*
X110522500Y-75762742D01*
%TD*%
%LPC*%
D15*
%TO.C,D4*%
X104451800Y-46500000D02*
G75*
G02*
X103451800Y-46500000I-500000J0D01*
G01*
X103451800Y-46500000D02*
G75*
G02*
X104451800Y-46500000I500000J0D01*
G01*
X106991800Y-46500000D02*
G75*
G02*
X105991800Y-46500000I-500000J0D01*
G01*
X105991800Y-46500000D02*
G75*
G02*
X106991800Y-46500000I500000J0D01*
G01*
%TO.C,D6*%
X72590900Y-56960000D02*
G75*
G02*
X71590900Y-56960000I-500000J0D01*
G01*
X71590900Y-56960000D02*
G75*
G02*
X72590900Y-56960000I500000J0D01*
G01*
X72590900Y-59500000D02*
G75*
G02*
X71590900Y-59500000I-500000J0D01*
G01*
X71590900Y-59500000D02*
G75*
G02*
X72590900Y-59500000I500000J0D01*
G01*
%TO.C,D2*%
X130500000Y-57460000D02*
G75*
G02*
X129500000Y-57460000I-500000J0D01*
G01*
X129500000Y-57460000D02*
G75*
G02*
X130500000Y-57460000I500000J0D01*
G01*
X130500000Y-60000000D02*
G75*
G02*
X129500000Y-60000000I-500000J0D01*
G01*
X129500000Y-60000000D02*
G75*
G02*
X130500000Y-60000000I500000J0D01*
G01*
%TD*%
D16*
%TO.C,TP5*%
X83500000Y-50000000D03*
%TD*%
D17*
%TO.C,JP16*%
X127850000Y-77350000D03*
X127850000Y-78650000D03*
%TD*%
%TO.C,JP1*%
X122500000Y-59000000D03*
X122500000Y-57700000D03*
%TD*%
D18*
%TO.C,Q5*%
X88960000Y-72000000D03*
D19*
X90240000Y-70730000D03*
X91500000Y-72000000D03*
%TD*%
D20*
%TO.C,JP9*%
X79200000Y-46500000D03*
X80500000Y-46500000D03*
%TD*%
D17*
%TO.C,JP5*%
X79500000Y-51650000D03*
X79500000Y-50350000D03*
%TD*%
%TO.C,JP17*%
X72000000Y-80850000D03*
X72000000Y-82150000D03*
%TD*%
D16*
%TO.C,TP1*%
X119000000Y-49000000D03*
%TD*%
D21*
%TO.C,R3*%
X101500000Y-54500000D03*
X99850000Y-54500000D03*
%TD*%
D18*
%TO.C,Q1*%
X115960000Y-72000000D03*
D19*
X117240000Y-70730000D03*
X118500000Y-72000000D03*
%TD*%
D20*
%TO.C,JP4*%
X103500000Y-54500000D03*
X104800000Y-54500000D03*
%TD*%
D22*
%TO.C,R15*%
X92000000Y-75175000D03*
X92000000Y-76825000D03*
%TD*%
D23*
%TO.C,R7*%
X119000000Y-76825000D03*
X119000000Y-75175000D03*
%TD*%
D24*
%TO.C,Q7*%
X111200000Y-72000000D03*
X113000000Y-72000000D03*
X109400000Y-72000000D03*
%TD*%
D22*
%TO.C,R5*%
X79500000Y-53675000D03*
X79500000Y-55325000D03*
%TD*%
D16*
%TO.C,TP10*%
X89500000Y-49000000D03*
%TD*%
D24*
%TO.C,Q2*%
X98000000Y-72000000D03*
X99800000Y-72000000D03*
X96200000Y-72000000D03*
%TD*%
D23*
%TO.C,R14*%
X105500000Y-76825000D03*
X105500000Y-75175000D03*
%TD*%
%TO.C,R16*%
X87000000Y-77150000D03*
X87000000Y-75500000D03*
%TD*%
D16*
%TO.C,TP8*%
X97500000Y-68000000D03*
%TD*%
D17*
%TO.C,JP2*%
X122000000Y-51150000D03*
X122000000Y-49850000D03*
%TD*%
D23*
%TO.C,R9*%
X113000000Y-76825000D03*
X113000000Y-75175000D03*
%TD*%
D21*
%TO.C,R6*%
X90825000Y-68000000D03*
X89175000Y-68000000D03*
%TD*%
D25*
%TO.C,Q6*%
X127725000Y-63550000D03*
X127725000Y-65450000D03*
X130000000Y-64500000D03*
%TD*%
D16*
%TO.C,TP7*%
X114000000Y-67500000D03*
%TD*%
D23*
%TO.C,R13*%
X99500000Y-76825000D03*
X99500000Y-75175000D03*
%TD*%
%TO.C,R12*%
X102500000Y-76825000D03*
X102500000Y-75175000D03*
%TD*%
%TO.C,R18*%
X84000000Y-77000000D03*
X84000000Y-75350000D03*
%TD*%
D26*
%TO.C,D1*%
X126000000Y-52500000D03*
D27*
X126000000Y-49960000D03*
%TD*%
D26*
%TO.C,D5*%
X75825000Y-50250000D03*
D27*
X75825000Y-52790000D03*
%TD*%
D20*
%TO.C,JP12*%
X89200000Y-54000000D03*
X90500000Y-54000000D03*
%TD*%
D17*
%TO.C,JP11*%
X80500000Y-76200000D03*
X80500000Y-77500000D03*
%TD*%
%TO.C,JP8*%
X102000000Y-50850000D03*
X102000000Y-52150000D03*
%TD*%
D16*
%TO.C,TP9*%
X86500000Y-68500000D03*
%TD*%
D17*
%TO.C,JP13*%
X123000000Y-81350000D03*
X123000000Y-82650000D03*
%TD*%
D20*
%TO.C,JP3*%
X98000000Y-54500000D03*
X96700000Y-54500000D03*
%TD*%
D24*
%TO.C,Q4*%
X84200000Y-72000000D03*
X86000000Y-72000000D03*
X82400000Y-72000000D03*
%TD*%
D26*
%TO.C,D3*%
X99250000Y-50000000D03*
D27*
X96710000Y-50000000D03*
%TD*%
D23*
%TO.C,R8*%
X116000000Y-76825000D03*
X116000000Y-75175000D03*
%TD*%
%TO.C,R1*%
X122000000Y-55325000D03*
X122000000Y-53675000D03*
%TD*%
%TO.C,R11*%
X96500000Y-76825000D03*
X96500000Y-75175000D03*
%TD*%
D28*
%TO.C,RV2*%
X103500000Y-60987300D03*
D29*
X100960000Y-58447300D03*
X98420000Y-60987300D03*
%TD*%
D17*
%TO.C,JP7*%
X116500000Y-50500000D03*
X116500000Y-51800000D03*
%TD*%
D30*
%TO.C,Q8*%
X110550000Y-49275000D03*
X112450000Y-49275000D03*
X111500000Y-47000000D03*
%TD*%
D17*
%TO.C,JP6*%
X80000000Y-57500000D03*
X80000000Y-58800000D03*
%TD*%
D16*
%TO.C,TP3*%
X93500000Y-54000000D03*
%TD*%
D17*
%TO.C,JP10*%
X123000000Y-75350000D03*
X123000000Y-76650000D03*
%TD*%
D16*
%TO.C,TP2*%
X119000000Y-52500000D03*
%TD*%
%TO.C,TP4*%
X107000000Y-54500000D03*
%TD*%
D31*
%TO.C,R4*%
X100175000Y-68000000D03*
X101825000Y-68000000D03*
%TD*%
D17*
%TO.C,JP15*%
X76150000Y-80850000D03*
X76150000Y-82150000D03*
%TD*%
D23*
%TO.C,R17*%
X90000000Y-77000000D03*
X90000000Y-75350000D03*
%TD*%
D16*
%TO.C,TP6*%
X83500000Y-53500000D03*
%TD*%
D17*
%TO.C,JP14*%
X127850000Y-81350000D03*
X127850000Y-82650000D03*
%TD*%
D28*
%TO.C,RV3*%
X90000000Y-61200000D03*
D29*
X87460000Y-58660000D03*
X84920000Y-61200000D03*
%TD*%
D32*
%TO.C,Q9*%
X74725000Y-66725000D03*
X74725000Y-64825000D03*
X72450000Y-65775000D03*
%TD*%
D18*
%TO.C,Q3*%
X102460000Y-72000000D03*
D19*
X103740000Y-70730000D03*
X105000000Y-72000000D03*
%TD*%
D28*
%TO.C,RV1*%
X116968500Y-61000000D03*
D29*
X114428500Y-58460000D03*
X111888500Y-61000000D03*
%TD*%
D31*
%TO.C,R2*%
X110143500Y-67500000D03*
X111793500Y-67500000D03*
%TD*%
D17*
%TO.C,JP18*%
X72000000Y-78300000D03*
X72000000Y-77000000D03*
%TD*%
D23*
%TO.C,R10*%
X110000000Y-76825000D03*
X110000000Y-75175000D03*
%TD*%
D33*
%TO.C,J1*%
X118000000Y-82500000D03*
D34*
X118000000Y-79960000D03*
X115460000Y-82500000D03*
X115460000Y-79960000D03*
X112920000Y-82500000D03*
X112920000Y-79960000D03*
X110380000Y-82500000D03*
X110380000Y-79960000D03*
X107840000Y-82500000D03*
X107840000Y-79960000D03*
X105300000Y-82500000D03*
X105300000Y-79960000D03*
X102760000Y-82500000D03*
X102760000Y-79960000D03*
X100220000Y-82500000D03*
X100220000Y-79960000D03*
X97680000Y-82500000D03*
X97680000Y-79960000D03*
X95140000Y-82500000D03*
X95140000Y-79960000D03*
X92600000Y-82500000D03*
X92600000Y-79960000D03*
X90060000Y-82500000D03*
X90060000Y-79960000D03*
X87520000Y-82500000D03*
X87520000Y-79960000D03*
X84980000Y-82500000D03*
X84980000Y-79960000D03*
%TD*%
%LPD*%
M02*
