%TF.GenerationSoftware,KiCad,Pcbnew,8.0.1*%
%TF.CreationDate,2024-03-30T16:35:56+02:00*%
%TF.ProjectId,Design PCB assignment,44657369-676e-4205-9043-422061737369,rev?*%
%TF.SameCoordinates,Original*%
%TF.FileFunction,Soldermask,Top*%
%TF.FilePolarity,Negative*%
%FSLAX46Y46*%
G04 Gerber Fmt 4.6, Leading zero omitted, Abs format (unit mm)*
G04 Created by KiCad (PCBNEW 8.0.1) date 2024-03-30 16:35:56*
%MOMM*%
%LPD*%
G01*
G04 APERTURE LIST*
G04 Aperture macros list*
%AMRoundRect*
0 Rectangle with rounded corners*
0 $1 Rounding radius*
0 $2 $3 $4 $5 $6 $7 $8 $9 X,Y pos of 4 corners*
0 Add a 4 corners polygon primitive as box body*
4,1,4,$2,$3,$4,$5,$6,$7,$8,$9,$2,$3,0*
0 Add four circle primitives for the rounded corners*
1,1,$1+$1,$2,$3*
1,1,$1+$1,$4,$5*
1,1,$1+$1,$6,$7*
1,1,$1+$1,$8,$9*
0 Add four rect primitives between the rounded corners*
20,1,$1+$1,$2,$3,$4,$5,0*
20,1,$1+$1,$4,$5,$6,$7,0*
20,1,$1+$1,$6,$7,$8,$9,0*
20,1,$1+$1,$8,$9,$2,$3,0*%
G04 Aperture macros list end*
%ADD10C,1.778000*%
%ADD11C,1.000000*%
%ADD12RoundRect,0.250000X-0.350000X-0.625000X0.350000X-0.625000X0.350000X0.625000X-0.350000X0.625000X0*%
%ADD13O,1.200000X1.750000*%
%ADD14C,1.400000*%
%ADD15O,1.400000X1.400000*%
%ADD16R,1.600000X1.600000*%
%ADD17O,1.600000X1.600000*%
%ADD18R,1.200000X1.200000*%
%ADD19C,1.200000*%
%ADD20R,1.700000X1.700000*%
%ADD21O,1.700000X1.700000*%
%ADD22RoundRect,0.150000X0.512500X0.150000X-0.512500X0.150000X-0.512500X-0.150000X0.512500X-0.150000X0*%
%ADD23R,1.800000X1.800000*%
%ADD24C,1.800000*%
G04 APERTURE END LIST*
D10*
%TO.C,SW1*%
X99060000Y-82550000D03*
X93980000Y-82550000D03*
X93980000Y-74930000D03*
X96520000Y-74930000D03*
X99060000Y-74930000D03*
%TD*%
D11*
%TO.C,TP6*%
X82500000Y-59500000D03*
%TD*%
D12*
%TO.C,J1*%
X99600000Y-51340000D03*
D13*
X101600000Y-51340000D03*
%TD*%
D14*
%TO.C,Rprog1*%
X104140000Y-68580000D03*
D15*
X104140000Y-63500000D03*
%TD*%
D11*
%TO.C,TP7*%
X83000000Y-72500000D03*
%TD*%
D14*
%TO.C,Rled1*%
X99060000Y-63500000D03*
D15*
X99060000Y-68580000D03*
%TD*%
D16*
%TO.C,U1*%
X77485000Y-69840000D03*
D17*
X80025000Y-69840000D03*
X82565000Y-69840000D03*
X85105000Y-69840000D03*
X87645000Y-69840000D03*
X90185000Y-69840000D03*
X92725000Y-69840000D03*
X95265000Y-69840000D03*
X95265000Y-62220000D03*
X92725000Y-62220000D03*
X90185000Y-62220000D03*
X87645000Y-62220000D03*
X85105000Y-62220000D03*
X82565000Y-62220000D03*
X80025000Y-62220000D03*
X77485000Y-62220000D03*
%TD*%
D11*
%TO.C,TP3*%
X78000000Y-78500000D03*
%TD*%
%TO.C,TP4*%
X81000000Y-57500000D03*
%TD*%
%TO.C,TP2*%
X79000000Y-56500000D03*
%TD*%
D14*
%TO.C,R9*%
X88900000Y-76200000D03*
D15*
X83820000Y-76200000D03*
%TD*%
D14*
%TO.C,R10*%
X81170000Y-76200000D03*
D15*
X76090000Y-76200000D03*
%TD*%
D18*
%TO.C,C2*%
X78740000Y-81280000D03*
D19*
X78740000Y-83280000D03*
%TD*%
D20*
%TO.C,J2*%
X93980000Y-53340000D03*
D21*
X93980000Y-50800000D03*
X91440000Y-53340000D03*
X91440000Y-50800000D03*
X88900000Y-53340000D03*
X88900000Y-50800000D03*
X86360000Y-53340000D03*
X86360000Y-50800000D03*
X83820000Y-53340000D03*
X83820000Y-50800000D03*
X81280000Y-53340000D03*
X81280000Y-50800000D03*
X78740000Y-53340000D03*
X78740000Y-50800000D03*
%TD*%
D22*
%TO.C,U2*%
X103875000Y-60960000D03*
X103875000Y-60010000D03*
X103875000Y-59060000D03*
X101600000Y-59060000D03*
X101600000Y-60960000D03*
%TD*%
D11*
%TO.C,TP1*%
X95500000Y-56500000D03*
%TD*%
D18*
%TO.C,C1*%
X86360000Y-81280000D03*
D19*
X86360000Y-83280000D03*
%TD*%
D23*
%TO.C,charging1*%
X104140000Y-73660000D03*
D24*
X104140000Y-76200000D03*
%TD*%
M02*
