%TF.GenerationSoftware,KiCad,Pcbnew,8.0.1*%
%TF.CreationDate,2024-03-30T16:35:56+02:00*%
%TF.ProjectId,Design PCB assignment,44657369-676e-4205-9043-422061737369,rev?*%
%TF.SameCoordinates,Original*%
%TF.FileFunction,Legend,Top*%
%TF.FilePolarity,Positive*%
%FSLAX46Y46*%
G04 Gerber Fmt 4.6, Leading zero omitted, Abs format (unit mm)*
G04 Created by KiCad (PCBNEW 8.0.1) date 2024-03-30 16:35:56*
%MOMM*%
%LPD*%
G01*
G04 APERTURE LIST*
G04 Aperture macros list*
%AMRoundRect*
0 Rectangle with rounded corners*
0 $1 Rounding radius*
0 $2 $3 $4 $5 $6 $7 $8 $9 X,Y pos of 4 corners*
0 Add a 4 corners polygon primitive as box body*
4,1,4,$2,$3,$4,$5,$6,$7,$8,$9,$2,$3,0*
0 Add four circle primitives for the rounded corners*
1,1,$1+$1,$2,$3*
1,1,$1+$1,$4,$5*
1,1,$1+$1,$6,$7*
1,1,$1+$1,$8,$9*
0 Add four rect primitives between the rounded corners*
20,1,$1+$1,$2,$3,$4,$5,0*
20,1,$1+$1,$4,$5,$6,$7,0*
20,1,$1+$1,$6,$7,$8,$9,0*
20,1,$1+$1,$8,$9,$2,$3,0*%
G04 Aperture macros list end*
%ADD10C,0.150000*%
%ADD11C,0.120000*%
%ADD12C,1.778000*%
%ADD13C,1.000000*%
%ADD14RoundRect,0.250000X-0.350000X-0.625000X0.350000X-0.625000X0.350000X0.625000X-0.350000X0.625000X0*%
%ADD15O,1.200000X1.750000*%
%ADD16C,1.400000*%
%ADD17O,1.400000X1.400000*%
%ADD18R,1.600000X1.600000*%
%ADD19O,1.600000X1.600000*%
%ADD20R,1.200000X1.200000*%
%ADD21C,1.200000*%
%ADD22R,1.700000X1.700000*%
%ADD23O,1.700000X1.700000*%
%ADD24RoundRect,0.150000X0.512500X0.150000X-0.512500X0.150000X-0.512500X-0.150000X0.512500X-0.150000X0*%
%ADD25R,1.800000X1.800000*%
%ADD26C,1.800000*%
G04 APERTURE END LIST*
D10*
X95186667Y-84957200D02*
X95329524Y-85004819D01*
X95329524Y-85004819D02*
X95567619Y-85004819D01*
X95567619Y-85004819D02*
X95662857Y-84957200D01*
X95662857Y-84957200D02*
X95710476Y-84909580D01*
X95710476Y-84909580D02*
X95758095Y-84814342D01*
X95758095Y-84814342D02*
X95758095Y-84719104D01*
X95758095Y-84719104D02*
X95710476Y-84623866D01*
X95710476Y-84623866D02*
X95662857Y-84576247D01*
X95662857Y-84576247D02*
X95567619Y-84528628D01*
X95567619Y-84528628D02*
X95377143Y-84481009D01*
X95377143Y-84481009D02*
X95281905Y-84433390D01*
X95281905Y-84433390D02*
X95234286Y-84385771D01*
X95234286Y-84385771D02*
X95186667Y-84290533D01*
X95186667Y-84290533D02*
X95186667Y-84195295D01*
X95186667Y-84195295D02*
X95234286Y-84100057D01*
X95234286Y-84100057D02*
X95281905Y-84052438D01*
X95281905Y-84052438D02*
X95377143Y-84004819D01*
X95377143Y-84004819D02*
X95615238Y-84004819D01*
X95615238Y-84004819D02*
X95758095Y-84052438D01*
X96091429Y-84004819D02*
X96329524Y-85004819D01*
X96329524Y-85004819D02*
X96520000Y-84290533D01*
X96520000Y-84290533D02*
X96710476Y-85004819D01*
X96710476Y-85004819D02*
X96948572Y-84004819D01*
X97853333Y-85004819D02*
X97281905Y-85004819D01*
X97567619Y-85004819D02*
X97567619Y-84004819D01*
X97567619Y-84004819D02*
X97472381Y-84147676D01*
X97472381Y-84147676D02*
X97377143Y-84242914D01*
X97377143Y-84242914D02*
X97281905Y-84290533D01*
X81238095Y-57506819D02*
X81809523Y-57506819D01*
X81523809Y-58506819D02*
X81523809Y-57506819D01*
X82142857Y-58506819D02*
X82142857Y-57506819D01*
X82142857Y-57506819D02*
X82523809Y-57506819D01*
X82523809Y-57506819D02*
X82619047Y-57554438D01*
X82619047Y-57554438D02*
X82666666Y-57602057D01*
X82666666Y-57602057D02*
X82714285Y-57697295D01*
X82714285Y-57697295D02*
X82714285Y-57840152D01*
X82714285Y-57840152D02*
X82666666Y-57935390D01*
X82666666Y-57935390D02*
X82619047Y-57983009D01*
X82619047Y-57983009D02*
X82523809Y-58030628D01*
X82523809Y-58030628D02*
X82142857Y-58030628D01*
X83571428Y-57506819D02*
X83380952Y-57506819D01*
X83380952Y-57506819D02*
X83285714Y-57554438D01*
X83285714Y-57554438D02*
X83238095Y-57602057D01*
X83238095Y-57602057D02*
X83142857Y-57744914D01*
X83142857Y-57744914D02*
X83095238Y-57935390D01*
X83095238Y-57935390D02*
X83095238Y-58316342D01*
X83095238Y-58316342D02*
X83142857Y-58411580D01*
X83142857Y-58411580D02*
X83190476Y-58459200D01*
X83190476Y-58459200D02*
X83285714Y-58506819D01*
X83285714Y-58506819D02*
X83476190Y-58506819D01*
X83476190Y-58506819D02*
X83571428Y-58459200D01*
X83571428Y-58459200D02*
X83619047Y-58411580D01*
X83619047Y-58411580D02*
X83666666Y-58316342D01*
X83666666Y-58316342D02*
X83666666Y-58078247D01*
X83666666Y-58078247D02*
X83619047Y-57983009D01*
X83619047Y-57983009D02*
X83571428Y-57935390D01*
X83571428Y-57935390D02*
X83476190Y-57887771D01*
X83476190Y-57887771D02*
X83285714Y-57887771D01*
X83285714Y-57887771D02*
X83190476Y-57935390D01*
X83190476Y-57935390D02*
X83142857Y-57983009D01*
X83142857Y-57983009D02*
X83095238Y-58078247D01*
X100266666Y-47894819D02*
X100266666Y-48609104D01*
X100266666Y-48609104D02*
X100219047Y-48751961D01*
X100219047Y-48751961D02*
X100123809Y-48847200D01*
X100123809Y-48847200D02*
X99980952Y-48894819D01*
X99980952Y-48894819D02*
X99885714Y-48894819D01*
X101266666Y-48894819D02*
X100695238Y-48894819D01*
X100980952Y-48894819D02*
X100980952Y-47894819D01*
X100980952Y-47894819D02*
X100885714Y-48037676D01*
X100885714Y-48037676D02*
X100790476Y-48132914D01*
X100790476Y-48132914D02*
X100695238Y-48180533D01*
X102674819Y-67873333D02*
X102198628Y-68206666D01*
X102674819Y-68444761D02*
X101674819Y-68444761D01*
X101674819Y-68444761D02*
X101674819Y-68063809D01*
X101674819Y-68063809D02*
X101722438Y-67968571D01*
X101722438Y-67968571D02*
X101770057Y-67920952D01*
X101770057Y-67920952D02*
X101865295Y-67873333D01*
X101865295Y-67873333D02*
X102008152Y-67873333D01*
X102008152Y-67873333D02*
X102103390Y-67920952D01*
X102103390Y-67920952D02*
X102151009Y-67968571D01*
X102151009Y-67968571D02*
X102198628Y-68063809D01*
X102198628Y-68063809D02*
X102198628Y-68444761D01*
X102008152Y-67444761D02*
X103008152Y-67444761D01*
X102055771Y-67444761D02*
X102008152Y-67349523D01*
X102008152Y-67349523D02*
X102008152Y-67159047D01*
X102008152Y-67159047D02*
X102055771Y-67063809D01*
X102055771Y-67063809D02*
X102103390Y-67016190D01*
X102103390Y-67016190D02*
X102198628Y-66968571D01*
X102198628Y-66968571D02*
X102484342Y-66968571D01*
X102484342Y-66968571D02*
X102579580Y-67016190D01*
X102579580Y-67016190D02*
X102627200Y-67063809D01*
X102627200Y-67063809D02*
X102674819Y-67159047D01*
X102674819Y-67159047D02*
X102674819Y-67349523D01*
X102674819Y-67349523D02*
X102627200Y-67444761D01*
X102674819Y-66539999D02*
X102008152Y-66539999D01*
X102198628Y-66539999D02*
X102103390Y-66492380D01*
X102103390Y-66492380D02*
X102055771Y-66444761D01*
X102055771Y-66444761D02*
X102008152Y-66349523D01*
X102008152Y-66349523D02*
X102008152Y-66254285D01*
X102674819Y-65778094D02*
X102627200Y-65873332D01*
X102627200Y-65873332D02*
X102579580Y-65920951D01*
X102579580Y-65920951D02*
X102484342Y-65968570D01*
X102484342Y-65968570D02*
X102198628Y-65968570D01*
X102198628Y-65968570D02*
X102103390Y-65920951D01*
X102103390Y-65920951D02*
X102055771Y-65873332D01*
X102055771Y-65873332D02*
X102008152Y-65778094D01*
X102008152Y-65778094D02*
X102008152Y-65635237D01*
X102008152Y-65635237D02*
X102055771Y-65539999D01*
X102055771Y-65539999D02*
X102103390Y-65492380D01*
X102103390Y-65492380D02*
X102198628Y-65444761D01*
X102198628Y-65444761D02*
X102484342Y-65444761D01*
X102484342Y-65444761D02*
X102579580Y-65492380D01*
X102579580Y-65492380D02*
X102627200Y-65539999D01*
X102627200Y-65539999D02*
X102674819Y-65635237D01*
X102674819Y-65635237D02*
X102674819Y-65778094D01*
X102008152Y-64587618D02*
X102817676Y-64587618D01*
X102817676Y-64587618D02*
X102912914Y-64635237D01*
X102912914Y-64635237D02*
X102960533Y-64682856D01*
X102960533Y-64682856D02*
X103008152Y-64778094D01*
X103008152Y-64778094D02*
X103008152Y-64920951D01*
X103008152Y-64920951D02*
X102960533Y-65016189D01*
X102627200Y-64587618D02*
X102674819Y-64682856D01*
X102674819Y-64682856D02*
X102674819Y-64873332D01*
X102674819Y-64873332D02*
X102627200Y-64968570D01*
X102627200Y-64968570D02*
X102579580Y-65016189D01*
X102579580Y-65016189D02*
X102484342Y-65063808D01*
X102484342Y-65063808D02*
X102198628Y-65063808D01*
X102198628Y-65063808D02*
X102103390Y-65016189D01*
X102103390Y-65016189D02*
X102055771Y-64968570D01*
X102055771Y-64968570D02*
X102008152Y-64873332D01*
X102008152Y-64873332D02*
X102008152Y-64682856D01*
X102008152Y-64682856D02*
X102055771Y-64587618D01*
X102674819Y-63587618D02*
X102674819Y-64159046D01*
X102674819Y-63873332D02*
X101674819Y-63873332D01*
X101674819Y-63873332D02*
X101817676Y-63968570D01*
X101817676Y-63968570D02*
X101912914Y-64063808D01*
X101912914Y-64063808D02*
X101960533Y-64159046D01*
X81738095Y-70506819D02*
X82309523Y-70506819D01*
X82023809Y-71506819D02*
X82023809Y-70506819D01*
X82642857Y-71506819D02*
X82642857Y-70506819D01*
X82642857Y-70506819D02*
X83023809Y-70506819D01*
X83023809Y-70506819D02*
X83119047Y-70554438D01*
X83119047Y-70554438D02*
X83166666Y-70602057D01*
X83166666Y-70602057D02*
X83214285Y-70697295D01*
X83214285Y-70697295D02*
X83214285Y-70840152D01*
X83214285Y-70840152D02*
X83166666Y-70935390D01*
X83166666Y-70935390D02*
X83119047Y-70983009D01*
X83119047Y-70983009D02*
X83023809Y-71030628D01*
X83023809Y-71030628D02*
X82642857Y-71030628D01*
X83547619Y-70506819D02*
X84214285Y-70506819D01*
X84214285Y-70506819D02*
X83785714Y-71506819D01*
X101434819Y-67349524D02*
X100958628Y-67682857D01*
X101434819Y-67920952D02*
X100434819Y-67920952D01*
X100434819Y-67920952D02*
X100434819Y-67540000D01*
X100434819Y-67540000D02*
X100482438Y-67444762D01*
X100482438Y-67444762D02*
X100530057Y-67397143D01*
X100530057Y-67397143D02*
X100625295Y-67349524D01*
X100625295Y-67349524D02*
X100768152Y-67349524D01*
X100768152Y-67349524D02*
X100863390Y-67397143D01*
X100863390Y-67397143D02*
X100911009Y-67444762D01*
X100911009Y-67444762D02*
X100958628Y-67540000D01*
X100958628Y-67540000D02*
X100958628Y-67920952D01*
X101434819Y-66778095D02*
X101387200Y-66873333D01*
X101387200Y-66873333D02*
X101291961Y-66920952D01*
X101291961Y-66920952D02*
X100434819Y-66920952D01*
X101387200Y-66016190D02*
X101434819Y-66111428D01*
X101434819Y-66111428D02*
X101434819Y-66301904D01*
X101434819Y-66301904D02*
X101387200Y-66397142D01*
X101387200Y-66397142D02*
X101291961Y-66444761D01*
X101291961Y-66444761D02*
X100911009Y-66444761D01*
X100911009Y-66444761D02*
X100815771Y-66397142D01*
X100815771Y-66397142D02*
X100768152Y-66301904D01*
X100768152Y-66301904D02*
X100768152Y-66111428D01*
X100768152Y-66111428D02*
X100815771Y-66016190D01*
X100815771Y-66016190D02*
X100911009Y-65968571D01*
X100911009Y-65968571D02*
X101006247Y-65968571D01*
X101006247Y-65968571D02*
X101101485Y-66444761D01*
X101434819Y-65111428D02*
X100434819Y-65111428D01*
X101387200Y-65111428D02*
X101434819Y-65206666D01*
X101434819Y-65206666D02*
X101434819Y-65397142D01*
X101434819Y-65397142D02*
X101387200Y-65492380D01*
X101387200Y-65492380D02*
X101339580Y-65539999D01*
X101339580Y-65539999D02*
X101244342Y-65587618D01*
X101244342Y-65587618D02*
X100958628Y-65587618D01*
X100958628Y-65587618D02*
X100863390Y-65539999D01*
X100863390Y-65539999D02*
X100815771Y-65492380D01*
X100815771Y-65492380D02*
X100768152Y-65397142D01*
X100768152Y-65397142D02*
X100768152Y-65206666D01*
X100768152Y-65206666D02*
X100815771Y-65111428D01*
X101434819Y-64111428D02*
X101434819Y-64682856D01*
X101434819Y-64397142D02*
X100434819Y-64397142D01*
X100434819Y-64397142D02*
X100577676Y-64492380D01*
X100577676Y-64492380D02*
X100672914Y-64587618D01*
X100672914Y-64587618D02*
X100720533Y-64682856D01*
X74609819Y-66791904D02*
X75419342Y-66791904D01*
X75419342Y-66791904D02*
X75514580Y-66744285D01*
X75514580Y-66744285D02*
X75562200Y-66696666D01*
X75562200Y-66696666D02*
X75609819Y-66601428D01*
X75609819Y-66601428D02*
X75609819Y-66410952D01*
X75609819Y-66410952D02*
X75562200Y-66315714D01*
X75562200Y-66315714D02*
X75514580Y-66268095D01*
X75514580Y-66268095D02*
X75419342Y-66220476D01*
X75419342Y-66220476D02*
X74609819Y-66220476D01*
X75609819Y-65220476D02*
X75609819Y-65791904D01*
X75609819Y-65506190D02*
X74609819Y-65506190D01*
X74609819Y-65506190D02*
X74752676Y-65601428D01*
X74752676Y-65601428D02*
X74847914Y-65696666D01*
X74847914Y-65696666D02*
X74895533Y-65791904D01*
X76738095Y-76506819D02*
X77309523Y-76506819D01*
X77023809Y-77506819D02*
X77023809Y-76506819D01*
X77642857Y-77506819D02*
X77642857Y-76506819D01*
X77642857Y-76506819D02*
X78023809Y-76506819D01*
X78023809Y-76506819D02*
X78119047Y-76554438D01*
X78119047Y-76554438D02*
X78166666Y-76602057D01*
X78166666Y-76602057D02*
X78214285Y-76697295D01*
X78214285Y-76697295D02*
X78214285Y-76840152D01*
X78214285Y-76840152D02*
X78166666Y-76935390D01*
X78166666Y-76935390D02*
X78119047Y-76983009D01*
X78119047Y-76983009D02*
X78023809Y-77030628D01*
X78023809Y-77030628D02*
X77642857Y-77030628D01*
X78547619Y-76506819D02*
X79166666Y-76506819D01*
X79166666Y-76506819D02*
X78833333Y-76887771D01*
X78833333Y-76887771D02*
X78976190Y-76887771D01*
X78976190Y-76887771D02*
X79071428Y-76935390D01*
X79071428Y-76935390D02*
X79119047Y-76983009D01*
X79119047Y-76983009D02*
X79166666Y-77078247D01*
X79166666Y-77078247D02*
X79166666Y-77316342D01*
X79166666Y-77316342D02*
X79119047Y-77411580D01*
X79119047Y-77411580D02*
X79071428Y-77459200D01*
X79071428Y-77459200D02*
X78976190Y-77506819D01*
X78976190Y-77506819D02*
X78690476Y-77506819D01*
X78690476Y-77506819D02*
X78595238Y-77459200D01*
X78595238Y-77459200D02*
X78547619Y-77411580D01*
X79738095Y-55506819D02*
X80309523Y-55506819D01*
X80023809Y-56506819D02*
X80023809Y-55506819D01*
X80642857Y-56506819D02*
X80642857Y-55506819D01*
X80642857Y-55506819D02*
X81023809Y-55506819D01*
X81023809Y-55506819D02*
X81119047Y-55554438D01*
X81119047Y-55554438D02*
X81166666Y-55602057D01*
X81166666Y-55602057D02*
X81214285Y-55697295D01*
X81214285Y-55697295D02*
X81214285Y-55840152D01*
X81214285Y-55840152D02*
X81166666Y-55935390D01*
X81166666Y-55935390D02*
X81119047Y-55983009D01*
X81119047Y-55983009D02*
X81023809Y-56030628D01*
X81023809Y-56030628D02*
X80642857Y-56030628D01*
X82071428Y-55840152D02*
X82071428Y-56506819D01*
X81833333Y-55459200D02*
X81595238Y-56173485D01*
X81595238Y-56173485D02*
X82214285Y-56173485D01*
X77738095Y-54506819D02*
X78309523Y-54506819D01*
X78023809Y-55506819D02*
X78023809Y-54506819D01*
X78642857Y-55506819D02*
X78642857Y-54506819D01*
X78642857Y-54506819D02*
X79023809Y-54506819D01*
X79023809Y-54506819D02*
X79119047Y-54554438D01*
X79119047Y-54554438D02*
X79166666Y-54602057D01*
X79166666Y-54602057D02*
X79214285Y-54697295D01*
X79214285Y-54697295D02*
X79214285Y-54840152D01*
X79214285Y-54840152D02*
X79166666Y-54935390D01*
X79166666Y-54935390D02*
X79119047Y-54983009D01*
X79119047Y-54983009D02*
X79023809Y-55030628D01*
X79023809Y-55030628D02*
X78642857Y-55030628D01*
X79595238Y-54602057D02*
X79642857Y-54554438D01*
X79642857Y-54554438D02*
X79738095Y-54506819D01*
X79738095Y-54506819D02*
X79976190Y-54506819D01*
X79976190Y-54506819D02*
X80071428Y-54554438D01*
X80071428Y-54554438D02*
X80119047Y-54602057D01*
X80119047Y-54602057D02*
X80166666Y-54697295D01*
X80166666Y-54697295D02*
X80166666Y-54792533D01*
X80166666Y-54792533D02*
X80119047Y-54935390D01*
X80119047Y-54935390D02*
X79547619Y-55506819D01*
X79547619Y-55506819D02*
X80166666Y-55506819D01*
X86193333Y-78574819D02*
X85860000Y-78098628D01*
X85621905Y-78574819D02*
X85621905Y-77574819D01*
X85621905Y-77574819D02*
X86002857Y-77574819D01*
X86002857Y-77574819D02*
X86098095Y-77622438D01*
X86098095Y-77622438D02*
X86145714Y-77670057D01*
X86145714Y-77670057D02*
X86193333Y-77765295D01*
X86193333Y-77765295D02*
X86193333Y-77908152D01*
X86193333Y-77908152D02*
X86145714Y-78003390D01*
X86145714Y-78003390D02*
X86098095Y-78051009D01*
X86098095Y-78051009D02*
X86002857Y-78098628D01*
X86002857Y-78098628D02*
X85621905Y-78098628D01*
X86669524Y-78574819D02*
X86860000Y-78574819D01*
X86860000Y-78574819D02*
X86955238Y-78527200D01*
X86955238Y-78527200D02*
X87002857Y-78479580D01*
X87002857Y-78479580D02*
X87098095Y-78336723D01*
X87098095Y-78336723D02*
X87145714Y-78146247D01*
X87145714Y-78146247D02*
X87145714Y-77765295D01*
X87145714Y-77765295D02*
X87098095Y-77670057D01*
X87098095Y-77670057D02*
X87050476Y-77622438D01*
X87050476Y-77622438D02*
X86955238Y-77574819D01*
X86955238Y-77574819D02*
X86764762Y-77574819D01*
X86764762Y-77574819D02*
X86669524Y-77622438D01*
X86669524Y-77622438D02*
X86621905Y-77670057D01*
X86621905Y-77670057D02*
X86574286Y-77765295D01*
X86574286Y-77765295D02*
X86574286Y-78003390D01*
X86574286Y-78003390D02*
X86621905Y-78098628D01*
X86621905Y-78098628D02*
X86669524Y-78146247D01*
X86669524Y-78146247D02*
X86764762Y-78193866D01*
X86764762Y-78193866D02*
X86955238Y-78193866D01*
X86955238Y-78193866D02*
X87050476Y-78146247D01*
X87050476Y-78146247D02*
X87098095Y-78098628D01*
X87098095Y-78098628D02*
X87145714Y-78003390D01*
X77987142Y-78574819D02*
X77653809Y-78098628D01*
X77415714Y-78574819D02*
X77415714Y-77574819D01*
X77415714Y-77574819D02*
X77796666Y-77574819D01*
X77796666Y-77574819D02*
X77891904Y-77622438D01*
X77891904Y-77622438D02*
X77939523Y-77670057D01*
X77939523Y-77670057D02*
X77987142Y-77765295D01*
X77987142Y-77765295D02*
X77987142Y-77908152D01*
X77987142Y-77908152D02*
X77939523Y-78003390D01*
X77939523Y-78003390D02*
X77891904Y-78051009D01*
X77891904Y-78051009D02*
X77796666Y-78098628D01*
X77796666Y-78098628D02*
X77415714Y-78098628D01*
X78939523Y-78574819D02*
X78368095Y-78574819D01*
X78653809Y-78574819D02*
X78653809Y-77574819D01*
X78653809Y-77574819D02*
X78558571Y-77717676D01*
X78558571Y-77717676D02*
X78463333Y-77812914D01*
X78463333Y-77812914D02*
X78368095Y-77860533D01*
X79558571Y-77574819D02*
X79653809Y-77574819D01*
X79653809Y-77574819D02*
X79749047Y-77622438D01*
X79749047Y-77622438D02*
X79796666Y-77670057D01*
X79796666Y-77670057D02*
X79844285Y-77765295D01*
X79844285Y-77765295D02*
X79891904Y-77955771D01*
X79891904Y-77955771D02*
X79891904Y-78193866D01*
X79891904Y-78193866D02*
X79844285Y-78384342D01*
X79844285Y-78384342D02*
X79796666Y-78479580D01*
X79796666Y-78479580D02*
X79749047Y-78527200D01*
X79749047Y-78527200D02*
X79653809Y-78574819D01*
X79653809Y-78574819D02*
X79558571Y-78574819D01*
X79558571Y-78574819D02*
X79463333Y-78527200D01*
X79463333Y-78527200D02*
X79415714Y-78479580D01*
X79415714Y-78479580D02*
X79368095Y-78384342D01*
X79368095Y-78384342D02*
X79320476Y-78193866D01*
X79320476Y-78193866D02*
X79320476Y-77955771D01*
X79320476Y-77955771D02*
X79368095Y-77765295D01*
X79368095Y-77765295D02*
X79415714Y-77670057D01*
X79415714Y-77670057D02*
X79463333Y-77622438D01*
X79463333Y-77622438D02*
X79558571Y-77574819D01*
X82349580Y-82446666D02*
X82397200Y-82494285D01*
X82397200Y-82494285D02*
X82444819Y-82637142D01*
X82444819Y-82637142D02*
X82444819Y-82732380D01*
X82444819Y-82732380D02*
X82397200Y-82875237D01*
X82397200Y-82875237D02*
X82301961Y-82970475D01*
X82301961Y-82970475D02*
X82206723Y-83018094D01*
X82206723Y-83018094D02*
X82016247Y-83065713D01*
X82016247Y-83065713D02*
X81873390Y-83065713D01*
X81873390Y-83065713D02*
X81682914Y-83018094D01*
X81682914Y-83018094D02*
X81587676Y-82970475D01*
X81587676Y-82970475D02*
X81492438Y-82875237D01*
X81492438Y-82875237D02*
X81444819Y-82732380D01*
X81444819Y-82732380D02*
X81444819Y-82637142D01*
X81444819Y-82637142D02*
X81492438Y-82494285D01*
X81492438Y-82494285D02*
X81540057Y-82446666D01*
X81540057Y-82065713D02*
X81492438Y-82018094D01*
X81492438Y-82018094D02*
X81444819Y-81922856D01*
X81444819Y-81922856D02*
X81444819Y-81684761D01*
X81444819Y-81684761D02*
X81492438Y-81589523D01*
X81492438Y-81589523D02*
X81540057Y-81541904D01*
X81540057Y-81541904D02*
X81635295Y-81494285D01*
X81635295Y-81494285D02*
X81730533Y-81494285D01*
X81730533Y-81494285D02*
X81873390Y-81541904D01*
X81873390Y-81541904D02*
X82444819Y-82113332D01*
X82444819Y-82113332D02*
X82444819Y-81494285D01*
X96204819Y-52403333D02*
X96919104Y-52403333D01*
X96919104Y-52403333D02*
X97061961Y-52450952D01*
X97061961Y-52450952D02*
X97157200Y-52546190D01*
X97157200Y-52546190D02*
X97204819Y-52689047D01*
X97204819Y-52689047D02*
X97204819Y-52784285D01*
X96300057Y-51974761D02*
X96252438Y-51927142D01*
X96252438Y-51927142D02*
X96204819Y-51831904D01*
X96204819Y-51831904D02*
X96204819Y-51593809D01*
X96204819Y-51593809D02*
X96252438Y-51498571D01*
X96252438Y-51498571D02*
X96300057Y-51450952D01*
X96300057Y-51450952D02*
X96395295Y-51403333D01*
X96395295Y-51403333D02*
X96490533Y-51403333D01*
X96490533Y-51403333D02*
X96633390Y-51450952D01*
X96633390Y-51450952D02*
X97204819Y-52022380D01*
X97204819Y-52022380D02*
X97204819Y-51403333D01*
X101975595Y-61864819D02*
X101975595Y-62674342D01*
X101975595Y-62674342D02*
X102023214Y-62769580D01*
X102023214Y-62769580D02*
X102070833Y-62817200D01*
X102070833Y-62817200D02*
X102166071Y-62864819D01*
X102166071Y-62864819D02*
X102356547Y-62864819D01*
X102356547Y-62864819D02*
X102451785Y-62817200D01*
X102451785Y-62817200D02*
X102499404Y-62769580D01*
X102499404Y-62769580D02*
X102547023Y-62674342D01*
X102547023Y-62674342D02*
X102547023Y-61864819D01*
X102975595Y-61960057D02*
X103023214Y-61912438D01*
X103023214Y-61912438D02*
X103118452Y-61864819D01*
X103118452Y-61864819D02*
X103356547Y-61864819D01*
X103356547Y-61864819D02*
X103451785Y-61912438D01*
X103451785Y-61912438D02*
X103499404Y-61960057D01*
X103499404Y-61960057D02*
X103547023Y-62055295D01*
X103547023Y-62055295D02*
X103547023Y-62150533D01*
X103547023Y-62150533D02*
X103499404Y-62293390D01*
X103499404Y-62293390D02*
X102927976Y-62864819D01*
X102927976Y-62864819D02*
X103547023Y-62864819D01*
X94238095Y-54506819D02*
X94809523Y-54506819D01*
X94523809Y-55506819D02*
X94523809Y-54506819D01*
X95142857Y-55506819D02*
X95142857Y-54506819D01*
X95142857Y-54506819D02*
X95523809Y-54506819D01*
X95523809Y-54506819D02*
X95619047Y-54554438D01*
X95619047Y-54554438D02*
X95666666Y-54602057D01*
X95666666Y-54602057D02*
X95714285Y-54697295D01*
X95714285Y-54697295D02*
X95714285Y-54840152D01*
X95714285Y-54840152D02*
X95666666Y-54935390D01*
X95666666Y-54935390D02*
X95619047Y-54983009D01*
X95619047Y-54983009D02*
X95523809Y-55030628D01*
X95523809Y-55030628D02*
X95142857Y-55030628D01*
X96666666Y-55506819D02*
X96095238Y-55506819D01*
X96380952Y-55506819D02*
X96380952Y-54506819D01*
X96380952Y-54506819D02*
X96285714Y-54649676D01*
X96285714Y-54649676D02*
X96190476Y-54744914D01*
X96190476Y-54744914D02*
X96095238Y-54792533D01*
X89969580Y-82446666D02*
X90017200Y-82494285D01*
X90017200Y-82494285D02*
X90064819Y-82637142D01*
X90064819Y-82637142D02*
X90064819Y-82732380D01*
X90064819Y-82732380D02*
X90017200Y-82875237D01*
X90017200Y-82875237D02*
X89921961Y-82970475D01*
X89921961Y-82970475D02*
X89826723Y-83018094D01*
X89826723Y-83018094D02*
X89636247Y-83065713D01*
X89636247Y-83065713D02*
X89493390Y-83065713D01*
X89493390Y-83065713D02*
X89302914Y-83018094D01*
X89302914Y-83018094D02*
X89207676Y-82970475D01*
X89207676Y-82970475D02*
X89112438Y-82875237D01*
X89112438Y-82875237D02*
X89064819Y-82732380D01*
X89064819Y-82732380D02*
X89064819Y-82637142D01*
X89064819Y-82637142D02*
X89112438Y-82494285D01*
X89112438Y-82494285D02*
X89160057Y-82446666D01*
X90064819Y-81494285D02*
X90064819Y-82065713D01*
X90064819Y-81779999D02*
X89064819Y-81779999D01*
X89064819Y-81779999D02*
X89207676Y-81875237D01*
X89207676Y-81875237D02*
X89302914Y-81970475D01*
X89302914Y-81970475D02*
X89350533Y-82065713D01*
X107507200Y-77977619D02*
X107554819Y-78072857D01*
X107554819Y-78072857D02*
X107554819Y-78263333D01*
X107554819Y-78263333D02*
X107507200Y-78358571D01*
X107507200Y-78358571D02*
X107459580Y-78406190D01*
X107459580Y-78406190D02*
X107364342Y-78453809D01*
X107364342Y-78453809D02*
X107078628Y-78453809D01*
X107078628Y-78453809D02*
X106983390Y-78406190D01*
X106983390Y-78406190D02*
X106935771Y-78358571D01*
X106935771Y-78358571D02*
X106888152Y-78263333D01*
X106888152Y-78263333D02*
X106888152Y-78072857D01*
X106888152Y-78072857D02*
X106935771Y-77977619D01*
X107554819Y-77549047D02*
X106554819Y-77549047D01*
X107554819Y-77120476D02*
X107031009Y-77120476D01*
X107031009Y-77120476D02*
X106935771Y-77168095D01*
X106935771Y-77168095D02*
X106888152Y-77263333D01*
X106888152Y-77263333D02*
X106888152Y-77406190D01*
X106888152Y-77406190D02*
X106935771Y-77501428D01*
X106935771Y-77501428D02*
X106983390Y-77549047D01*
X107554819Y-76215714D02*
X107031009Y-76215714D01*
X107031009Y-76215714D02*
X106935771Y-76263333D01*
X106935771Y-76263333D02*
X106888152Y-76358571D01*
X106888152Y-76358571D02*
X106888152Y-76549047D01*
X106888152Y-76549047D02*
X106935771Y-76644285D01*
X107507200Y-76215714D02*
X107554819Y-76310952D01*
X107554819Y-76310952D02*
X107554819Y-76549047D01*
X107554819Y-76549047D02*
X107507200Y-76644285D01*
X107507200Y-76644285D02*
X107411961Y-76691904D01*
X107411961Y-76691904D02*
X107316723Y-76691904D01*
X107316723Y-76691904D02*
X107221485Y-76644285D01*
X107221485Y-76644285D02*
X107173866Y-76549047D01*
X107173866Y-76549047D02*
X107173866Y-76310952D01*
X107173866Y-76310952D02*
X107126247Y-76215714D01*
X107554819Y-75739523D02*
X106888152Y-75739523D01*
X107078628Y-75739523D02*
X106983390Y-75691904D01*
X106983390Y-75691904D02*
X106935771Y-75644285D01*
X106935771Y-75644285D02*
X106888152Y-75549047D01*
X106888152Y-75549047D02*
X106888152Y-75453809D01*
X106888152Y-74691904D02*
X107697676Y-74691904D01*
X107697676Y-74691904D02*
X107792914Y-74739523D01*
X107792914Y-74739523D02*
X107840533Y-74787142D01*
X107840533Y-74787142D02*
X107888152Y-74882380D01*
X107888152Y-74882380D02*
X107888152Y-75025237D01*
X107888152Y-75025237D02*
X107840533Y-75120475D01*
X107507200Y-74691904D02*
X107554819Y-74787142D01*
X107554819Y-74787142D02*
X107554819Y-74977618D01*
X107554819Y-74977618D02*
X107507200Y-75072856D01*
X107507200Y-75072856D02*
X107459580Y-75120475D01*
X107459580Y-75120475D02*
X107364342Y-75168094D01*
X107364342Y-75168094D02*
X107078628Y-75168094D01*
X107078628Y-75168094D02*
X106983390Y-75120475D01*
X106983390Y-75120475D02*
X106935771Y-75072856D01*
X106935771Y-75072856D02*
X106888152Y-74977618D01*
X106888152Y-74977618D02*
X106888152Y-74787142D01*
X106888152Y-74787142D02*
X106935771Y-74691904D01*
X107554819Y-74215713D02*
X106888152Y-74215713D01*
X106554819Y-74215713D02*
X106602438Y-74263332D01*
X106602438Y-74263332D02*
X106650057Y-74215713D01*
X106650057Y-74215713D02*
X106602438Y-74168094D01*
X106602438Y-74168094D02*
X106554819Y-74215713D01*
X106554819Y-74215713D02*
X106650057Y-74215713D01*
X106888152Y-73739523D02*
X107554819Y-73739523D01*
X106983390Y-73739523D02*
X106935771Y-73691904D01*
X106935771Y-73691904D02*
X106888152Y-73596666D01*
X106888152Y-73596666D02*
X106888152Y-73453809D01*
X106888152Y-73453809D02*
X106935771Y-73358571D01*
X106935771Y-73358571D02*
X107031009Y-73310952D01*
X107031009Y-73310952D02*
X107554819Y-73310952D01*
X106888152Y-72406190D02*
X107697676Y-72406190D01*
X107697676Y-72406190D02*
X107792914Y-72453809D01*
X107792914Y-72453809D02*
X107840533Y-72501428D01*
X107840533Y-72501428D02*
X107888152Y-72596666D01*
X107888152Y-72596666D02*
X107888152Y-72739523D01*
X107888152Y-72739523D02*
X107840533Y-72834761D01*
X107507200Y-72406190D02*
X107554819Y-72501428D01*
X107554819Y-72501428D02*
X107554819Y-72691904D01*
X107554819Y-72691904D02*
X107507200Y-72787142D01*
X107507200Y-72787142D02*
X107459580Y-72834761D01*
X107459580Y-72834761D02*
X107364342Y-72882380D01*
X107364342Y-72882380D02*
X107078628Y-72882380D01*
X107078628Y-72882380D02*
X106983390Y-72834761D01*
X106983390Y-72834761D02*
X106935771Y-72787142D01*
X106935771Y-72787142D02*
X106888152Y-72691904D01*
X106888152Y-72691904D02*
X106888152Y-72501428D01*
X106888152Y-72501428D02*
X106935771Y-72406190D01*
X107554819Y-71406190D02*
X107554819Y-71977618D01*
X107554819Y-71691904D02*
X106554819Y-71691904D01*
X106554819Y-71691904D02*
X106697676Y-71787142D01*
X106697676Y-71787142D02*
X106792914Y-71882380D01*
X106792914Y-71882380D02*
X106840533Y-71977618D01*
D11*
%TO.C,SW1*%
X92710000Y-73660000D02*
X92710000Y-83820000D01*
X100330000Y-73660000D02*
X92710000Y-73660000D01*
X100330000Y-83820000D02*
X92710000Y-83820000D01*
X100330000Y-83820000D02*
X100330000Y-73660000D01*
X98520000Y-78740000D02*
G75*
G02*
X94520000Y-78740000I-2000000J0D01*
G01*
X94520000Y-78740000D02*
G75*
G02*
X98520000Y-78740000I2000000J0D01*
G01*
%TO.C,TP6*%
X83200000Y-59500000D02*
G75*
G02*
X81800000Y-59500000I-700000J0D01*
G01*
X81800000Y-59500000D02*
G75*
G02*
X83200000Y-59500000I700000J0D01*
G01*
%TO.C,J1*%
X97240000Y-49230000D02*
X97240000Y-50480000D01*
X97540000Y-49530000D02*
X97540000Y-54250000D01*
X97540000Y-50840000D02*
X98150000Y-50840000D01*
X97540000Y-52140000D02*
X98150000Y-52140000D01*
X97540000Y-54250000D02*
X103660000Y-54250000D01*
X98150000Y-50140000D02*
X98150000Y-53640000D01*
X98150000Y-53640000D02*
X103050000Y-53640000D01*
X98490000Y-49230000D02*
X97240000Y-49230000D01*
X99000000Y-49330000D02*
X99000000Y-49530000D01*
X99300000Y-49330000D02*
X99000000Y-49330000D01*
X99300000Y-49430000D02*
X99000000Y-49430000D01*
X99300000Y-49530000D02*
X99300000Y-49330000D01*
X100100000Y-49530000D02*
X100100000Y-50140000D01*
X100100000Y-50140000D02*
X98150000Y-50140000D01*
X100500000Y-53140000D02*
X100700000Y-53140000D01*
X100500000Y-53640000D02*
X100500000Y-53140000D01*
X100600000Y-53640000D02*
X100600000Y-53140000D01*
X100700000Y-53140000D02*
X100700000Y-53640000D01*
X101100000Y-50140000D02*
X101100000Y-49530000D01*
X103050000Y-50140000D02*
X101100000Y-50140000D01*
X103050000Y-53640000D02*
X103050000Y-50140000D01*
X103660000Y-49530000D02*
X97540000Y-49530000D01*
X103660000Y-50840000D02*
X103050000Y-50840000D01*
X103660000Y-52140000D02*
X103050000Y-52140000D01*
X103660000Y-54250000D02*
X103660000Y-49530000D01*
%TO.C,Rprog1*%
X103220000Y-67960000D02*
X103220000Y-64120000D01*
X105060000Y-67960000D02*
X105060000Y-64120000D01*
%TO.C,TP7*%
X83700000Y-72500000D02*
G75*
G02*
X82300000Y-72500000I-700000J0D01*
G01*
X82300000Y-72500000D02*
G75*
G02*
X83700000Y-72500000I700000J0D01*
G01*
%TO.C,Rled1*%
X98140000Y-64120000D02*
X98140000Y-67960000D01*
X99980000Y-64120000D02*
X99980000Y-67960000D01*
%TO.C,U1*%
X76155000Y-63380000D02*
X76155000Y-65030000D01*
X76155000Y-67030000D02*
X76155000Y-68680000D01*
X76155000Y-68680000D02*
X96595000Y-68680000D01*
X96595000Y-63380000D02*
X76155000Y-63380000D01*
X96595000Y-68680000D02*
X96595000Y-63380000D01*
X76155000Y-65030000D02*
G75*
G02*
X76155000Y-67030000I0J-1000000D01*
G01*
%TO.C,TP3*%
X78700000Y-78500000D02*
G75*
G02*
X77300000Y-78500000I-700000J0D01*
G01*
X77300000Y-78500000D02*
G75*
G02*
X78700000Y-78500000I700000J0D01*
G01*
%TO.C,TP4*%
X81700000Y-57500000D02*
G75*
G02*
X80300000Y-57500000I-700000J0D01*
G01*
X80300000Y-57500000D02*
G75*
G02*
X81700000Y-57500000I700000J0D01*
G01*
%TO.C,TP2*%
X79700000Y-56500000D02*
G75*
G02*
X78300000Y-56500000I-700000J0D01*
G01*
X78300000Y-56500000D02*
G75*
G02*
X79700000Y-56500000I700000J0D01*
G01*
%TO.C,R9*%
X88280000Y-75280000D02*
X84440000Y-75280000D01*
X88280000Y-77120000D02*
X84440000Y-77120000D01*
%TO.C,R10*%
X80550000Y-75280000D02*
X76710000Y-75280000D01*
X80550000Y-77120000D02*
X76710000Y-77120000D01*
%TO.C,C2*%
X77900000Y-82480000D02*
X76669000Y-82480000D01*
X77900000Y-82520000D02*
X76673000Y-82520000D01*
X77900000Y-82560000D02*
X76678000Y-82560000D01*
X77900000Y-82600000D02*
X76684000Y-82600000D01*
X77900000Y-82640000D02*
X76690000Y-82640000D01*
X77900000Y-82680000D02*
X76698000Y-82680000D01*
X77900000Y-82720000D02*
X76706000Y-82720000D01*
X77900000Y-82760000D02*
X76715000Y-82760000D01*
X77900000Y-82800000D02*
X76724000Y-82800000D01*
X77900000Y-82840000D02*
X76735000Y-82840000D01*
X77900000Y-82880000D02*
X76746000Y-82880000D01*
X77900000Y-82920000D02*
X76758000Y-82920000D01*
X77900000Y-82960000D02*
X76772000Y-82960000D01*
X77900000Y-83001000D02*
X76786000Y-83001000D01*
X77900000Y-83041000D02*
X76800000Y-83041000D01*
X77900000Y-83081000D02*
X76816000Y-83081000D01*
X77900000Y-83121000D02*
X76833000Y-83121000D01*
X77900000Y-83161000D02*
X76851000Y-83161000D01*
X77900000Y-83201000D02*
X76870000Y-83201000D01*
X77900000Y-83241000D02*
X76889000Y-83241000D01*
X77900000Y-83281000D02*
X76910000Y-83281000D01*
X77900000Y-83321000D02*
X76932000Y-83321000D01*
X77900000Y-83361000D02*
X76955000Y-83361000D01*
X77900000Y-83401000D02*
X76980000Y-83401000D01*
X77900000Y-83441000D02*
X77005000Y-83441000D01*
X77900000Y-83481000D02*
X77032000Y-83481000D01*
X77900000Y-83521000D02*
X77060000Y-83521000D01*
X77900000Y-83561000D02*
X77090000Y-83561000D01*
X77900000Y-83601000D02*
X77121000Y-83601000D01*
X77900000Y-83641000D02*
X77153000Y-83641000D01*
X77900000Y-83681000D02*
X77188000Y-83681000D01*
X77900000Y-83721000D02*
X77224000Y-83721000D01*
X77900000Y-83761000D02*
X77262000Y-83761000D01*
X77900000Y-83801000D02*
X77302000Y-83801000D01*
X77900000Y-83841000D02*
X77344000Y-83841000D01*
X77900000Y-83881000D02*
X77389000Y-83881000D01*
X77900000Y-83921000D02*
X77436000Y-83921000D01*
X77900000Y-83961000D02*
X77486000Y-83961000D01*
X77900000Y-84001000D02*
X77540000Y-84001000D01*
X77900000Y-84041000D02*
X77598000Y-84041000D01*
X77900000Y-84081000D02*
X77660000Y-84081000D01*
X79110000Y-84361000D02*
X78370000Y-84361000D01*
X79277000Y-84321000D02*
X78203000Y-84321000D01*
X79404000Y-84281000D02*
X78076000Y-84281000D01*
X79508000Y-84241000D02*
X77972000Y-84241000D01*
X79599000Y-84201000D02*
X77881000Y-84201000D01*
X79680000Y-84161000D02*
X77800000Y-84161000D01*
X79753000Y-84121000D02*
X77727000Y-84121000D01*
X79820000Y-84081000D02*
X79580000Y-84081000D01*
X79882000Y-84041000D02*
X79580000Y-84041000D01*
X79935000Y-80010199D02*
X79935000Y-80410199D01*
X79940000Y-84001000D02*
X79580000Y-84001000D01*
X79994000Y-83961000D02*
X79580000Y-83961000D01*
X80044000Y-83921000D02*
X79580000Y-83921000D01*
X80091000Y-83881000D02*
X79580000Y-83881000D01*
X80135000Y-80210199D02*
X79735000Y-80210199D01*
X80136000Y-83841000D02*
X79580000Y-83841000D01*
X80178000Y-83801000D02*
X79580000Y-83801000D01*
X80218000Y-83761000D02*
X79580000Y-83761000D01*
X80256000Y-83721000D02*
X79580000Y-83721000D01*
X80292000Y-83681000D02*
X79580000Y-83681000D01*
X80327000Y-83641000D02*
X79580000Y-83641000D01*
X80359000Y-83601000D02*
X79580000Y-83601000D01*
X80390000Y-83561000D02*
X79580000Y-83561000D01*
X80420000Y-83521000D02*
X79580000Y-83521000D01*
X80448000Y-83481000D02*
X79580000Y-83481000D01*
X80475000Y-83441000D02*
X79580000Y-83441000D01*
X80500000Y-83401000D02*
X79580000Y-83401000D01*
X80525000Y-83361000D02*
X79580000Y-83361000D01*
X80548000Y-83321000D02*
X79580000Y-83321000D01*
X80570000Y-83281000D02*
X79580000Y-83281000D01*
X80591000Y-83241000D02*
X79580000Y-83241000D01*
X80610000Y-83201000D02*
X79580000Y-83201000D01*
X80629000Y-83161000D02*
X79580000Y-83161000D01*
X80647000Y-83121000D02*
X79580000Y-83121000D01*
X80664000Y-83081000D02*
X79580000Y-83081000D01*
X80680000Y-83041000D02*
X79580000Y-83041000D01*
X80694000Y-83001000D02*
X79580000Y-83001000D01*
X80708000Y-82960000D02*
X79580000Y-82960000D01*
X80722000Y-82920000D02*
X79580000Y-82920000D01*
X80734000Y-82880000D02*
X79580000Y-82880000D01*
X80745000Y-82840000D02*
X79580000Y-82840000D01*
X80756000Y-82800000D02*
X79580000Y-82800000D01*
X80765000Y-82760000D02*
X79580000Y-82760000D01*
X80774000Y-82720000D02*
X79580000Y-82720000D01*
X80782000Y-82680000D02*
X79580000Y-82680000D01*
X80790000Y-82640000D02*
X79580000Y-82640000D01*
X80796000Y-82600000D02*
X79580000Y-82600000D01*
X80802000Y-82560000D02*
X79580000Y-82560000D01*
X80807000Y-82520000D02*
X79580000Y-82520000D01*
X80811000Y-82480000D02*
X79580000Y-82480000D01*
X80814000Y-82440000D02*
X76666000Y-82440000D01*
X80817000Y-82400000D02*
X76663000Y-82400000D01*
X80819000Y-82360000D02*
X76661000Y-82360000D01*
X80820000Y-82280000D02*
X76660000Y-82280000D01*
X80820000Y-82320000D02*
X76660000Y-82320000D01*
X80860000Y-82280000D02*
G75*
G02*
X76620000Y-82280000I-2120000J0D01*
G01*
X76620000Y-82280000D02*
G75*
G02*
X80860000Y-82280000I2120000J0D01*
G01*
%TO.C,J2*%
X77410000Y-49470000D02*
X77410000Y-54670000D01*
X92710000Y-52070000D02*
X92710000Y-54670000D01*
X92710000Y-54670000D02*
X77410000Y-54670000D01*
X95310000Y-49470000D02*
X77410000Y-49470000D01*
X95310000Y-49470000D02*
X95310000Y-52070000D01*
X95310000Y-52070000D02*
X92710000Y-52070000D01*
X95310000Y-53340000D02*
X95310000Y-54670000D01*
X95310000Y-54670000D02*
X93980000Y-54670000D01*
%TO.C,U2*%
X102737500Y-58450000D02*
X101937500Y-58450000D01*
X102737500Y-58450000D02*
X103537500Y-58450000D01*
X102737500Y-61570000D02*
X101937500Y-61570000D01*
X102737500Y-61570000D02*
X104537500Y-61570000D01*
%TO.C,TP1*%
X96200000Y-56500000D02*
G75*
G02*
X94800000Y-56500000I-700000J0D01*
G01*
X94800000Y-56500000D02*
G75*
G02*
X96200000Y-56500000I700000J0D01*
G01*
%TO.C,C1*%
X85520000Y-82480000D02*
X84289000Y-82480000D01*
X85520000Y-82520000D02*
X84293000Y-82520000D01*
X85520000Y-82560000D02*
X84298000Y-82560000D01*
X85520000Y-82600000D02*
X84304000Y-82600000D01*
X85520000Y-82640000D02*
X84310000Y-82640000D01*
X85520000Y-82680000D02*
X84318000Y-82680000D01*
X85520000Y-82720000D02*
X84326000Y-82720000D01*
X85520000Y-82760000D02*
X84335000Y-82760000D01*
X85520000Y-82800000D02*
X84344000Y-82800000D01*
X85520000Y-82840000D02*
X84355000Y-82840000D01*
X85520000Y-82880000D02*
X84366000Y-82880000D01*
X85520000Y-82920000D02*
X84378000Y-82920000D01*
X85520000Y-82960000D02*
X84392000Y-82960000D01*
X85520000Y-83001000D02*
X84406000Y-83001000D01*
X85520000Y-83041000D02*
X84420000Y-83041000D01*
X85520000Y-83081000D02*
X84436000Y-83081000D01*
X85520000Y-83121000D02*
X84453000Y-83121000D01*
X85520000Y-83161000D02*
X84471000Y-83161000D01*
X85520000Y-83201000D02*
X84490000Y-83201000D01*
X85520000Y-83241000D02*
X84509000Y-83241000D01*
X85520000Y-83281000D02*
X84530000Y-83281000D01*
X85520000Y-83321000D02*
X84552000Y-83321000D01*
X85520000Y-83361000D02*
X84575000Y-83361000D01*
X85520000Y-83401000D02*
X84600000Y-83401000D01*
X85520000Y-83441000D02*
X84625000Y-83441000D01*
X85520000Y-83481000D02*
X84652000Y-83481000D01*
X85520000Y-83521000D02*
X84680000Y-83521000D01*
X85520000Y-83561000D02*
X84710000Y-83561000D01*
X85520000Y-83601000D02*
X84741000Y-83601000D01*
X85520000Y-83641000D02*
X84773000Y-83641000D01*
X85520000Y-83681000D02*
X84808000Y-83681000D01*
X85520000Y-83721000D02*
X84844000Y-83721000D01*
X85520000Y-83761000D02*
X84882000Y-83761000D01*
X85520000Y-83801000D02*
X84922000Y-83801000D01*
X85520000Y-83841000D02*
X84964000Y-83841000D01*
X85520000Y-83881000D02*
X85009000Y-83881000D01*
X85520000Y-83921000D02*
X85056000Y-83921000D01*
X85520000Y-83961000D02*
X85106000Y-83961000D01*
X85520000Y-84001000D02*
X85160000Y-84001000D01*
X85520000Y-84041000D02*
X85218000Y-84041000D01*
X85520000Y-84081000D02*
X85280000Y-84081000D01*
X86730000Y-84361000D02*
X85990000Y-84361000D01*
X86897000Y-84321000D02*
X85823000Y-84321000D01*
X87024000Y-84281000D02*
X85696000Y-84281000D01*
X87128000Y-84241000D02*
X85592000Y-84241000D01*
X87219000Y-84201000D02*
X85501000Y-84201000D01*
X87300000Y-84161000D02*
X85420000Y-84161000D01*
X87373000Y-84121000D02*
X85347000Y-84121000D01*
X87440000Y-84081000D02*
X87200000Y-84081000D01*
X87502000Y-84041000D02*
X87200000Y-84041000D01*
X87555000Y-80010199D02*
X87555000Y-80410199D01*
X87560000Y-84001000D02*
X87200000Y-84001000D01*
X87614000Y-83961000D02*
X87200000Y-83961000D01*
X87664000Y-83921000D02*
X87200000Y-83921000D01*
X87711000Y-83881000D02*
X87200000Y-83881000D01*
X87755000Y-80210199D02*
X87355000Y-80210199D01*
X87756000Y-83841000D02*
X87200000Y-83841000D01*
X87798000Y-83801000D02*
X87200000Y-83801000D01*
X87838000Y-83761000D02*
X87200000Y-83761000D01*
X87876000Y-83721000D02*
X87200000Y-83721000D01*
X87912000Y-83681000D02*
X87200000Y-83681000D01*
X87947000Y-83641000D02*
X87200000Y-83641000D01*
X87979000Y-83601000D02*
X87200000Y-83601000D01*
X88010000Y-83561000D02*
X87200000Y-83561000D01*
X88040000Y-83521000D02*
X87200000Y-83521000D01*
X88068000Y-83481000D02*
X87200000Y-83481000D01*
X88095000Y-83441000D02*
X87200000Y-83441000D01*
X88120000Y-83401000D02*
X87200000Y-83401000D01*
X88145000Y-83361000D02*
X87200000Y-83361000D01*
X88168000Y-83321000D02*
X87200000Y-83321000D01*
X88190000Y-83281000D02*
X87200000Y-83281000D01*
X88211000Y-83241000D02*
X87200000Y-83241000D01*
X88230000Y-83201000D02*
X87200000Y-83201000D01*
X88249000Y-83161000D02*
X87200000Y-83161000D01*
X88267000Y-83121000D02*
X87200000Y-83121000D01*
X88284000Y-83081000D02*
X87200000Y-83081000D01*
X88300000Y-83041000D02*
X87200000Y-83041000D01*
X88314000Y-83001000D02*
X87200000Y-83001000D01*
X88328000Y-82960000D02*
X87200000Y-82960000D01*
X88342000Y-82920000D02*
X87200000Y-82920000D01*
X88354000Y-82880000D02*
X87200000Y-82880000D01*
X88365000Y-82840000D02*
X87200000Y-82840000D01*
X88376000Y-82800000D02*
X87200000Y-82800000D01*
X88385000Y-82760000D02*
X87200000Y-82760000D01*
X88394000Y-82720000D02*
X87200000Y-82720000D01*
X88402000Y-82680000D02*
X87200000Y-82680000D01*
X88410000Y-82640000D02*
X87200000Y-82640000D01*
X88416000Y-82600000D02*
X87200000Y-82600000D01*
X88422000Y-82560000D02*
X87200000Y-82560000D01*
X88427000Y-82520000D02*
X87200000Y-82520000D01*
X88431000Y-82480000D02*
X87200000Y-82480000D01*
X88434000Y-82440000D02*
X84286000Y-82440000D01*
X88437000Y-82400000D02*
X84283000Y-82400000D01*
X88439000Y-82360000D02*
X84281000Y-82360000D01*
X88440000Y-82280000D02*
X84280000Y-82280000D01*
X88440000Y-82320000D02*
X84280000Y-82320000D01*
X88480000Y-82280000D02*
G75*
G02*
X84240000Y-82280000I-2120000J0D01*
G01*
X84240000Y-82280000D02*
G75*
G02*
X88480000Y-82280000I2120000J0D01*
G01*
%TO.C,charging1*%
X103060000Y-73370000D02*
X102904000Y-73370000D01*
X105376000Y-73370000D02*
X105220000Y-73370000D01*
X103060164Y-75971129D02*
G75*
G02*
X103060001Y-73889040I1079836J1041129D01*
G01*
X103061392Y-76602334D02*
G75*
G02*
X102904485Y-73370001I1078608J1672334D01*
G01*
X105219999Y-73889040D02*
G75*
G02*
X105219836Y-75971129I-1079999J-1040960D01*
G01*
X105375515Y-73370001D02*
G75*
G02*
X105218608Y-76602334I-1235515J-1559999D01*
G01*
%TD*%
%LPC*%
D12*
%TO.C,SW1*%
X99060000Y-82550000D03*
X93980000Y-82550000D03*
X93980000Y-74930000D03*
X96520000Y-74930000D03*
X99060000Y-74930000D03*
%TD*%
D13*
%TO.C,TP6*%
X82500000Y-59500000D03*
%TD*%
D14*
%TO.C,J1*%
X99600000Y-51340000D03*
D15*
X101600000Y-51340000D03*
%TD*%
D16*
%TO.C,Rprog1*%
X104140000Y-68580000D03*
D17*
X104140000Y-63500000D03*
%TD*%
D13*
%TO.C,TP7*%
X83000000Y-72500000D03*
%TD*%
D16*
%TO.C,Rled1*%
X99060000Y-63500000D03*
D17*
X99060000Y-68580000D03*
%TD*%
D18*
%TO.C,U1*%
X77485000Y-69840000D03*
D19*
X80025000Y-69840000D03*
X82565000Y-69840000D03*
X85105000Y-69840000D03*
X87645000Y-69840000D03*
X90185000Y-69840000D03*
X92725000Y-69840000D03*
X95265000Y-69840000D03*
X95265000Y-62220000D03*
X92725000Y-62220000D03*
X90185000Y-62220000D03*
X87645000Y-62220000D03*
X85105000Y-62220000D03*
X82565000Y-62220000D03*
X80025000Y-62220000D03*
X77485000Y-62220000D03*
%TD*%
D13*
%TO.C,TP3*%
X78000000Y-78500000D03*
%TD*%
%TO.C,TP4*%
X81000000Y-57500000D03*
%TD*%
%TO.C,TP2*%
X79000000Y-56500000D03*
%TD*%
D16*
%TO.C,R9*%
X88900000Y-76200000D03*
D17*
X83820000Y-76200000D03*
%TD*%
D16*
%TO.C,R10*%
X81170000Y-76200000D03*
D17*
X76090000Y-76200000D03*
%TD*%
D20*
%TO.C,C2*%
X78740000Y-81280000D03*
D21*
X78740000Y-83280000D03*
%TD*%
D22*
%TO.C,J2*%
X93980000Y-53340000D03*
D23*
X93980000Y-50800000D03*
X91440000Y-53340000D03*
X91440000Y-50800000D03*
X88900000Y-53340000D03*
X88900000Y-50800000D03*
X86360000Y-53340000D03*
X86360000Y-50800000D03*
X83820000Y-53340000D03*
X83820000Y-50800000D03*
X81280000Y-53340000D03*
X81280000Y-50800000D03*
X78740000Y-53340000D03*
X78740000Y-50800000D03*
%TD*%
D24*
%TO.C,U2*%
X103875000Y-60960000D03*
X103875000Y-60010000D03*
X103875000Y-59060000D03*
X101600000Y-59060000D03*
X101600000Y-60960000D03*
%TD*%
D13*
%TO.C,TP1*%
X95500000Y-56500000D03*
%TD*%
D20*
%TO.C,C1*%
X86360000Y-81280000D03*
D21*
X86360000Y-83280000D03*
%TD*%
D25*
%TO.C,charging1*%
X104140000Y-73660000D03*
D26*
X104140000Y-76200000D03*
%TD*%
%LPD*%
M02*
