M48
; DRILL file {KiCad 8.0.1} date 2024-03-30T16:35:57+0200
; FORMAT={-:-/ absolute / inch / decimal}
; #@! TF.CreationDate,2024-03-30T16:35:57+02:00
; #@! TF.GenerationSoftware,Kicad,Pcbnew,8.0.1
; #@! TF.FileFunction,Plated,1,2,PTH
FMAT,2
INCH
; #@! TA.AperFunction,Plated,PTH,ViaDrill
T1C0.0157
; #@! TA.AperFunction,Plated,PTH,ComponentDrill
T2C0.0236
; #@! TA.AperFunction,Plated,PTH,ComponentDrill
T3C0.0276
; #@! TA.AperFunction,Plated,PTH,ComponentDrill
T4C0.0295
; #@! TA.AperFunction,Plated,PTH,ComponentDrill
T5C0.0315
; #@! TA.AperFunction,Plated,PTH,ComponentDrill
T6C0.0354
; #@! TA.AperFunction,Plated,PTH,ComponentDrill
T7C0.0394
; #@! TA.AperFunction,Plated,PTH,ComponentDrill
T8C0.0450
%
G90
G05
T1
X3.2Y-2.9
X3.5Y-2.8
T2
X3.1Y-3.2
X3.1Y-3.2787
X3.4Y-3.2
X3.4Y-3.2787
T3
X2.9957Y-3.0
X3.1957Y-3.0
X3.3Y-3.0
X3.5Y-3.0
X3.9Y-2.5
X3.9Y-2.7
X4.1Y-2.5
X4.1Y-2.7
T4
X3.9213Y-2.0213
X4.0Y-2.0213
T5
X3.0506Y-2.4496
X3.0506Y-2.7496
X3.1506Y-2.4496
X3.1506Y-2.7496
X3.2506Y-2.4496
X3.2506Y-2.7496
X3.3506Y-2.4496
X3.3506Y-2.7496
X3.4506Y-2.4496
X3.4506Y-2.7496
X3.5506Y-2.4496
X3.5506Y-2.7496
X3.6506Y-2.4496
X3.6506Y-2.7496
X3.7506Y-2.4496
X3.7506Y-2.7496
T6
X4.1Y-2.9
X4.1Y-3.0
T7
X3.1Y-2.0
X3.1Y-2.1
X3.2Y-2.0
X3.2Y-2.1
X3.3Y-2.0
X3.3Y-2.1
X3.4Y-2.0
X3.4Y-2.1
X3.5Y-2.0
X3.5Y-2.1
X3.6Y-2.0
X3.6Y-2.1
X3.7Y-2.0
X3.7Y-2.1
T8
X3.7Y-2.95
X3.7Y-3.25
X3.8Y-2.95
X3.9Y-2.95
X3.9Y-3.25
M30
