%TF.GenerationSoftware,KiCad,Pcbnew,8.0.1*%
%TF.CreationDate,2024-03-30T16:35:56+02:00*%
%TF.ProjectId,Design PCB assignment,44657369-676e-4205-9043-422061737369,rev?*%
%TF.SameCoordinates,Original*%
%TF.FileFunction,Copper,L2,Bot*%
%TF.FilePolarity,Positive*%
%FSLAX46Y46*%
G04 Gerber Fmt 4.6, Leading zero omitted, Abs format (unit mm)*
G04 Created by KiCad (PCBNEW 8.0.1) date 2024-03-30 16:35:57*
%MOMM*%
%LPD*%
G01*
G04 APERTURE LIST*
G04 Aperture macros list*
%AMRoundRect*
0 Rectangle with rounded corners*
0 $1 Rounding radius*
0 $2 $3 $4 $5 $6 $7 $8 $9 X,Y pos of 4 corners*
0 Add a 4 corners polygon primitive as box body*
4,1,4,$2,$3,$4,$5,$6,$7,$8,$9,$2,$3,0*
0 Add four circle primitives for the rounded corners*
1,1,$1+$1,$2,$3*
1,1,$1+$1,$4,$5*
1,1,$1+$1,$6,$7*
1,1,$1+$1,$8,$9*
0 Add four rect primitives between the rounded corners*
20,1,$1+$1,$2,$3,$4,$5,0*
20,1,$1+$1,$4,$5,$6,$7,0*
20,1,$1+$1,$6,$7,$8,$9,0*
20,1,$1+$1,$8,$9,$2,$3,0*%
G04 Aperture macros list end*
%TA.AperFunction,ComponentPad*%
%ADD10C,1.778000*%
%TD*%
%TA.AperFunction,ComponentPad*%
%ADD11RoundRect,0.250000X-0.350000X-0.625000X0.350000X-0.625000X0.350000X0.625000X-0.350000X0.625000X0*%
%TD*%
%TA.AperFunction,ComponentPad*%
%ADD12O,1.200000X1.750000*%
%TD*%
%TA.AperFunction,ComponentPad*%
%ADD13C,1.400000*%
%TD*%
%TA.AperFunction,ComponentPad*%
%ADD14O,1.400000X1.400000*%
%TD*%
%TA.AperFunction,ComponentPad*%
%ADD15R,1.600000X1.600000*%
%TD*%
%TA.AperFunction,ComponentPad*%
%ADD16O,1.600000X1.600000*%
%TD*%
%TA.AperFunction,ComponentPad*%
%ADD17R,1.200000X1.200000*%
%TD*%
%TA.AperFunction,ComponentPad*%
%ADD18C,1.200000*%
%TD*%
%TA.AperFunction,ComponentPad*%
%ADD19R,1.700000X1.700000*%
%TD*%
%TA.AperFunction,ComponentPad*%
%ADD20O,1.700000X1.700000*%
%TD*%
%TA.AperFunction,ComponentPad*%
%ADD21R,1.800000X1.800000*%
%TD*%
%TA.AperFunction,ComponentPad*%
%ADD22C,1.800000*%
%TD*%
%TA.AperFunction,ViaPad*%
%ADD23C,0.800000*%
%TD*%
%TA.AperFunction,Conductor*%
%ADD24C,0.250000*%
%TD*%
%TA.AperFunction,Conductor*%
%ADD25C,0.400000*%
%TD*%
G04 APERTURE END LIST*
D10*
%TO.P,SW1,1,1*%
%TO.N,Net-(U1-EN1\u002C2)*%
X99060000Y-82550000D03*
%TO.P,SW1,2,2*%
%TO.N,BATT +*%
X93980000Y-82550000D03*
%TO.P,SW1,3*%
%TO.N,N/C*%
X93980000Y-74930000D03*
%TO.P,SW1,4*%
X96520000Y-74930000D03*
%TO.P,SW1,5*%
X99060000Y-74930000D03*
%TD*%
D11*
%TO.P,J1,1,Pin_1*%
%TO.N,GND*%
X99600000Y-51340000D03*
D12*
%TO.P,J1,2,Pin_2*%
%TO.N,BATT +*%
X101600000Y-51340000D03*
%TD*%
D13*
%TO.P,Rprog1,1*%
%TO.N,Net-(U2-PROG)*%
X104140000Y-68580000D03*
D14*
%TO.P,Rprog1,2*%
%TO.N,Net-(U2-V_{SS})*%
X104140000Y-63500000D03*
%TD*%
D13*
%TO.P,Rled1,1*%
%TO.N,5V*%
X99060000Y-63500000D03*
D14*
%TO.P,Rled1,2*%
%TO.N,Net-(charging1-A)*%
X99060000Y-68580000D03*
%TD*%
D15*
%TO.P,U1,1,EN1\u002C2*%
%TO.N,BATT +*%
X77485000Y-69840000D03*
D16*
%TO.P,U1,2,1A*%
%TO.N,PWM1*%
X80025000Y-69840000D03*
%TO.P,U1,3,1Y*%
%TO.N,Motor1_B*%
X82565000Y-69840000D03*
%TO.P,U1,4,GND*%
%TO.N,GND*%
X85105000Y-69840000D03*
%TO.P,U1,5,GND*%
X87645000Y-69840000D03*
%TO.P,U1,6,2Y*%
%TO.N,Motor1_A*%
X90185000Y-69840000D03*
%TO.P,U1,7,2A*%
%TO.N,PWM2*%
X92725000Y-69840000D03*
%TO.P,U1,8,VCC2*%
%TO.N,BATT +*%
X95265000Y-69840000D03*
%TO.P,U1,9,EN3\u002C4*%
X95265000Y-62220000D03*
%TO.P,U1,10,3A*%
%TO.N,PWM3*%
X92725000Y-62220000D03*
%TO.P,U1,11,3Y*%
%TO.N,Motor2_B*%
X90185000Y-62220000D03*
%TO.P,U1,12,GND*%
%TO.N,GND*%
X87645000Y-62220000D03*
%TO.P,U1,13,GND*%
X85105000Y-62220000D03*
%TO.P,U1,14,4Y*%
%TO.N,Motor2_A*%
X82565000Y-62220000D03*
%TO.P,U1,15,4A*%
%TO.N,PWM4*%
X80025000Y-62220000D03*
%TO.P,U1,16,VCC1*%
%TO.N,BATT +*%
X77485000Y-62220000D03*
%TD*%
D13*
%TO.P,R9,1*%
%TO.N,BATT +*%
X88900000Y-76200000D03*
D14*
%TO.P,R9,2*%
%TO.N,BATT_ADC*%
X83820000Y-76200000D03*
%TD*%
D13*
%TO.P,R10,1*%
%TO.N,BATT_ADC*%
X81170000Y-76200000D03*
D14*
%TO.P,R10,2*%
%TO.N,GND*%
X76090000Y-76200000D03*
%TD*%
D17*
%TO.P,C2,1*%
%TO.N,BATT +*%
X78740000Y-81280000D03*
D18*
%TO.P,C2,2*%
%TO.N,GND*%
X78740000Y-83280000D03*
%TD*%
D19*
%TO.P,J2,1,Pin_1*%
%TO.N,Motor2_A*%
X93980000Y-53340000D03*
D20*
%TO.P,J2,2,Pin_2*%
%TO.N,PWM1*%
X93980000Y-50800000D03*
%TO.P,J2,3,Pin_3*%
%TO.N,Motor2_B*%
X91440000Y-53340000D03*
%TO.P,J2,4,Pin_4*%
%TO.N,PWM2*%
X91440000Y-50800000D03*
%TO.P,J2,5,Pin_5*%
%TO.N,GND*%
X88900000Y-53340000D03*
%TO.P,J2,6,Pin_6*%
X88900000Y-50800000D03*
%TO.P,J2,7,Pin_7*%
%TO.N,BATT +*%
X86360000Y-53340000D03*
%TO.P,J2,8,Pin_8*%
X86360000Y-50800000D03*
%TO.P,J2,9,Pin_9*%
%TO.N,RESV*%
X83820000Y-53340000D03*
%TO.P,J2,10,Pin_10*%
%TO.N,BATT_ADC*%
X83820000Y-50800000D03*
%TO.P,J2,11,Pin_11*%
%TO.N,5V*%
X81280000Y-53340000D03*
%TO.P,J2,12,Pin_12*%
X81280000Y-50800000D03*
%TO.P,J2,13,Pin_13*%
%TO.N,Motor1_A*%
X78740000Y-53340000D03*
%TO.P,J2,14,Pin_14*%
%TO.N,PWM3*%
X78740000Y-50800000D03*
%TD*%
D17*
%TO.P,C1,1*%
%TO.N,5V*%
X86360000Y-81280000D03*
D18*
%TO.P,C1,2*%
%TO.N,GND*%
X86360000Y-83280000D03*
%TD*%
D21*
%TO.P,charging1,1,K*%
%TO.N,Net-(U2-STAT)*%
X104140000Y-73660000D03*
D22*
%TO.P,charging1,2,A*%
%TO.N,Net-(charging1-A)*%
X104140000Y-76200000D03*
%TD*%
D23*
%TO.N,Motor2_A*%
X81280000Y-73660000D03*
%TO.N,PWM3*%
X88900000Y-71120000D03*
%TD*%
D24*
%TO.N,5V*%
X86360000Y-81280000D02*
X86360000Y-80680000D01*
X98035000Y-69005000D02*
X98035000Y-64525000D01*
D25*
X86360000Y-80680000D02*
X98035000Y-69005000D01*
D24*
X98035000Y-64525000D02*
X99060000Y-63500000D01*
%TO.N,GND*%
X87645000Y-54595000D02*
X88900000Y-53340000D01*
X87645000Y-62220000D02*
X87645000Y-54595000D01*
%TO.N,Motor2_A*%
X82795000Y-75175000D02*
X82795000Y-82795000D01*
X104140000Y-50800000D02*
X106680000Y-53340000D01*
X81280000Y-73660000D02*
X82795000Y-75175000D01*
X84205000Y-84205000D02*
X103755000Y-84205000D01*
X106680000Y-53340000D02*
X106680000Y-81280000D01*
X82565000Y-62220000D02*
X82565000Y-59565000D01*
X96520000Y-50800000D02*
X97180000Y-50140000D01*
X82565000Y-59565000D02*
X82500000Y-59500000D01*
X103480000Y-50140000D02*
X104140000Y-50800000D01*
X103755000Y-84205000D02*
X106680000Y-81280000D01*
X82795000Y-82795000D02*
X84205000Y-84205000D01*
X97180000Y-50140000D02*
X103480000Y-50140000D01*
X93980000Y-53340000D02*
X96520000Y-50800000D01*
%TO.N,PWM1*%
X77569656Y-51970344D02*
X77565000Y-51975000D01*
X79229710Y-51970344D02*
X77569656Y-51970344D01*
X79915000Y-51285054D02*
X79229710Y-51970344D01*
X78900000Y-68715000D02*
X80025000Y-69840000D01*
X93980000Y-50800000D02*
X92809656Y-49629656D01*
X78900000Y-61120000D02*
X78900000Y-68715000D01*
X92809656Y-49629656D02*
X80600290Y-49629656D01*
X77565000Y-59785000D02*
X78900000Y-61120000D01*
X80600290Y-49629656D02*
X79915000Y-50314946D01*
X79915000Y-50314946D02*
X79915000Y-51285054D01*
X77565000Y-51975000D02*
X77565000Y-59785000D01*
%TO.N,Motor2_B*%
X91310000Y-70298878D02*
X92131122Y-71120000D01*
X93980000Y-68580000D02*
X93980000Y-55880000D01*
X91310000Y-69381122D02*
X91310000Y-70298878D01*
X92131122Y-71120000D02*
X93028878Y-71120000D01*
X93980000Y-55880000D02*
X91440000Y-53340000D01*
X93980000Y-70168878D02*
X93980000Y-68580000D01*
X90185000Y-68256122D02*
X91310000Y-69381122D01*
X90185000Y-62220000D02*
X90185000Y-68256122D01*
X93028878Y-71120000D02*
X93980000Y-70168878D01*
%TO.N,PWM2*%
X90265000Y-51975000D02*
X91440000Y-50800000D01*
X90265000Y-53825054D02*
X90265000Y-51975000D01*
X92725000Y-69840000D02*
X91440000Y-68555000D01*
X91440000Y-68555000D02*
X91440000Y-55000054D01*
X91440000Y-55000054D02*
X90265000Y-53825054D01*
%TO.N,Motor1_A*%
X78740000Y-53340000D02*
X86495000Y-61095000D01*
X86495000Y-61095000D02*
X86495000Y-66150000D01*
X86495000Y-66150000D02*
X90185000Y-69840000D01*
%TO.N,PWM3*%
X76360000Y-70774620D02*
X76705380Y-71120000D01*
X76705380Y-71120000D02*
X88900000Y-71120000D01*
X78740000Y-50800000D02*
X77890000Y-50800000D01*
X76360000Y-52330000D02*
X76360000Y-70774620D01*
X77890000Y-50800000D02*
X76360000Y-52330000D01*
%TD*%
M02*
